<?xml version="1.0" encoding="UTF-8"?>
<svg id="Layer_2" data-name="Layer 2" xmlns="http://www.w3.org/2000/svg" viewBox="0 0 1194.64 591.08">
  <defs>
    <style>
      .cls-1 {
        fill: #EAECED;
      }
    </style>
  </defs>
  <g id="Layer_1-2" data-name="Layer 1">
    <g>
      <path class="cls-1" d="M1194.39,544.09c-.06,0-.1,.05-.1,.1s.05,.1,.1,.1,.1-.05,.1-.1-.05-.1-.1-.1Z"/>
      <path class="cls-1" d="M1169.71,556.04c-.27,0-.49,.22-.49,.49s.22,.49,.49,.49,.49-.22,.49-.49-.22-.49-.49-.49Z"/>
      <path class="cls-1" d="M1145.03,567.8c-.59,0-1.07,.48-1.07,1.07s.48,1.07,1.07,1.07,1.07-.48,1.07-1.07-.48-1.07-1.07-1.07Z"/>
      <path class="cls-1" d="M1120.35,581.04c-.09,0-.17,.08-.17,.17s.08,.17,.17,.17,.17-.08,.17-.17-.08-.17-.17-.17Z"/>
      <path class="cls-1" d="M1194.39,507.03c-.08,0-.15,.06-.15,.15s.07,.15,.15,.15,.15-.07,.15-.15-.07-.15-.15-.15Z"/>
      <path class="cls-1" d="M1169.71,518.23c-.71,0-1.29,.58-1.29,1.29s.58,1.29,1.29,1.29,1.29-.58,1.29-1.29-.58-1.29-1.29-1.29Z"/>
      <circle class="cls-1" cx="1145.03" cy="531.85" r=".74"/>
      <path class="cls-1" d="M1120.35,543.29c-.5,0-.9,.4-.9,.9s.4,.9,.9,.9,.9-.4,.9-.9-.4-.9-.9-.9Z"/>
      <circle class="cls-1" cx="1095.68" cy="556.53" r="1.61"/>
      <path class="cls-1" d="M1071,567.36c-.83,0-1.51,.68-1.51,1.51s.68,1.51,1.51,1.51,1.51-.68,1.51-1.51-.68-1.51-1.51-1.51Z"/>
      <path class="cls-1" d="M1046.32,580.86c-.2,0-.35,.16-.35,.35s.16,.35,.35,.35,.35-.16,.35-.35-.16-.35-.35-.35Z"/>
      <path class="cls-1" d="M1194.39,469.98c-.1,0-.18,.08-.18,.18s.08,.18,.18,.18,.18-.08,.18-.18-.08-.18-.18-.18Z"/>
      <path class="cls-1" d="M1169.71,481.1c-.77,0-1.4,.62-1.4,1.4s.62,1.4,1.4,1.4,1.4-.62,1.4-1.4-.62-1.4-1.4-1.4Z"/>
      <path class="cls-1" d="M1145.03,493.12c-.95,0-1.72,.77-1.72,1.72s.77,1.72,1.72,1.72,1.72-.77,1.72-1.72-.77-1.72-1.72-1.72Z"/>
      <path class="cls-1" d="M1120.35,506.2c-.54,0-.98,.44-.98,.98s.44,.98,.98,.98,.98-.44,.98-.98-.44-.98-.98-.98Z"/>
      <path class="cls-1" d="M1094.84,519.52c0,.46,.37,.84,.84,.84s.84-.37,.84-.84-.37-.84-.84-.84-.84,.37-.84,.84Z"/>
      <path class="cls-1" d="M1071,530.2c-.91,0-1.65,.74-1.65,1.65s.74,1.65,1.65,1.65,1.65-.74,1.65-1.65-.74-1.65-1.65-1.65Z"/>
      <path class="cls-1" d="M1046.32,542.07c-1.17,0-2.13,.95-2.13,2.13s.95,2.13,2.13,2.13,2.13-.95,2.13-2.13-.95-2.13-2.13-2.13Z"/>
      <path class="cls-1" d="M1021.64,554.32c-1.22,0-2.21,.99-2.21,2.21s.99,2.21,2.21,2.21,2.21-.99,2.21-2.21-.99-2.21-2.21-2.21Z"/>
      <path class="cls-1" d="M996.97,567.15c-.95,0-1.72,.77-1.72,1.72s.77,1.72,1.72,1.72,1.72-.77,1.72-1.72-.77-1.72-1.72-1.72Z"/>
      <path class="cls-1" d="M972.29,580.6c-.33,0-.61,.27-.61,.6s.27,.61,.61,.61,.61-.27,.61-.61-.27-.6-.61-.6Z"/>
      <circle class="cls-1" cx="1194.39" cy="433.15" r=".21"/>
      <path class="cls-1" d="M1161.48,447.95c-.91,0-1.65,.74-1.65,1.65s.74,1.65,1.65,1.65,1.65-.74,1.65-1.65-.74-1.65-1.65-1.65Z"/>
      <circle class="cls-1" cx="1128.58" cy="466.05" r="2.05"/>
      <path class="cls-1" d="M1096.89,482.5c0-.67-.54-1.21-1.21-1.21s-1.21,.54-1.21,1.21,.54,1.21,1.21,1.21,1.21-.54,1.21-1.21Z"/>
      <path class="cls-1" d="M1062.77,497.88c-.59,0-1.07,.48-1.07,1.07s.48,1.07,1.07,1.07,1.07-.48,1.07-1.07-.48-1.07-1.07-1.07Z"/>
      <circle class="cls-1" cx="1029.87" cy="515.4" r="2.05"/>
      <path class="cls-1" d="M996.97,529.24c-1.45,0-2.62,1.17-2.62,2.62s1.17,2.62,2.62,2.62,2.62-1.17,2.62-2.62-1.17-2.62-2.62-2.62Z"/>
      <path class="cls-1" d="M964.06,545.56c-1.52,0-2.74,1.23-2.74,2.74s1.23,2.74,2.74,2.74,2.74-1.23,2.74-2.74-1.23-2.74-2.74-2.74Z"/>
      <path class="cls-1" d="M931.16,562.56c-1.22,0-2.2,.98-2.2,2.2s.99,2.2,2.2,2.2,2.2-.99,2.2-2.2-.99-2.2-2.2-2.2Z"/>
      <path class="cls-1" d="M898.26,580.29c-.51,0-.92,.41-.92,.92s.41,.92,.92,.92,.92-.41,.92-.92-.41-.92-.92-.92Z"/>
      <circle class="cls-1" cx="1194.39" cy="396.13" r=".24"/>
      <circle class="cls-1" cx="1163.54" cy="411.55" r="1.58"/>
      <path class="cls-1" d="M1132.69,424.77c-1.22,0-2.21,.99-2.21,2.21s.99,2.21,2.21,2.21,2.21-.99,2.21-2.21-.99-2.21-2.21-2.21Z"/>
      <path class="cls-1" d="M1101.85,440.17c-1.23,0-2.23,1-2.23,2.23s1,2.23,2.23,2.23,2.23-1,2.23-2.23-1-2.23-2.23-2.23Z"/>
      <path class="cls-1" d="M1071,459.26c.79,0,1.44-.64,1.44-1.44s-.64-1.44-1.44-1.44-1.44,.64-1.44,1.44,.64,1.44,1.44,1.44Z"/>
      <path class="cls-1" d="M1040.15,472.07c-.65,0-1.18,.53-1.18,1.18s.53,1.18,1.18,1.18,1.18-.53,1.18-1.18-.53-1.18-1.18-1.18Z"/>
      <path class="cls-1" d="M1009.31,486.85c-1.01,0-1.82,.82-1.82,1.82s.82,1.82,1.82,1.82,1.82-.82,1.82-1.82-.82-1.82-1.82-1.82Z"/>
      <path class="cls-1" d="M978.46,501.44c-1.46,0-2.65,1.19-2.65,2.65s1.19,2.65,2.65,2.65,2.65-1.19,2.65-2.65-1.19-2.65-2.65-2.65Z"/>
      <path class="cls-1" d="M947.61,516.43c-1.7,0-3.09,1.38-3.09,3.09s1.38,3.09,3.09,3.09,3.09-1.38,3.09-3.09-1.38-3.09-3.09-3.09Z"/>
      <path class="cls-1" d="M916.76,531.63c-1.83,0-3.31,1.48-3.31,3.31s1.48,3.31,3.31,3.31,3.31-1.48,3.31-3.31-1.48-3.31-3.31-3.31Z"/>
      <path class="cls-1" d="M885.92,547.31c-1.69,0-3.05,1.37-3.05,3.05s1.37,3.05,3.05,3.05,3.05-1.37,3.05-3.05-1.37-3.05-3.05-3.05Z"/>
      <path class="cls-1" d="M855.07,563.38c-1.33,0-2.4,1.08-2.4,2.4s1.08,2.4,2.4,2.4,2.4-1.08,2.4-2.4-1.08-2.4-2.4-2.4Z"/>
      <path class="cls-1" d="M824.22,579.9c-.72,0-1.31,.58-1.31,1.31s.58,1.31,1.31,1.31,1.31-.58,1.31-1.31-.58-1.31-1.31-1.31Z"/>
      <path class="cls-1" d="M1194.39,358.86c-.14,0-.25,.11-.25,.25s.11,.25,.25,.25,.25-.11,.25-.25-.11-.25-.25-.25Z"/>
      <circle class="cls-1" cx="1164.77" cy="373.92" r="1.49"/>
      <circle class="cls-1" cx="1135.16" cy="388.73" r="2.19"/>
      <path class="cls-1" d="M1105.55,400.98c-1.41,0-2.56,1.14-2.56,2.56s1.14,2.56,2.56,2.56,2.56-1.14,2.56-2.56-1.14-2.56-2.56-2.56Z"/>
      <circle class="cls-1" cx="1075.93" cy="418.34" r="2.32"/>
      <path class="cls-1" d="M1046.32,434.8c.91,0,1.65-.74,1.65-1.65s-.74-1.65-1.65-1.65-1.65,.74-1.65,1.65,.74,1.65,1.65,1.65Z"/>
      <path class="cls-1" d="M1016.71,446.6c-.75,0-1.35,.61-1.35,1.35s.61,1.35,1.35,1.35,1.35-.61,1.35-1.35-.61-1.35-1.35-1.35Z"/>
      <path class="cls-1" d="M987.1,461c-.97,0-1.76,.79-1.76,1.76s.79,1.76,1.76,1.76,1.76-.79,1.76-1.76-.79-1.76-1.76-1.76Z"/>
      <path class="cls-1" d="M957.48,475.03c-1.4,0-2.53,1.13-2.53,2.54s1.13,2.53,2.53,2.53,2.53-1.13,2.53-2.53-1.13-2.54-2.53-2.54Z"/>
      <path class="cls-1" d="M931.03,492.37c0-1.74-1.41-3.16-3.16-3.16s-3.16,1.41-3.16,3.16,1.41,3.16,3.16,3.16,3.16-1.41,3.16-3.16Z"/>
      <path class="cls-1" d="M898.26,503.65c-1.95,0-3.53,1.58-3.53,3.53s1.58,3.53,3.53,3.53,3.53-1.58,3.53-3.53-1.58-3.53-3.53-3.53Z"/>
      <circle class="cls-1" cx="868.64" cy="521.98" r="3.78"/>
      <path class="cls-1" d="M839.03,533.08c-2.05,0-3.71,1.66-3.71,3.71s1.66,3.71,3.71,3.71,3.71-1.66,3.71-3.71-1.66-3.71-3.71-3.71Z"/>
      <path class="cls-1" d="M809.42,548.25c-1.85,0-3.35,1.5-3.35,3.35s1.5,3.35,3.35,3.35,3.35-1.5,3.35-3.35-1.5-3.35-3.35-3.35Z"/>
      <path class="cls-1" d="M779.81,563.68c-1.5,0-2.72,1.22-2.72,2.72s1.22,2.72,2.72,2.72,2.72-1.22,2.72-2.72-1.22-2.72-2.72-2.72Z"/>
      <path class="cls-1" d="M750.19,579.46c-.97,0-1.75,.79-1.75,1.75s.79,1.75,1.75,1.75,1.75-.79,1.75-1.75-.79-1.75-1.75-1.75Z"/>
      <path class="cls-1" d="M1194.39,321.84c-.14,0-.26,.12-.26,.26s.12,.26,.26,.26,.26-.12,.26-.26-.12-.26-.26-.26Z"/>
      <path class="cls-1" d="M1165.6,335.09c-.77,0-1.4,.63-1.4,1.4s.63,1.4,1.4,1.4,1.4-.63,1.4-1.4-.63-1.4-1.4-1.4Z"/>
      <circle class="cls-1" cx="1136.8" cy="350.89" r="2.13"/>
      <path class="cls-1" d="M1108.01,362.72c-1.42,0-2.56,1.15-2.56,2.56s1.15,2.56,2.56,2.56,2.56-1.15,2.56-2.56-1.15-2.56-2.56-2.56Z"/>
      <path class="cls-1" d="M1079.22,376.93c-1.52,0-2.74,1.23-2.74,2.75s1.23,2.74,2.74,2.74,2.74-1.23,2.74-2.74-1.23-2.75-2.74-2.75Z"/>
      <path class="cls-1" d="M1050.43,391.67c-1.33,0-2.41,1.08-2.41,2.41s1.08,2.41,2.41,2.41,2.41-1.08,2.41-2.41-1.08-2.41-2.41-2.41Z"/>
      <path class="cls-1" d="M1019.79,408.47c0,1.03,.83,1.86,1.86,1.86s1.86-.83,1.86-1.86-.83-1.86-1.86-1.86-1.86,.83-1.86,1.86Z"/>
      <circle class="cls-1" cx="992.85" cy="422.86" r="1.59"/>
      <path class="cls-1" d="M964.06,435.45c-1,0-1.81,.81-1.81,1.81s.81,1.81,1.81,1.81,1.81-.81,1.81-1.81-.81-1.81-1.81-1.81Z"/>
      <path class="cls-1" d="M935.27,449.23c-1.34,0-2.42,1.08-2.42,2.42s1.08,2.42,2.42,2.42,2.42-1.08,2.42-2.42-1.08-2.42-2.42-2.42Z"/>
      <path class="cls-1" d="M906.48,462.93c-1.72,0-3.12,1.4-3.12,3.12s1.4,3.12,3.12,3.12,3.12-1.4,3.12-3.12-1.4-3.12-3.12-3.12Z"/>
      <path class="cls-1" d="M877.69,476.84c-1.99,0-3.6,1.61-3.6,3.6s1.61,3.6,3.6,3.6,3.6-1.61,3.6-3.6-1.61-3.6-3.6-3.6Z"/>
      <path class="cls-1" d="M848.9,490.89c-2.18,0-3.95,1.77-3.95,3.95s1.77,3.95,3.95,3.95,3.95-1.77,3.95-3.95-1.77-3.95-3.95-3.95Z"/>
      <path class="cls-1" d="M824.32,509.23c0-2.33-1.89-4.21-4.21-4.21s-4.21,1.89-4.21,4.21,1.89,4.21,4.21,4.21,4.21-1.89,4.21-4.21Z"/>
      <path class="cls-1" d="M791.32,519.4c-2.33,0-4.23,1.89-4.23,4.23s1.89,4.23,4.23,4.23,4.23-1.89,4.23-4.23-1.89-4.23-4.23-4.23Z"/>
      <path class="cls-1" d="M762.53,533.98c-2.24,0-4.05,1.81-4.05,4.05s1.81,4.05,4.05,4.05,4.05-1.81,4.05-4.05-1.81-4.05-4.05-4.05Z"/>
      <circle class="cls-1" cx="733.74" cy="552.42" r="3.69"/>
      <path class="cls-1" d="M704.95,563.69c-1.72,0-3.12,1.4-3.12,3.12s1.4,3.12,3.12,3.12,3.12-1.4,3.12-3.12-1.4-3.12-3.12-3.12Z"/>
      <path class="cls-1" d="M676.16,578.94c-1.25,0-2.27,1.02-2.27,2.27s1.02,2.27,2.27,2.27,2.27-1.02,2.27-2.27-1.02-2.27-2.27-2.27Z"/>
      <path class="cls-1" d="M1194.39,285.34c.14,0,.26-.12,.26-.26s-.12-.26-.26-.26-.26,.12-.26,.26,.12,.26,.26,.26Z"/>
      <path class="cls-1" d="M1161.48,300.1c-.79,0-1.43,.64-1.43,1.43s.64,1.43,1.43,1.43,1.43-.64,1.43-1.43-.64-1.43-1.43-1.43Z"/>
      <path class="cls-1" d="M1128.58,320.18c1.21,0,2.2-.98,2.2-2.2s-.98-2.2-2.2-2.2-2.2,.98-2.2,2.2,.98,2.2,2.2,2.2Z"/>
      <path class="cls-1" d="M1095.68,331.77c-1.47,0-2.66,1.19-2.66,2.66s1.19,2.66,2.66,2.66,2.66-1.19,2.66-2.66-1.19-2.66-2.66-2.66Z"/>
      <path class="cls-1" d="M1062.77,348.01c-1.59,0-2.88,1.29-2.88,2.88s1.29,2.88,2.88,2.88,2.88-1.29,2.88-2.88-1.29-2.88-2.88-2.88Z"/>
      <path class="cls-1" d="M1029.87,364.77c-1.42,0-2.57,1.15-2.57,2.57s1.15,2.57,2.57,2.57,2.57-1.15,2.57-2.57-1.15-2.57-2.57-2.57Z"/>
      <circle class="cls-1" cx="996.97" cy="383.79" r="2.05"/>
      <path class="cls-1" d="M964.06,398.43c-1,0-1.81,.81-1.81,1.81s.81,1.81,1.81,1.81,1.81-.81,1.81-1.81-.81-1.81-1.81-1.81Z"/>
      <path class="cls-1" d="M931.16,414.62c-1.14,0-2.07,.93-2.07,2.07s.93,2.07,2.07,2.07,2.07-.93,2.07-2.07-.93-2.07-2.07-2.07Z"/>
      <path class="cls-1" d="M898.26,430.43c-1.5,0-2.71,1.22-2.71,2.71s1.22,2.71,2.71,2.71,2.71-1.21,2.71-2.71-1.22-2.71-2.71-2.71Z"/>
      <path class="cls-1" d="M868.8,449.6c0-1.9-1.54-3.44-3.44-3.44s-3.44,1.54-3.44,3.44,1.54,3.44,3.44,3.44,3.44-1.54,3.44-3.44Z"/>
      <path class="cls-1" d="M832.45,462.09c-2.19,0-3.96,1.77-3.96,3.96s1.77,3.96,3.96,3.96,3.96-1.77,3.96-3.96-1.77-3.96-3.96-3.96Z"/>
      <path class="cls-1" d="M799.55,478.16c-2.4,0-4.34,1.94-4.34,4.34s1.94,4.34,4.34,4.34,4.34-1.94,4.34-4.34-1.94-4.34-4.34-4.34Z"/>
      <circle class="cls-1" cx="766.64" cy="498.95" r="4.64" transform="translate(12.29 1016.3) rotate(-67.5)"/>
      <circle class="cls-1" cx="733.74" cy="515.4" r="4.68"/>
      <path class="cls-1" d="M705.38,531.85c0-2.51-2.03-4.54-4.54-4.54s-4.54,2.03-4.54,4.54,2.03,4.54,4.54,4.54,4.54-2.03,4.54-4.54Z"/>
      <path class="cls-1" d="M667.93,544.09c-2.33,0-4.21,1.89-4.21,4.21s1.89,4.21,4.21,4.21,4.21-1.89,4.21-4.21-1.89-4.21-4.21-4.21Z"/>
      <path class="cls-1" d="M635.03,561.08c-2.03,0-3.67,1.64-3.67,3.67s1.64,3.67,3.67,3.67,3.67-1.64,3.67-3.67-1.64-3.67-3.67-3.67Z"/>
      <path class="cls-1" d="M602.13,578.36c-1.57,0-2.85,1.28-2.85,2.85s1.28,2.85,2.85,2.85,2.85-1.28,2.85-2.85-1.28-2.85-2.85-2.85Z"/>
      <path class="cls-1" d="M1194.39,248.32c.14,0,.25-.11,.25-.25s-.11-.25-.25-.25-.25,.11-.25,.25,.11,.25,.25,.25Z"/>
      <path class="cls-1" d="M1163.95,263.93c0-.71-.58-1.29-1.29-1.29s-1.29,.58-1.29,1.29,.58,1.29,1.29,1.29,1.29-.58,1.29-1.29Z"/>
      <path class="cls-1" d="M1130.93,277.77c-1.11,0-2.02,.9-2.02,2.02s.9,2.02,2.02,2.02,2.02-.9,2.02-2.02-.9-2.02-2.02-2.02Z"/>
      <circle class="cls-1" cx="1099.2" cy="295.66" r="2.53"/>
      <path class="cls-1" d="M1070.33,311.52c0-1.58-1.28-2.86-2.86-2.86s-2.86,1.28-2.86,2.86,1.28,2.86,2.86,2.86,2.86-1.28,2.86-2.86Z"/>
      <path class="cls-1" d="M1035.74,324.44c-1.63,0-2.95,1.32-2.95,2.95s1.32,2.95,2.95,2.95,2.95-1.32,2.95-2.95-1.32-2.95-2.95-2.95Z"/>
      <path class="cls-1" d="M1004.02,340.61c-1.46,0-2.64,1.18-2.64,2.64s1.18,2.64,2.64,2.64,2.64-1.18,2.64-2.64-1.18-2.64-2.64-2.64Z"/>
      <path class="cls-1" d="M972.29,356.87c-1.24,0-2.24,1-2.24,2.24s1,2.24,2.24,2.24,2.24-1,2.24-2.24-1-2.24-2.24-2.24Z"/>
      <path class="cls-1" d="M940.56,372.94c-1.13,0-2.04,.91-2.04,2.04s.91,2.04,2.04,2.04,2.04-.91,2.04-2.04-.91-2.04-2.04-2.04Z"/>
      <path class="cls-1" d="M908.83,388.64c-1.21,0-2.2,.99-2.2,2.2s.98,2.2,2.2,2.2,2.2-.98,2.2-2.2-.98-2.2-2.2-2.2Z"/>
      <path class="cls-1" d="M874.4,406.71c0,1.49,1.21,2.7,2.7,2.7s2.7-1.21,2.7-2.7-1.21-2.7-2.7-2.7-2.7,1.21-2.7,2.7Z"/>
      <path class="cls-1" d="M848.72,422.57c0-1.85-1.5-3.34-3.34-3.34s-3.34,1.5-3.34,3.34,1.5,3.34,3.34,3.34,3.34-1.5,3.34-3.34Z"/>
      <path class="cls-1" d="M817.57,438.43c0-2.17-1.76-3.92-3.92-3.92s-3.92,1.76-3.92,3.92,1.76,3.92,3.92,3.92,3.92-1.75,3.92-3.92Z"/>
      <path class="cls-1" d="M781.92,449.94c-2.41,0-4.36,1.95-4.36,4.36s1.95,4.36,4.36,4.36,4.36-1.95,4.36-4.36-1.95-4.36-4.36-4.36Z"/>
      <circle class="cls-1" cx="750.19" cy="470.16" r="4.71"/>
      <path class="cls-1" d="M718.46,481.02c-2.76,0-5.01,2.24-5.01,5.01s2.24,5.01,5.01,5.01,5.01-2.24,5.01-5.01-2.24-5.01-5.01-5.01Z"/>
      <circle class="cls-1" cx="686.74" cy="501.89" r="5.12"/>
      <path class="cls-1" d="M655.01,512.67c-2.81,0-5.08,2.27-5.08,5.08s2.27,5.08,5.08,5.08,5.08-2.28,5.08-5.08-2.27-5.08-5.08-5.08Z"/>
      <circle class="cls-1" cx="623.28" cy="533.62" r="4.89" transform="translate(-17.41 21.04) rotate(-1.91)"/>
      <path class="cls-1" d="M591.55,544.88c-2.54,0-4.6,2.06-4.6,4.6s2.06,4.6,4.6,4.6,4.6-2.06,4.6-4.6-2.06-4.6-4.6-4.6Z"/>
      <path class="cls-1" d="M559.82,561.17c-2.3,0-4.17,1.87-4.17,4.17s1.87,4.17,4.17,4.17,4.17-1.87,4.17-4.17-1.87-4.17-4.17-4.17Z"/>
      <path class="cls-1" d="M528.1,577.71c-1.93,0-3.5,1.57-3.5,3.5s1.57,3.5,3.5,3.5,3.5-1.57,3.5-3.5-1.57-3.5-3.5-3.5Z"/>
      <path class="cls-1" d="M1194.39,211.29c.13,0,.24-.11,.24-.24s-.11-.24-.24-.24-.24,.11-.24,.24,.11,.24,.24,.24Z"/>
      <circle class="cls-1" cx="1163.54" cy="226.47" r="1.14"/>
      <path class="cls-1" d="M1130.9,241.9c0,.99,.8,1.8,1.8,1.8s1.8-.8,1.8-1.8-.8-1.8-1.8-1.8-1.8,.8-1.8,1.8Z"/>
      <path class="cls-1" d="M1101.85,259.66c1.29,0,2.34-1.05,2.34-2.34s-1.05-2.34-2.34-2.34-2.34,1.05-2.34,2.34,1.05,2.34,2.34,2.34Z"/>
      <path class="cls-1" d="M1071,270.03c-1.5,0-2.71,1.22-2.71,2.72s1.22,2.71,2.71,2.71,2.71-1.22,2.71-2.71-1.22-2.72-2.71-2.72Z"/>
      <path class="cls-1" d="M1040.15,285.2c-1.64,0-2.96,1.33-2.96,2.96s1.33,2.96,2.96,2.96,2.96-1.33,2.96-2.96-1.33-2.96-2.96-2.96Z"/>
      <path class="cls-1" d="M1009.31,300.61c-1.64,0-2.98,1.33-2.98,2.98s1.33,2.98,2.98,2.98,2.98-1.33,2.98-2.98-1.33-2.98-2.98-2.98Z"/>
      <path class="cls-1" d="M978.46,316.3c-1.5,0-2.71,1.22-2.71,2.71s1.21,2.71,2.71,2.71,2.71-1.21,2.71-2.71-1.21-2.71-2.71-2.71Z"/>
      <circle class="cls-1" cx="947.61" cy="334.44" r="2.42"/>
      <path class="cls-1" d="M916.76,352.12c1.25,0,2.26-1.01,2.26-2.26s-1.01-2.26-2.26-2.26-2.26,1.01-2.26,2.26,1.01,2.26,2.26,2.26Z"/>
      <circle class="cls-1" cx="885.92" cy="365.28" r="2.4"/>
      <path class="cls-1" d="M855.07,377.95c-1.52,0-2.75,1.23-2.75,2.75s1.23,2.75,2.75,2.75,2.75-1.23,2.75-2.75-1.23-2.75-2.75-2.75Z"/>
      <path class="cls-1" d="M824.22,392.84c-1.82,0-3.29,1.47-3.29,3.29s1.47,3.29,3.29,3.29,3.29-1.47,3.29-3.29-1.47-3.29-3.29-3.29Z"/>
      <path class="cls-1" d="M789.49,411.55c0,2.15,1.74,3.88,3.88,3.88s3.88-1.74,3.88-3.88-1.74-3.88-3.88-3.88-3.88,1.74-3.88,3.88Z"/>
      <circle class="cls-1" cx="762.53" cy="426.98" r="4.35"/>
      <path class="cls-1" d="M736.41,442.4c0-2.61-2.11-4.72-4.72-4.72s-4.72,2.11-4.72,4.72,2.11,4.72,4.72,4.72,4.72-2.12,4.72-4.72Z"/>
      <path class="cls-1" d="M700.84,462.87c2.79,0,5.05-2.26,5.05-5.05s-2.26-5.05-5.05-5.05-5.05,2.26-5.05,5.05,2.26,5.05,5.05,5.05Z"/>
      <path class="cls-1" d="M669.99,467.9c-2.95,0-5.35,2.4-5.35,5.35s2.39,5.35,5.35,5.35,5.35-2.39,5.35-5.35-2.39-5.35-5.35-5.35Z"/>
      <circle class="cls-1" cx="639.14" cy="488.67" r="5.52" transform="translate(115.88 1099.81) rotate(-86.83)"/>
      <path class="cls-1" d="M608.3,498.54c-3.07,0-5.55,2.49-5.55,5.55s2.49,5.55,5.55,5.55,5.55-2.49,5.55-5.55-2.49-5.55-5.55-5.55Z"/>
      <path class="cls-1" d="M577.45,514.05c-3.02,0-5.46,2.45-5.46,5.46s2.45,5.46,5.46,5.46,5.46-2.44,5.46-5.46-2.45-5.46-5.46-5.46Z"/>
      <circle class="cls-1" cx="546.6" cy="534.94" r="5.34"/>
      <path class="cls-1" d="M515.76,545.28c-2.81,0-5.08,2.27-5.08,5.08s2.28,5.08,5.08,5.08,5.08-2.27,5.08-5.08-2.27-5.08-5.08-5.08Z"/>
      <path class="cls-1" d="M484.91,561.05c-2.62,0-4.74,2.12-4.74,4.74s2.12,4.74,4.74,4.74,4.74-2.12,4.74-4.74-2.12-4.74-4.74-4.74Z"/>
      <path class="cls-1" d="M454.06,577c-2.33,0-4.21,1.88-4.21,4.21s1.88,4.21,4.21,4.21,4.21-1.89,4.21-4.21-1.88-4.21-4.21-4.21Z"/>
      <path class="cls-1" d="M1194.39,174.25c.12,0,.22-.1,.22-.22s-.1-.22-.22-.22-.22,.1-.22,.22,.1,.22,.22,.22Z"/>
      <path class="cls-1" d="M1161.54,191c0-.6-.49-1.09-1.09-1.09s-1.09,.49-1.09,1.09,.49,1.09,1.09,1.09,1.09-.49,1.09-1.09Z"/>
      <path class="cls-1" d="M1128.25,207.96c0-.96-.78-1.73-1.73-1.73s-1.73,.78-1.73,1.73,.78,1.73,1.73,1.73,1.73-.78,1.73-1.73Z"/>
      <path class="cls-1" d="M1094.87,224.93c0-1.26-1.02-2.28-2.28-2.28s-2.28,1.02-2.28,2.28,1.02,2.28,2.28,2.28,2.28-1.02,2.28-2.28Z"/>
      <path class="cls-1" d="M1061.32,241.9c0-1.47-1.19-2.66-2.66-2.66s-2.66,1.19-2.66,2.66,1.19,2.66,2.66,2.66,2.66-1.19,2.66-2.66Z"/>
      <circle class="cls-1" cx="1024.73" cy="258.86" r="2.94"/>
      <path class="cls-1" d="M993.8,275.83c0-1.66-1.34-3-3-3s-3,1.34-3,3,1.34,3,3,3,3-1.34,3-3Z"/>
      <path class="cls-1" d="M959.67,292.79c0-1.55-1.26-2.81-2.81-2.81s-2.81,1.26-2.81,2.81,1.26,2.81,2.81,2.81,2.81-1.26,2.81-2.81Z"/>
      <path class="cls-1" d="M925.52,309.76c0-1.43-1.16-2.59-2.59-2.59s-2.59,1.16-2.59,2.59,1.16,2.59,2.59,2.59,2.59-1.16,2.59-2.59Z"/>
      <path class="cls-1" d="M889,324.23c-1.38,0-2.49,1.12-2.49,2.49s1.12,2.49,2.49,2.49,2.49-1.12,2.49-2.49-1.12-2.49-2.49-2.49Z"/>
      <path class="cls-1" d="M855.07,346.38c1.48,0,2.69-1.2,2.69-2.69s-1.2-2.69-2.69-2.69-2.69,1.2-2.69,2.69,1.2,2.69,2.69,2.69Z"/>
      <path class="cls-1" d="M821.14,363.69c1.68,0,3.04-1.36,3.04-3.04s-1.36-3.04-3.04-3.04-3.04,1.36-3.04,3.04,1.36,3.04,3.04,3.04Z"/>
      <path class="cls-1" d="M787.21,381.19c1.97,0,3.57-1.6,3.57-3.57s-1.6-3.57-3.57-3.57-3.57,1.6-3.57,3.57,1.6,3.57,3.57,3.57Z"/>
      <circle class="cls-1" cx="753.28" cy="394.59" r="4.16"/>
      <path class="cls-1" d="M719.35,406.92c-2.56,0-4.63,2.07-4.63,4.63s2.07,4.63,4.63,4.63,4.63-2.07,4.63-4.63-2.07-4.63-4.63-4.63Z"/>
      <path class="cls-1" d="M685.41,433.54c2.77,0,5.02-2.25,5.02-5.02s-2.25-5.02-5.02-5.02-5.02,2.25-5.02,5.02,2.25,5.02,5.02,5.02Z"/>
      <circle class="cls-1" cx="651.48" cy="445.48" r="5.37"/>
      <path class="cls-1" d="M623.24,462.45c0-3.14-2.55-5.69-5.69-5.69s-5.69,2.55-5.69,5.69,2.55,5.69,5.69,5.69,5.69-2.55,5.69-5.69Z"/>
      <path class="cls-1" d="M589.51,479.42c0-3.25-2.64-5.89-5.89-5.89s-5.89,2.64-5.89,5.89,2.64,5.89,5.89,5.89,5.89-2.64,5.89-5.89Z"/>
      <path class="cls-1" d="M549.69,490.41c-3.3,0-5.97,2.67-5.97,5.97s2.67,5.97,5.97,5.97,5.97-2.67,5.97-5.97-2.67-5.97-5.97-5.97Z"/>
      <path class="cls-1" d="M515.76,507.41c-3.28,0-5.94,2.66-5.94,5.94s2.66,5.94,5.94,5.94,5.93-2.66,5.93-5.94-2.66-5.94-5.93-5.94Z"/>
      <path class="cls-1" d="M487.7,530.31c0-3.24-2.63-5.87-5.87-5.87s-5.87,2.63-5.87,5.87,2.63,5.87,5.87,5.87,5.87-2.63,5.87-5.87Z"/>
      <circle class="cls-1" cx="447.89" cy="547.28" r="5.69"/>
      <circle class="cls-1" cx="413.96" cy="564.24" r="5.42" transform="translate(-38.96 30.77) rotate(-4.07)"/>
      <path class="cls-1" d="M380.03,576.22c-2.76,0-4.99,2.23-4.99,4.99s2.23,4.99,4.99,4.99,4.99-2.23,4.99-4.99-2.23-4.99-4.99-4.99Z"/>
      <path class="cls-1" d="M1194.39,137.2c.1,0,.19-.08,.19-.19s-.08-.19-.19-.19-.19,.08-.19,.19,.08,.19,.19,.19Z"/>
      <path class="cls-1" d="M1160.56,153.47c0,.51,.41,.92,.92,.92s.92-.41,.92-.92-.41-.92-.92-.92-.92,.41-.92,.92Z"/>
      <circle class="cls-1" cx="1128.58" cy="169.92" r="1.5"/>
      <path class="cls-1" d="M1093.66,186.37c0,1.11,.9,2.01,2.01,2.01s2.01-.9,2.01-2.01-.9-2.01-2.01-2.01-2.01,.9-2.01,2.01Z"/>
      <path class="cls-1" d="M1060.42,202.82c0,1.3,1.06,2.36,2.36,2.36s2.36-1.06,2.36-2.36-1.06-2.36-2.36-2.36-2.36,1.06-2.36,2.36Z"/>
      <circle class="cls-1" cx="1029.87" cy="219.27" r="2.69"/>
      <path class="cls-1" d="M996.97,232.84c-1.6,0-2.89,1.29-2.89,2.89s1.29,2.89,2.89,2.89,2.89-1.29,2.89-2.89-1.29-2.89-2.89-2.89Z"/>
      <path class="cls-1" d="M964.06,249.21c-1.64,0-2.97,1.33-2.97,2.97s1.33,2.97,2.97,2.97,2.97-1.33,2.97-2.97-1.33-2.97-2.97-2.97Z"/>
      <circle class="cls-1" cx="931.16" cy="268.63" r="2.86"/>
      <circle class="cls-1" cx="898.26" cy="285.08" r="2.75"/>
      <circle class="cls-1" cx="865.35" cy="301.53" r="2.76"/>
      <path class="cls-1" d="M829.57,317.98c0,1.59,1.29,2.88,2.88,2.88s2.88-1.29,2.88-2.88-1.29-2.88-2.88-2.88-2.88,1.29-2.88,2.88Z"/>
      <path class="cls-1" d="M799.55,337.62c1.76,0,3.19-1.43,3.19-3.19s-1.43-3.19-3.19-3.19-3.19,1.43-3.19,3.19,1.43,3.19,3.19,3.19Z"/>
      <path class="cls-1" d="M763.03,350.89c0,2,1.62,3.62,3.62,3.62s3.62-1.62,3.62-3.62-1.62-3.62-3.62-3.62-3.62,1.62-3.62,3.62Z"/>
      <path class="cls-1" d="M733.74,363.23c-2.27,0-4.11,1.84-4.11,4.11s1.84,4.11,4.11,4.11,4.11-1.84,4.11-4.11-1.84-4.11-4.11-4.11Z"/>
      <circle class="cls-1" cx="700.84" cy="383.79" r="4.59"/>
      <circle class="cls-1" cx="667.93" cy="400.24" r="5" transform="translate(42.55 864.17) rotate(-67.5)"/>
      <path class="cls-1" d="M640.37,416.69c0-2.95-2.39-5.34-5.34-5.34s-5.34,2.39-5.34,5.34,2.39,5.34,5.34,5.34,5.34-2.39,5.34-5.34Z"/>
      <path class="cls-1" d="M607.79,433.15c0-3.13-2.53-5.66-5.66-5.66s-5.66,2.53-5.66,5.66,2.53,5.66,5.66,5.66,5.66-2.53,5.66-5.66Z"/>
      <path class="cls-1" d="M575.2,449.6c0-3.3-2.67-5.97-5.97-5.97s-5.97,2.67-5.97,5.97,2.67,5.97,5.97,5.97,5.97-2.67,5.97-5.97Z"/>
      <path class="cls-1" d="M536.32,459.85c-3.42,0-6.2,2.77-6.2,6.2s2.77,6.2,6.2,6.2,6.2-2.77,6.2-6.2-2.77-6.2-6.2-6.2Z"/>
      <path class="cls-1" d="M503.42,476.17c-3.49,0-6.33,2.83-6.33,6.33s2.83,6.33,6.33,6.33,6.33-2.83,6.33-6.33-2.83-6.33-6.33-6.33Z"/>
      <path class="cls-1" d="M470.52,492.55c-3.53,0-6.4,2.87-6.4,6.4s2.87,6.4,6.4,6.4,6.4-2.87,6.4-6.4-2.87-6.4-6.4-6.4Z"/>
      <circle class="cls-1" cx="437.61" cy="515.4" r="6.41" transform="translate(-35.44 32.32) rotate(-4.07)"/>
      <path class="cls-1" d="M411.11,531.85c0-3.54-2.87-6.4-6.4-6.4s-6.4,2.87-6.4,6.4,2.87,6.4,6.4,6.4,6.4-2.87,6.4-6.4Z"/>
      <path class="cls-1" d="M378.09,548.31c0-3.47-2.81-6.28-6.28-6.28s-6.28,2.81-6.28,6.28,2.81,6.28,6.28,6.28,6.28-2.81,6.28-6.28Z"/>
      <circle class="cls-1" cx="338.9" cy="564.76" r="6.1"/>
      <path class="cls-1" d="M306,575.38c-3.22,0-5.83,2.61-5.83,5.83s2.61,5.83,5.83,5.83,5.83-2.61,5.83-5.83-2.61-5.83-5.83-5.83Z"/>
      <path class="cls-1" d="M1194.39,100.15c.08,0,.15-.07,.15-.15s-.07-.15-.15-.15-.15,.07-.15,.15,.07,.15,.15,.15Z"/>
      <path class="cls-1" d="M1162.3,116.8c.42,0,.76-.34,.76-.76s-.34-.76-.76-.76-.76,.34-.76,.76,.34,.76,.76,.76Z"/>
      <path class="cls-1" d="M1130.22,133.35c.7,0,1.26-.57,1.26-1.26s-.57-1.26-1.26-1.26-1.26,.57-1.26,1.26,.57,1.26,1.26,1.26Z"/>
      <path class="cls-1" d="M1098.14,149.83c.94,0,1.7-.76,1.7-1.71s-.76-1.7-1.7-1.7-1.7,.76-1.7,1.7,.76,1.71,1.7,1.71Z"/>
      <path class="cls-1" d="M1066.06,166.23c1.14,0,2.07-.93,2.07-2.07s-.93-2.07-2.07-2.07-2.07,.93-2.07,2.07,.93,2.07,2.07,2.07Z"/>
      <path class="cls-1" d="M1033.98,182.58c1.31,0,2.38-1.06,2.38-2.38s-1.06-2.38-2.38-2.38-2.38,1.06-2.38,2.38,1.06,2.38,2.38,2.38Z"/>
      <path class="cls-1" d="M1004.59,196.24c0-1.48-1.2-2.69-2.69-2.69s-2.69,1.2-2.69,2.69,1.2,2.69,2.69,2.69,2.69-1.2,2.69-2.69Z"/>
      <path class="cls-1" d="M972.66,212.28c0-1.57-1.27-2.83-2.83-2.83s-2.83,1.27-2.83,2.83,1.27,2.83,2.83,2.83,2.83-1.27,2.83-2.83Z"/>
      <path class="cls-1" d="M940.66,228.32c0-1.61-1.31-2.92-2.92-2.92s-2.92,1.31-2.92,2.92,1.31,2.92,2.92,2.92,2.92-1.31,2.92-2.92Z"/>
      <path class="cls-1" d="M905.66,247.28c1.61,0,2.91-1.3,2.91-2.91s-1.3-2.91-2.91-2.91-2.91,1.3-2.91,2.91,1.3,2.91,2.91,2.91Z"/>
      <path class="cls-1" d="M876.48,260.4c0-1.6-1.3-2.9-2.9-2.9s-2.9,1.3-2.9,2.9,1.3,2.9,2.9,2.9,2.9-1.3,2.9-2.9Z"/>
      <path class="cls-1" d="M838.53,276.44c0,1.64,1.33,2.97,2.97,2.97s2.97-1.33,2.97-2.97-1.33-2.97-2.97-2.97-2.97,1.33-2.97,2.97Z"/>
      <path class="cls-1" d="M809.42,295.58c1.71,0,3.09-1.38,3.09-3.09s-1.38-3.09-3.09-3.09-3.09,1.38-3.09,3.09,1.38,3.09,3.09,3.09Z"/>
      <path class="cls-1" d="M780.72,308.52c0-1.87-1.51-3.38-3.38-3.38s-3.38,1.51-3.38,3.38,1.51,3.38,3.38,3.38,3.38-1.51,3.38-3.38Z"/>
      <circle class="cls-1" cx="745.26" cy="324.56" r="3.72"/>
      <path class="cls-1" d="M717.31,340.6c0-2.28-1.85-4.13-4.13-4.13s-4.13,1.85-4.13,4.13,1.85,4.13,4.13,4.13,4.13-1.85,4.13-4.13Z"/>
      <circle class="cls-1" cx="681.1" cy="356.64" r="4.57"/>
      <path class="cls-1" d="M653.98,372.69c0-2.74-2.22-4.96-4.96-4.96s-4.96,2.22-4.96,4.96,2.22,4.96,4.96,4.96,4.96-2.22,4.96-4.96Z"/>
      <path class="cls-1" d="M611.61,388.73c0,2.94,2.38,5.32,5.32,5.32s5.32-2.38,5.32-5.32-2.38-5.32-5.32-5.32-5.32,2.38-5.32,5.32Z"/>
      <path class="cls-1" d="M584.85,410.39c3.11,0,5.63-2.52,5.63-5.63s-2.52-5.63-5.63-5.63-5.63,2.52-5.63,5.63,2.52,5.63,5.63,5.63Z"/>
      <circle class="cls-1" cx="552.77" cy="420.81" r="5.93"/>
      <path class="cls-1" d="M520.69,430.62c-3.44,0-6.23,2.79-6.23,6.23s2.79,6.23,6.23,6.23,6.23-2.79,6.23-6.23-2.79-6.23-6.23-6.23Z"/>
      <path class="cls-1" d="M488.61,446.47c-3.54,0-6.42,2.87-6.42,6.42s2.87,6.42,6.42,6.42,6.42-2.87,6.42-6.42-2.87-6.42-6.42-6.42Z"/>
      <path class="cls-1" d="M456.53,462.32c-3.65,0-6.61,2.96-6.61,6.61s2.96,6.61,6.61,6.61,6.61-2.96,6.61-6.61-2.96-6.61-6.61-6.61Z"/>
      <circle class="cls-1" cx="424.45" cy="484.97" r="6.79"/>
      <circle class="cls-1" cx="392.37" cy="501.01" r="6.87" transform="translate(-75.19 69.32) rotate(-9.22)"/>
      <path class="cls-1" d="M360.29,510.11c-3.83,0-6.94,3.11-6.94,6.94s3.11,6.94,6.94,6.94,6.94-3.11,6.94-6.94-3.11-6.94-6.94-6.94Z"/>
      <circle class="cls-1" cx="328.21" cy="533.09" r="6.97"/>
      <circle class="cls-1" cx="296.13" cy="549.13" r="6.95"/>
      <circle class="cls-1" cx="264.05" cy="565.17" r="6.87" transform="translate(-314.86 797.56) rotate(-86.83)"/>
      <path class="cls-1" d="M231.97,574.47c-3.72,0-6.74,3.02-6.74,6.74s3.02,6.74,6.74,6.74,6.74-3.02,6.74-6.74-3.02-6.74-6.74-6.74Z"/>
      <path class="cls-1" d="M1194.39,63.09c.06,0,.11-.05,.11-.11s-.05-.11-.11-.11-.11,.05-.11,.11,.05,.11,.11,.11Z"/>
      <path class="cls-1" d="M1159.84,80.89c.35,0,.63-.28,.63-.63s-.28-.63-.63-.63-.63,.28-.63,.63,.28,.63,.63,.63Z"/>
      <path class="cls-1" d="M1126.39,97.53c0-.61-.49-1.1-1.1-1.1s-1.1,.49-1.1,1.1,.49,1.1,1.1,1.1,1.1-.49,1.1-1.1Z"/>
      <path class="cls-1" d="M1092.25,114.81c0-.83-.68-1.51-1.51-1.51s-1.51,.68-1.51,1.51,.68,1.51,1.51,1.51,1.51-.68,1.51-1.51Z"/>
      <path class="cls-1" d="M1058.06,132.08c0-1.03-.84-1.86-1.87-1.86s-1.87,.83-1.87,1.86,.84,1.87,1.87,1.87,1.87-.83,1.87-1.87Z"/>
      <path class="cls-1" d="M1021.64,151.54c1.21,0,2.18-.98,2.18-2.18s-.98-2.18-2.18-2.18-2.18,.98-2.18,2.18,.98,2.18,2.18,2.18Z"/>
      <path class="cls-1" d="M989.6,166.63c0-1.38-1.12-2.5-2.5-2.5s-2.5,1.12-2.5,2.5,1.12,2.5,2.5,2.5,2.5-1.12,2.5-2.5Z"/>
      <path class="cls-1" d="M955.25,183.9c0-1.49-1.21-2.7-2.7-2.7s-2.7,1.21-2.7,2.7,1.21,2.7,2.7,2.7,2.7-1.21,2.7-2.7Z"/>
      <circle class="cls-1" cx="918" cy="201.18" r="2.86"/>
      <path class="cls-1" d="M886.4,218.45c0-1.63-1.32-2.95-2.95-2.95s-2.95,1.32-2.95,2.95,1.32,2.95,2.95,2.95,2.95-1.32,2.95-2.95Z"/>
      <path class="cls-1" d="M848.9,238.76c1.68,0,3.04-1.36,3.04-3.04s-1.36-3.04-3.04-3.04-3.04,1.36-3.04,3.04,1.36,3.04,3.04,3.04Z"/>
      <path class="cls-1" d="M814.35,256.18c1.76,0,3.18-1.43,3.18-3.18s-1.43-3.18-3.18-3.18-3.18,1.43-3.18,3.18,1.43,3.18,3.18,3.18Z"/>
      <path class="cls-1" d="M779.81,273.64c1.86,0,3.37-1.51,3.37-3.37s-1.51-3.37-3.37-3.37-3.37,1.51-3.37,3.37,1.51,3.37,3.37,3.37Z"/>
      <circle class="cls-1" cx="745.26" cy="287.55" r="3.67"/>
      <path class="cls-1" d="M710.71,308.83c2.22,0,4.01-1.8,4.01-4.01s-1.8-4.01-4.01-4.01-4.01,1.8-4.01,4.01,1.8,4.01,4.01,4.01Z"/>
      <path class="cls-1" d="M676.16,326.5c2.43,0,4.4-1.97,4.4-4.4s-1.97-4.4-4.4-4.4-4.4,1.97-4.4,4.4,1.97,4.4,4.4,4.4Z"/>
      <path class="cls-1" d="M641.61,334.59c-2.64,0-4.78,2.14-4.78,4.78s2.14,4.78,4.78,4.78,4.78-2.14,4.78-4.78-2.14-4.78-4.78-4.78Z"/>
      <circle class="cls-1" cx="607.06" cy="356.64" r="5.16"/>
      <circle class="cls-1" cx="572.52" cy="373.92" r="5.55" transform="translate(7.97 759.76) rotate(-67.5)"/>
      <path class="cls-1" d="M537.97,397.05c3.24,0,5.86-2.62,5.86-5.86s-2.62-5.86-5.86-5.86-5.86,2.62-5.86,5.86,2.62,5.86,5.86,5.86Z"/>
      <path class="cls-1" d="M503.42,414.64c3.41,0,6.17-2.76,6.17-6.17s-2.76-6.17-6.17-6.17-6.17,2.76-6.17,6.17,2.76,6.17,6.17,6.17Z"/>
      <path class="cls-1" d="M468.87,432.22c3.58,0,6.48-2.9,6.48-6.48s-2.9-6.48-6.48-6.48-6.48,2.9-6.48,6.48,2.9,6.48,6.48,6.48Z"/>
      <path class="cls-1" d="M434.32,436.3c-3.71,0-6.71,3.01-6.71,6.71s3.01,6.71,6.71,6.71,6.71-3.01,6.71-6.71-3.01-6.71-6.71-6.71Z"/>
      <path class="cls-1" d="M399.77,467.24c3.84,0,6.95-3.11,6.95-6.95s-3.11-6.95-6.95-6.95-6.95,3.11-6.95,6.95,3.11,6.95,6.95,6.95Z"/>
      <path class="cls-1" d="M358.05,477.56c0,3.96,3.21,7.18,7.18,7.18s7.18-3.21,7.18-7.18-3.21-7.18-7.18-7.18-7.18,3.21-7.18,7.18Z"/>
      <circle class="cls-1" cx="330.68" cy="494.84" r="7.3"/>
      <path class="cls-1" d="M296.13,519.53c4.1,0,7.42-3.32,7.42-7.42s-3.32-7.42-7.42-7.42-7.42,3.32-7.42,7.42,3.32,7.42,7.42,7.42Z"/>
      <path class="cls-1" d="M269.12,529.39c0-4.16-3.37-7.54-7.54-7.54s-7.54,3.37-7.54,7.54,3.37,7.54,7.54,7.54,7.54-3.37,7.54-7.54Z"/>
      <path class="cls-1" d="M234.69,546.66c0-4.23-3.43-7.66-7.66-7.66s-7.66,3.43-7.66,7.66,3.43,7.66,7.66,7.66,7.66-3.43,7.66-7.66Z"/>
      <path class="cls-1" d="M192.48,556.22c-4.26,0-7.72,3.45-7.72,7.72s3.45,7.72,7.72,7.72,7.72-3.45,7.72-7.72-3.45-7.72-7.72-7.72Z"/>
      <path class="cls-1" d="M157.94,573.49c-4.26,0-7.72,3.46-7.72,7.72s3.46,7.72,7.72,7.72,7.72-3.46,7.72-7.72-3.46-7.72-7.72-7.72Z"/>
      <path class="cls-1" d="M1194.44,25.97s-.03-.06-.06-.06-.06,.03-.06,.06,.03,.06,.06,.06,.06-.03,.06-.06Z"/>
      <path class="cls-1" d="M1160.73,43.24c.25,0,.45-.2,.45-.45s-.2-.45-.45-.45-.45,.2-.45,.45,.2,.45,.45,.45Z"/>
      <path class="cls-1" d="M1127.08,60.44c.45,0,.82-.37,.82-.82s-.37-.82-.82-.82-.82,.37-.82,.82,.37,.82,.82,.82Z"/>
      <circle class="cls-1" cx="1093.43" cy="76.44" r="1.13"/>
      <path class="cls-1" d="M1059.78,94.72c.8,0,1.45-.65,1.45-1.45s-.65-1.45-1.45-1.45-1.45,.65-1.45,1.45,.65,1.45,1.45,1.45Z"/>
      <path class="cls-1" d="M1026.13,111.86c.97,0,1.76-.79,1.76-1.76s-.79-1.76-1.76-1.76-1.76,.79-1.76,1.76,.79,1.76,1.76,1.76Z"/>
      <path class="cls-1" d="M992.48,129c1.15,0,2.07-.93,2.07-2.07s-.93-2.08-2.07-2.08-2.07,.93-2.07,2.08,.93,2.07,2.07,2.07Z"/>
      <path class="cls-1" d="M958.83,141.4c-1.3,0-2.35,1.05-2.35,2.35s1.05,2.35,2.35,2.35,2.35-1.05,2.35-2.35-1.05-2.35-2.35-2.35Z"/>
      <path class="cls-1" d="M925.18,163.13c1.42,0,2.56-1.15,2.56-2.56s-1.15-2.56-2.56-2.56-2.56,1.15-2.56,2.56,1.15,2.56,2.56,2.56Z"/>
      <path class="cls-1" d="M891.53,174.62c-1.53,0-2.78,1.24-2.78,2.78s1.24,2.78,2.78,2.78,2.78-1.24,2.78-2.78-1.24-2.78-2.78-2.78Z"/>
      <path class="cls-1" d="M857.88,191.23c-1.65,0-2.99,1.34-2.99,2.99s1.34,2.99,2.99,2.99,2.99-1.34,2.99-2.99-1.34-2.99-2.99-2.99Z"/>
      <path class="cls-1" d="M824.22,214.25c1.77,0,3.2-1.43,3.2-3.2s-1.43-3.2-3.2-3.2-3.2,1.43-3.2,3.2,1.43,3.2,3.2,3.2Z"/>
      <path class="cls-1" d="M790.57,224.47c-1.88,0-3.41,1.52-3.41,3.41s1.52,3.41,3.41,3.41,3.41-1.52,3.41-3.41-1.52-3.41-3.41-3.41Z"/>
      <path class="cls-1" d="M756.92,248.31c2,0,3.61-1.62,3.61-3.61s-1.62-3.61-3.61-3.61-3.61,1.62-3.61,3.61,1.62,3.61,3.61,3.61Z"/>
      <path class="cls-1" d="M723.27,257.62c-2.15,0-3.9,1.75-3.9,3.9s1.75,3.9,3.9,3.9,3.9-1.75,3.9-3.9-1.75-3.9-3.9-3.9Z"/>
      <path class="cls-1" d="M689.62,274.14c-2.32,0-4.21,1.88-4.21,4.21s1.88,4.21,4.21,4.21,4.21-1.88,4.21-4.21-1.88-4.21-4.21-4.21Z"/>
      <circle class="cls-1" cx="655.97" cy="295.18" r="4.52"/>
      <path class="cls-1" d="M617.49,312c0,2.67,2.16,4.83,4.83,4.83s4.83-2.16,4.83-4.83-2.16-4.83-4.83-4.83-4.83,2.16-4.83,4.83Z"/>
      <circle class="cls-1" cx="588.67" cy="328.83" r="5.16"/>
      <path class="cls-1" d="M560.5,345.65c0-3.03-2.46-5.48-5.48-5.48s-5.48,2.46-5.48,5.48,2.46,5.48,5.48,5.48,5.48-2.46,5.48-5.48Z"/>
      <path class="cls-1" d="M515.57,362.48c0,3.2,2.6,5.8,5.8,5.8s5.8-2.6,5.8-5.8-2.6-5.8-5.8-5.8-5.8,2.6-5.8,5.8Z"/>
      <path class="cls-1" d="M487.71,385.38c3.35,0,6.07-2.72,6.07-6.07s-2.72-6.07-6.07-6.07-6.07,2.72-6.07,6.07,2.72,6.07,6.07,6.07Z"/>
      <circle class="cls-1" cx="454.06" cy="396.13" r="6.34" transform="translate(15.12 808.95) rotate(-84.35)"/>
      <path class="cls-1" d="M413.8,412.95c0,3.65,2.96,6.62,6.62,6.62s6.62-2.96,6.62-6.62-2.96-6.62-6.62-6.62-6.62,2.96-6.62,6.62Z"/>
      <circle class="cls-1" cx="386.76" cy="429.78" r="6.89" transform="translate(-9.25 8.5) rotate(-1.24)"/>
      <path class="cls-1" d="M360.27,446.61c0-3.96-3.21-7.16-7.16-7.16s-7.16,3.21-7.16,7.16,3.21,7.16,7.16,7.16,7.16-3.21,7.16-7.16Z"/>
      <path class="cls-1" d="M326.89,463.43c0-4.11-3.33-7.43-7.43-7.43s-7.43,3.33-7.43,7.43,3.33,7.44,7.43,7.44,7.43-3.33,7.43-7.44Z"/>
      <path class="cls-1" d="M293.47,480.26c0-4.23-3.43-7.66-7.66-7.66s-7.66,3.43-7.66,7.66,3.43,7.66,7.66,7.66,7.66-3.43,7.66-7.66Z"/>
      <circle class="cls-1" cx="252.16" cy="497.08" r="7.86"/>
      <circle class="cls-1" cx="218.51" cy="513.91" r="8.06"/>
      <circle class="cls-1" cx="184.86" cy="530.73" r="8.26"/>
      <path class="cls-1" d="M159.66,547.56c0-4.67-3.79-8.46-8.46-8.46s-8.46,3.79-8.46,8.46,3.79,8.46,8.46,8.46,8.46-3.79,8.46-8.46Z"/>
      <circle class="cls-1" cx="117.55" cy="564.38" r="8.62" transform="translate(-25.45 5.91) rotate(-2.6)"/>
      <path class="cls-1" d="M83.9,572.45c-4.84,0-8.76,3.92-8.76,8.76s3.92,8.76,8.76,8.76,8.76-3.92,8.76-8.76-3.92-8.76-8.76-8.76Z"/>
      <path class="cls-1" d="M1122.6,24.25c-.33,0-.6,.27-.6,.6,0,.08,.02,.16,.05,.23,.09,.21,.3,.37,.55,.37,.33,0,.6-.27,.6-.6s-.27-.6-.6-.6Z"/>
      <path class="cls-1" d="M977.22,96.63h0c0,.7,.4,1.3,.99,1.6,.24,.12,.51,.2,.81,.2h0c.99,0,1.79-.8,1.79-1.79h0c0-.48-.19-.92-.5-1.24,0,0-.01-.02-.02-.03-.02-.02-.04-.03-.06-.05-.32-.29-.74-.48-1.21-.48h0c-.99,0-1.79,.8-1.79,1.79Z"/>
      <path class="cls-1" d="M907.23,134.92h0c1.32,0,2.39-1.07,2.39-2.39,0-.33-.07-.65-.19-.93-.36-.86-1.21-1.46-2.2-1.46-1.32,0-2.39,1.07-2.39,2.39s1.07,2.39,2.39,2.39Z"/>
      <path class="cls-1" d="M835.44,171.42h0c1.65,0,2.99-1.34,2.99-2.99s-1.34-2.99-2.99-2.99h0c-1.65,0-2.99,1.34-2.99,2.99s1.34,2.99,2.99,2.99Z"/>
      <path class="cls-1" d="M796.32,187.03c.12,.6,.41,1.13,.81,1.56,.03,.03,.05,.07,.09,.1,.03,.03,.06,.05,.09,.07,.59,.55,1.37,.89,2.24,.89h0c1.82,0,3.29-1.47,3.29-3.29,0-.45-.09-.89-.26-1.28-.03-.08-.08-.15-.12-.23-.55-1.05-1.64-1.78-2.91-1.78h0c-1.82,0-3.29,1.47-3.29,3.29,0,.23,.02,.45,.07,.66Z"/>
      <path class="cls-1" d="M760.06,204.32c0,1.98,1.61,3.59,3.59,3.59h0c1.98,0,3.59-1.61,3.59-3.59s-1.61-3.59-3.59-3.59h0c-1.98,0-3.59,1.61-3.59,3.59Z"/>
      <path class="cls-1" d="M723.87,222.27c0,.27,.03,.53,.08,.78,.05,.23,.12,.46,.21,.68,0,.02,0,.04,.02,.05,.18,.42,.43,.79,.73,1.11,.04,.04,.06,.08,.1,.12,.03,.03,.07,.05,.1,.08,.25,.23,.53,.42,.83,.59,.25,.13,.52,.24,.81,.32,.32,.09,.66,.15,1.01,.15h0c2.15,0,3.89-1.74,3.89-3.89,0-.27-.03-.53-.08-.78-.36-1.77-1.93-3.11-3.81-3.11-2.15,0-3.89,1.74-3.89,3.89Z"/>
      <path class="cls-1" d="M624.61,274.64c-.04-.13-.07-.27-.12-.4-.57-1.34-1.74-2.35-3.17-2.74-.4-.11-.81-.18-1.24-.18h0c-2.64,0-4.79,2.14-4.79,4.79,0,.33,.03,.65,.1,.97,.36,1.77,1.71,3.17,3.45,3.64,.4,.11,.81,.18,1.24,.18h0c2.64,0,4.79-2.14,4.79-4.79,0-.33-.03-.65-.1-.97-.04-.17-.1-.33-.16-.5Z"/>
      <path class="cls-1" d="M542.9,312c0,1.49,.6,2.83,1.58,3.81,.05,.05,.12,.09,.17,.14,.96,.88,2.23,1.44,3.64,1.44h0c2.97,0,5.38-2.41,5.38-5.38,0-.74-.15-1.45-.42-2.1-.82-1.93-2.73-3.29-4.96-3.29-2.97,0-5.38,2.41-5.38,5.38Z"/>
      <path class="cls-1" d="M404.71,377.21c-3.63,0-6.58,2.95-6.58,6.58,0,.68,.1,1.34,.3,1.96,.19,.6,.46,1.15,.79,1.66,.01,.02,.02,.04,.04,.06,.76,1.13,1.88,2.01,3.18,2.49,.19,.07,.38,.13,.58,.19,.3,.08,.61,.14,.93,.18,.25,.03,.51,.05,.77,.05h0c3.63,0,6.58-2.95,6.58-6.58,0-.67-.1-1.31-.29-1.92-.82-2.7-3.33-4.66-6.29-4.66Z"/>
      <path class="cls-1" d="M297.03,445.11h0c4.13,0,7.48-3.35,7.48-7.48s-3.35-7.48-7.48-7.48h0c-4.13,0-7.48,3.35-7.48,7.48s3.35,7.48,7.48,7.48Z"/>
      <path class="cls-1" d="M217.2,472.7c-.03,.27-.04,.55-.04,.83,0,.84,.13,1.64,.36,2.4,.31,1.01,.82,1.94,1.48,2.74,1.48,1.79,3.72,2.94,6.23,2.94,4.46,0,8.08-3.62,8.08-8.08,0-.28-.01-.55-.04-.83-.41-4.07-3.85-7.25-8.03-7.25s-7.62,3.18-8.03,7.25Z"/>
      <path class="cls-1" d="M144.77,509.42c0,.9,.14,1.76,.39,2.58,.93,2.99,3.43,5.28,6.54,5.92,.56,.12,1.15,.18,1.75,.18s1.18-.06,1.75-.18c3.95-.81,6.93-4.31,6.93-8.5,0-2.4-.97-4.56-2.54-6.13-.59-.59-1.26-1.09-2-1.49-.49-.27-1.01-.49-1.56-.66-.81-.25-1.68-.39-2.58-.39s-1.76,.14-2.58,.39c-.54,.17-1.06,.39-1.56,.66s-.95,.58-1.38,.93c-1.93,1.59-3.16,4-3.16,6.69Z"/>
      <path class="cls-1" d="M119.58,518.63c-.65-.15-1.33-.24-2.03-.24h0c-4.96,0-8.97,4.02-8.97,8.97,0,2.79,1.27,5.28,3.27,6.92,1.55,1.28,3.54,2.05,5.71,2.05h0c2.17,0,4.16-.77,5.71-2.05,1.99-1.65,3.27-4.14,3.27-6.92,0-4.26-2.97-7.81-6.94-8.73Z"/>
      <circle class="cls-1" cx="9.87" cy="25.97" r=".17"/>
      <path class="cls-1" d="M34.55,14.69c.59,0,1.07-.48,1.07-1.07s-.48-1.07-1.07-1.07-1.07,.48-1.07,1.07,.48,1.07,1.07,1.07Z"/>
      <circle class="cls-1" cx="59.23" cy="1.29" r=".49"/>
      <path class="cls-1" d="M9.87,63.34c.2,0,.35-.16,.35-.35s-.16-.35-.35-.35-.35,.16-.35,.35,.16,.35,.35,.35Z"/>
      <path class="cls-1" d="M34.55,49.13c-.83,0-1.51,.68-1.51,1.51s.68,1.51,1.51,1.51,1.51-.68,1.51-1.51-.68-1.51-1.51-1.51Z"/>
      <circle class="cls-1" cx="59.23" cy="38.31" r="1.61"/>
      <path class="cls-1" d="M83.9,26.87c.5,0,.9-.4,.9-.9s-.4-.9-.9-.9-.9,.4-.9,.9,.4,.9,.9,.9Z"/>
      <path class="cls-1" d="M108.58,14.37c.41,0,.74-.33,.74-.74s-.33-.74-.74-.74-.74,.33-.74,.74,.33,.74,.74,.74Z"/>
      <path class="cls-1" d="M133.26,2.58c.71,0,1.29-.58,1.29-1.29s-.58-1.29-1.29-1.29-1.29,.58-1.29,1.29,.58,1.29,1.29,1.29Z"/>
      <path class="cls-1" d="M9.87,100.61c.33,0,.61-.27,.61-.61s-.27-.6-.61-.6-.61,.27-.61,.6,.27,.61,.61,.61Z"/>
      <path class="cls-1" d="M46.89,83.52c1.12,0,2.03-.91,2.03-2.03s-.91-2.03-2.03-2.03-2.03,.91-2.03,2.03,.91,2.03,2.03,2.03Z"/>
      <path class="cls-1" d="M83.9,65.11c1.17,0,2.13-.95,2.13-2.13s-.95-2.13-2.13-2.13-2.13,.95-2.13,2.13,.95,2.13,2.13,2.13Z"/>
      <path class="cls-1" d="M120.92,45.69c.67,0,1.21-.54,1.21-1.21s-.54-1.21-1.21-1.21-1.21,.54-1.21,1.21,.54,1.21,1.21,1.21Z"/>
      <path class="cls-1" d="M157.94,26.95c.54,0,.98-.44,.98-.98s-.44-.98-.98-.98-.98,.44-.98,.98,.44,.98,.98,.98Z"/>
      <path class="cls-1" d="M194.95,9.11c.91,0,1.65-.74,1.65-1.65s-.74-1.65-1.65-1.65-1.65,.74-1.65,1.65,.74,1.65,1.65,1.65Z"/>
      <circle class="cls-1" cx="9.87" cy="137.02" r=".92"/>
      <path class="cls-1" d="M42.77,122.77c1.22,0,2.2-.98,2.2-2.2s-.99-2.2-2.2-2.2-2.2,.99-2.2,2.2,.99,2.2,2.2,2.2Z"/>
      <path class="cls-1" d="M75.68,106.86c1.52,0,2.74-1.23,2.74-2.74s-1.23-2.74-2.74-2.74-2.74,1.23-2.74,2.74,1.23,2.74,2.74,2.74Z"/>
      <path class="cls-1" d="M108.58,90.28c1.45,0,2.62-1.17,2.62-2.62s-1.17-2.62-2.62-2.62-2.62,1.17-2.62,2.62,1.17,2.62,2.62,2.62Z"/>
      <path class="cls-1" d="M141.48,73.26c1.13,0,2.05-.92,2.05-2.05s-.92-2.05-2.05-2.05-2.05,.92-2.05,2.05,.92,2.05,2.05,2.05Z"/>
      <path class="cls-1" d="M174.39,55.83c.59,0,1.07-.48,1.07-1.07s-.48-1.07-1.07-1.07-1.07,.48-1.07,1.07,.48,1.07,1.07,1.07Z"/>
      <path class="cls-1" d="M207.29,39.52c.67,0,1.21-.54,1.21-1.21s-.54-1.21-1.21-1.21-1.21,.54-1.21,1.21,.54,1.21,1.21,1.21Z"/>
      <circle class="cls-1" cx="240.19" cy="21.85" r="2.05"/>
      <path class="cls-1" d="M273.1,7.05c.91,0,1.65-.74,1.65-1.65s-.74-1.65-1.65-1.65-1.65,.74-1.65,1.65,.74,1.65,1.65,1.65Z"/>
      <path class="cls-1" d="M9.87,175.34c.72,0,1.31-.58,1.31-1.31s-.58-1.31-1.31-1.31-1.31,.58-1.31,1.31,.58,1.31,1.31,1.31Z"/>
      <path class="cls-1" d="M40.72,161.01c1.33,0,2.4-1.08,2.4-2.4s-1.08-2.4-2.4-2.4-2.4,1.08-2.4,2.4,1.08,2.4,2.4,2.4Z"/>
      <circle class="cls-1" cx="71.56" cy="143.19" r="3.05"/>
      <circle class="cls-1" cx="102.41" cy="127.76" r="3.31"/>
      <circle class="cls-1" cx="133.26" cy="112.34" r="3.09"/>
      <path class="cls-1" d="M164.1,94.26c-1.46,0-2.65,1.19-2.65,2.65s1.19,2.65,2.65,2.65,2.65-1.19,2.65-2.65-1.19-2.65-2.65-2.65Z"/>
      <path class="cls-1" d="M194.95,83.32c1.01,0,1.82-.82,1.82-1.82s-.82-1.82-1.82-1.82-1.82,.82-1.82,1.82,.82,1.82,1.82,1.82Z"/>
      <path class="cls-1" d="M225.8,67.25c.65,0,1.18-.53,1.18-1.18s-.53-1.18-1.18-1.18-1.18,.53-1.18,1.18,.53,1.18,1.18,1.18Z"/>
      <path class="cls-1" d="M256.64,52.08c.79,0,1.44-.64,1.44-1.44s-.64-1.44-1.44-1.44-1.44,.64-1.44,1.44,.64,1.44,1.44,1.44Z"/>
      <path class="cls-1" d="M287.49,37.45c1.23,0,2.23-1,2.23-2.23s-1-2.23-2.23-2.23-2.23,1-2.23,2.23,1,2.23,2.23,2.23Z"/>
      <path class="cls-1" d="M318.34,22c1.22,0,2.21-.99,2.21-2.21s-.99-2.21-2.21-2.21-2.21,.99-2.21,2.21,.99,2.21,2.21,2.21Z"/>
      <path class="cls-1" d="M349.18,5.95c.87,0,1.58-.71,1.58-1.58s-.71-1.58-1.58-1.58-1.58,.71-1.58,1.58,.71,1.58,1.58,1.58Z"/>
      <path class="cls-1" d="M9.87,212.8c.97,0,1.75-.79,1.75-1.75s-.79-1.75-1.75-1.75-1.75,.79-1.75,1.75,.79,1.75,1.75,1.75Z"/>
      <path class="cls-1" d="M43.99,192.54c0,1.6,1.3,2.89,2.89,2.89s2.89-1.3,2.89-2.89-1.3-2.89-2.89-2.89-2.89,1.3-2.89,2.89Z"/>
      <path class="cls-1" d="M83.9,177.59c1.96,0,3.55-1.59,3.55-3.55s-1.59-3.55-3.55-3.55-3.55,1.59-3.55,3.55,1.59,3.55,3.55,3.55Z"/>
      <path class="cls-1" d="M120.92,159.33c2.1,0,3.8-1.7,3.8-3.8s-1.7-3.8-3.8-3.8-3.8,1.7-3.8,3.8,1.7,3.8,3.8,3.8Z"/>
      <path class="cls-1" d="M157.94,140.55c1.95,0,3.53-1.58,3.53-3.53s-1.58-3.53-3.53-3.53-3.53,1.58-3.53,3.53,1.58,3.53,3.53,3.53Z"/>
      <path class="cls-1" d="M194.95,121.54c1.68,0,3.04-1.36,3.04-3.04s-1.36-3.04-3.04-3.04-3.04,1.36-3.04,3.04,1.36,3.04,3.04,3.04Z"/>
      <circle class="cls-1" cx="231.97" cy="100" r="2.12"/>
      <circle class="cls-1" cx="268.98" cy="81.49" r="1.41"/>
      <path class="cls-1" d="M306,64.64c.91,0,1.65-.74,1.65-1.65s-.74-1.65-1.65-1.65-1.65,.74-1.65,1.65,.74,1.65,1.65,1.65Z"/>
      <path class="cls-1" d="M343.02,46.94c1.36,0,2.46-1.1,2.46-2.46s-1.1-2.46-2.46-2.46-2.46,1.1-2.46,2.46,1.1,2.46,2.46,2.46Z"/>
      <path class="cls-1" d="M380.03,28.38c1.33,0,2.41-1.08,2.41-2.41s-1.08-2.41-2.41-2.41-2.41,1.08-2.41,2.41,1.08,2.41,2.41,2.41Z"/>
      <circle class="cls-1" cx="417.05" cy="7.46" r="1.71"/>
      <circle class="cls-1" cx="9.87" cy="248.06" r="2.27"/>
      <path class="cls-1" d="M47.65,230.79c0-1.79-1.45-3.24-3.24-3.24s-3.24,1.45-3.24,3.24,1.45,3.24,3.24,3.24,3.24-1.45,3.24-3.24Z"/>
      <circle class="cls-1" cx="78.97" cy="213.52" r="3.85"/>
      <path class="cls-1" d="M109.32,196.24c0,2.32,1.88,4.19,4.19,4.19s4.19-1.88,4.19-4.19-1.88-4.19-4.19-4.19-4.19,1.88-4.19,4.19Z"/>
      <circle class="cls-1" cx="148.06" cy="178.97" r="4.24"/>
      <path class="cls-1" d="M182.61,165.64c2.18,0,3.95-1.77,3.95-3.95s-1.77-3.95-3.95-3.95-3.95,1.77-3.95,3.95,1.77,3.95,3.95,3.95Z"/>
      <path class="cls-1" d="M217.16,147.95c1.95,0,3.53-1.58,3.53-3.53s-1.58-3.53-3.53-3.53-3.53,1.58-3.53,3.53,1.58,3.53,3.53,3.53Z"/>
      <path class="cls-1" d="M251.71,130c1.58,0,2.86-1.28,2.86-2.86s-1.28-2.86-2.86-2.86-2.86,1.28-2.86,2.86,1.28,2.86,2.86,2.86Z"/>
      <path class="cls-1" d="M286.26,111.9c1.12,0,2.03-.91,2.03-2.03s-.91-2.03-2.03-2.03-2.03,.91-2.03,2.03,.91,2.03,2.03,2.03Z"/>
      <path class="cls-1" d="M319.23,92.6c0,.87,.71,1.58,1.58,1.58s1.58-.71,1.58-1.58-.71-1.58-1.58-1.58-1.58,.71-1.58,1.58Z"/>
      <path class="cls-1" d="M355.35,77.18c1.03,0,1.86-.83,1.86-1.86s-.83-1.86-1.86-1.86-1.86,.83-1.86,1.86,.83,1.86,1.86,1.86Z"/>
      <path class="cls-1" d="M389.9,60.56c1.39,0,2.51-1.13,2.51-2.51s-1.13-2.51-2.51-2.51-2.51,1.13-2.51,2.51,1.13,2.51,2.51,2.51Z"/>
      <path class="cls-1" d="M424.45,43.5c1.51,0,2.73-1.22,2.73-2.73s-1.22-2.73-2.73-2.73-2.73,1.22-2.73,2.73,1.22,2.73,2.73,2.73Z"/>
      <path class="cls-1" d="M459,25.83c1.28,0,2.33-1.04,2.33-2.33s-1.04-2.33-2.33-2.33-2.33,1.04-2.33,2.33,1.04,2.33,2.33,2.33Z"/>
      <path class="cls-1" d="M493.55,7.79c.86,0,1.56-.7,1.56-1.56s-.7-1.56-1.56-1.56-1.56,.7-1.56,1.56,.7,1.56,1.56,1.56Z"/>
      <circle class="cls-1" cx="9.87" cy="285.08" r="2.85"/>
      <circle class="cls-1" cx="42.77" cy="268.63" r="3.67"/>
      <path class="cls-1" d="M75.68,247.97c-2.33,0-4.21,1.89-4.21,4.21s1.89,4.21,4.21,4.21,4.21-1.89,4.21-4.21-1.89-4.21-4.21-4.21Z"/>
      <path class="cls-1" d="M113.12,235.73c0-2.51-2.03-4.54-4.54-4.54s-4.54,2.03-4.54,4.54,2.03,4.54,4.54,4.54,4.54-2.03,4.54-4.54Z"/>
      <path class="cls-1" d="M146.17,219.27c0-2.59-2.1-4.68-4.68-4.68s-4.68,2.1-4.68,4.68,2.1,4.68,4.68,4.68,4.68-2.1,4.68-4.68Z"/>
      <circle class="cls-1" cx="174.39" cy="202.82" r="4.64"/>
      <path class="cls-1" d="M211.63,186.37c0-2.4-1.94-4.34-4.34-4.34s-4.34,1.94-4.34,4.34,1.94,4.34,4.34,4.34,4.34-1.94,4.34-4.34Z"/>
      <path class="cls-1" d="M244.16,169.92c0-2.19-1.77-3.96-3.96-3.96s-3.96,1.77-3.96,3.96,1.77,3.96,3.96,3.96,3.96-1.77,3.96-3.96Z"/>
      <path class="cls-1" d="M273.1,156.91c1.9,0,3.44-1.54,3.44-3.44s-1.54-3.44-3.44-3.44-3.44,1.54-3.44,3.44,1.54,3.44,3.44,3.44Z"/>
      <path class="cls-1" d="M306,139.73c1.5,0,2.71-1.21,2.71-2.71s-1.22-2.71-2.71-2.71-2.71,1.22-2.71,2.71,1.22,2.71,2.71,2.71Z"/>
      <path class="cls-1" d="M338.9,122.63c1.14,0,2.07-.93,2.07-2.07s-.93-2.07-2.07-2.07-2.07,.93-2.07,2.07,.93,2.07,2.07,2.07Z"/>
      <path class="cls-1" d="M371.81,105.93c1,0,1.81-.81,1.81-1.81s-.81-1.81-1.81-1.81-1.81,.81-1.81,1.81,.81,1.81,1.81,1.81Z"/>
      <path class="cls-1" d="M404.71,89.72c1.13,0,2.05-.92,2.05-2.05s-.92-2.05-2.05-2.05-2.05,.92-2.05,2.05,.92,2.05,2.05,2.05Z"/>
      <path class="cls-1" d="M437.61,73.78c1.42,0,2.57-1.15,2.57-2.57s-1.15-2.57-2.57-2.57-2.57,1.15-2.57,2.57,1.15,2.57,2.57,2.57Z"/>
      <path class="cls-1" d="M470.52,57.64c1.59,0,2.88-1.29,2.88-2.88s-1.29-2.88-2.88-2.88-2.88,1.29-2.88,2.88,1.29,2.88,2.88,2.88Z"/>
      <path class="cls-1" d="M503.42,40.97c1.47,0,2.66-1.19,2.66-2.66s-1.19-2.66-2.66-2.66-2.66,1.19-2.66,2.66,1.19,2.66,2.66,2.66Z"/>
      <circle class="cls-1" cx="536.32" cy="21.85" r="2.2"/>
      <path class="cls-1" d="M569.22,6.84c.79,0,1.43-.64,1.43-1.43s-.64-1.43-1.43-1.43-1.43,.64-1.43,1.43,.64,1.43,1.43,1.43Z"/>
      <circle class="cls-1" cx="9.87" cy="322.1" r="3.5"/>
      <circle class="cls-1" cx="46.89" cy="303.59" r="4.26"/>
      <circle class="cls-1" cx="83.9" cy="285.08" r="4.74"/>
      <path class="cls-1" d="M120.92,261.59c-2.75,0-4.98,2.23-4.98,4.98s2.23,4.98,4.98,4.98,4.98-2.23,4.98-4.98-2.23-4.98-4.98-4.98Z"/>
      <circle class="cls-1" cx="157.94" cy="248.06" r="5.12"/>
      <circle class="cls-1" cx="194.95" cy="229.56" r="5.04" transform="translate(-15.78 14.4) rotate(-4.07)"/>
      <path class="cls-1" d="M231.97,215.76c2.6,0,4.71-2.11,4.71-4.71s-2.11-4.71-4.71-4.71-4.71,2.11-4.71,4.71,2.11,4.71,4.71,4.71Z"/>
      <path class="cls-1" d="M268.98,196.84c2.37,0,4.3-1.93,4.3-4.3s-1.93-4.3-4.3-4.3-4.3,1.93-4.3,4.3,1.93,4.3,4.3,4.3Z"/>
      <path class="cls-1" d="M306,177.79c2.07,0,3.76-1.68,3.76-3.75s-1.68-3.76-3.76-3.76-3.76,1.68-3.76,3.76,1.68,3.75,3.76,3.75Z"/>
      <path class="cls-1" d="M343.02,152.52c-1.66,0-3,1.34-3,3s1.34,3,3,3,3-1.35,3-3-1.34-3-3-3Z"/>
      <path class="cls-1" d="M382.37,137.02c0-1.29-1.05-2.34-2.34-2.34s-2.34,1.05-2.34,2.34,1.05,2.34,2.34,2.34,2.34-1.05,2.34-2.34Z"/>
      <path class="cls-1" d="M417.05,120.55c1.13,0,2.05-.92,2.05-2.05s-.92-2.05-2.05-2.05-2.05,.92-2.05,2.05,.92,2.05,2.05,2.05Z"/>
      <path class="cls-1" d="M454.06,102.24c1.24,0,2.24-1,2.24-2.24s-1-2.24-2.24-2.24-2.24,1-2.24,2.24,1,2.24,2.24,2.24Z"/>
      <path class="cls-1" d="M491.08,84.2c1.49,0,2.71-1.21,2.71-2.71s-1.21-2.71-2.71-2.71-2.71,1.21-2.71,2.71,1.21,2.71,2.71,2.71Z"/>
      <path class="cls-1" d="M528.1,65.95c1.64,0,2.96-1.33,2.96-2.96s-1.33-2.96-2.96-2.96-2.96,1.33-2.96,2.96,1.33,2.96,2.96,2.96Z"/>
      <path class="cls-1" d="M565.11,47.19c1.5,0,2.71-1.22,2.71-2.71s-1.22-2.71-2.71-2.71-2.71,1.22-2.71,2.71,1.22,2.71,2.71,2.71Z"/>
      <circle class="cls-1" cx="602.13" cy="25.97" r="2.22"/>
      <path class="cls-1" d="M639.14,8.9c.79,0,1.44-.64,1.44-1.44s-.64-1.44-1.44-1.44-1.44,.64-1.44,1.44,.64,1.44,1.44,1.44Z"/>
      <path class="cls-1" d="M9.87,363.32c2.33,0,4.21-1.88,4.21-4.21s-1.88-4.21-4.21-4.21-4.21,1.88-4.21,4.21,1.88,4.21,4.21,4.21Z"/>
      <path class="cls-1" d="M45.12,346.29c2.65,0,4.8-2.15,4.8-4.8s-2.15-4.8-4.8-4.8-4.8,2.15-4.8,4.8,2.15,4.8,4.8,4.8Z"/>
      <circle class="cls-1" cx="80.38" cy="323.86" r="5.17"/>
      <path class="cls-1" d="M115.63,300.84c-2.98,0-5.39,2.41-5.39,5.39s2.41,5.39,5.39,5.39,5.39-2.41,5.39-5.39-2.41-5.39-5.39-5.39Z"/>
      <circle class="cls-1" cx="150.88" cy="288.61" r="5.53"/>
      <path class="cls-1" d="M191.67,270.98c0-3.05-2.48-5.53-5.53-5.53s-5.53,2.48-5.53,5.53,2.48,5.53,5.53,5.53,5.53-2.48,5.53-5.53Z"/>
      <path class="cls-1" d="M216.02,253.35c0,2.97,2.41,5.38,5.38,5.38s5.38-2.41,5.38-5.38-2.41-5.38-5.38-5.38-5.38,2.41-5.38,5.38Z"/>
      <path class="cls-1" d="M251.59,235.73c0,2.79,2.26,5.05,5.05,5.05s5.05-2.26,5.05-5.05-2.26-5.05-5.05-5.05-5.05,2.26-5.05,5.05Z"/>
      <path class="cls-1" d="M287.22,218.1c0,2.58,2.09,4.68,4.68,4.68s4.68-2.09,4.68-4.68-2.09-4.68-4.68-4.68-4.68,2.09-4.68,4.68Z"/>
      <path class="cls-1" d="M327.15,204.69c2.33,0,4.22-1.89,4.22-4.22s-1.89-4.22-4.22-4.22-4.22,1.89-4.22,4.22,1.89,4.22,4.22,4.22Z"/>
      <circle class="cls-1" cx="362.41" cy="182.85" r="3.63"/>
      <path class="cls-1" d="M397.66,168.2c1.65,0,2.98-1.34,2.98-2.98s-1.34-2.98-2.98-2.98-2.98,1.34-2.98,2.98,1.34,2.98,2.98,2.98Z"/>
      <path class="cls-1" d="M432.91,150.06c1.36,0,2.47-1.1,2.47-2.47s-1.1-2.47-2.47-2.47-2.47,1.1-2.47,2.47,1.1,2.47,2.47,2.47Z"/>
      <path class="cls-1" d="M468.17,132.24c1.25,0,2.27-1.02,2.27-2.27s-1.02-2.27-2.27-2.27-2.27,1.02-2.27,2.27,1.02,2.27,2.27,2.27Z"/>
      <path class="cls-1" d="M503.42,109.92c-1.34,0-2.42,1.08-2.42,2.42s1.08,2.42,2.42,2.42,2.42-1.08,2.42-2.42-1.08-2.42-2.42-2.42Z"/>
      <path class="cls-1" d="M535.92,94.71c0,1.52,1.23,2.75,2.75,2.75s2.75-1.23,2.75-2.75-1.23-2.75-2.75-2.75-2.75,1.23-2.75,2.75Z"/>
      <path class="cls-1" d="M573.93,80.08c1.66,0,3-1.34,3-3s-1.34-3-3-3-3,1.34-3,3,1.34,3,3,3Z"/>
      <circle class="cls-1" cx="609.18" cy="59.46" r="2.87"/>
      <path class="cls-1" d="M644.43,44.35c1.39,0,2.52-1.13,2.52-2.52s-1.13-2.52-2.52-2.52-2.52,1.13-2.52,2.52,1.13,2.52,2.52,2.52Z"/>
      <path class="cls-1" d="M679.69,26.17c1.09,0,1.97-.88,1.97-1.97s-.88-1.97-1.97-1.97-1.97,.88-1.97,1.97,.88,1.97,1.97,1.97Z"/>
      <path class="cls-1" d="M714.94,7.84c.7,0,1.26-.57,1.26-1.26s-.57-1.26-1.26-1.26-1.26,.57-1.26,1.26,.57,1.26,1.26,1.26Z"/>
      <circle class="cls-1" cx="9.87" cy="396.13" r="4.99" transform="translate(-13.18 .55) rotate(-1.91)"/>
      <circle class="cls-1" cx="43.8" cy="379.16" r="5.42" transform="translate(-337.83 385.39) rotate(-84.34)"/>
      <path class="cls-1" d="M77.73,367.88c3.14,0,5.69-2.55,5.69-5.69s-2.55-5.69-5.69-5.69-5.69,2.55-5.69,5.69,2.55,5.69,5.69,5.69Z"/>
      <path class="cls-1" d="M111.67,351.1c3.24,0,5.87-2.63,5.87-5.87s-2.63-5.87-5.87-5.87-5.87,2.63-5.87,5.87,2.63,5.87,5.87,5.87Z"/>
      <circle class="cls-1" cx="145.6" cy="328.27" r="5.94"/>
      <path class="cls-1" d="M185.5,311.3c0-3.3-2.67-5.97-5.97-5.97s-5.97,2.67-5.97,5.97,2.67,5.97,5.97,5.97,5.97-2.67,5.97-5.97Z"/>
      <path class="cls-1" d="M219.35,294.33c0-3.25-2.64-5.89-5.89-5.89s-5.89,2.64-5.89,5.89,2.64,5.89,5.89,5.89,5.89-2.64,5.89-5.89Z"/>
      <path class="cls-1" d="M253.08,277.37c0-3.14-2.55-5.69-5.69-5.69s-5.69,2.55-5.69,5.69,2.55,5.69,5.69,5.69,5.69-2.55,5.69-5.69Z"/>
      <path class="cls-1" d="M286.69,260.4c0-2.96-2.4-5.37-5.37-5.37s-5.37,2.4-5.37,5.37,2.4,5.37,5.37,5.37,5.37-2.4,5.37-5.37Z"/>
      <path class="cls-1" d="M315.25,248.46c2.77,0,5.02-2.25,5.02-5.02s-2.25-5.02-5.02-5.02-5.02,2.25-5.02,5.02,2.25,5.02,5.02,5.02Z"/>
      <circle class="cls-1" cx="349.18" cy="226.47" r="4.63"/>
      <path class="cls-1" d="M378.95,209.51c0,2.3,1.86,4.16,4.16,4.16s4.16-1.86,4.16-4.16-1.86-4.16-4.16-4.16-4.16,1.86-4.16,4.16Z"/>
      <path class="cls-1" d="M417.05,196.11c1.97,0,3.57-1.6,3.57-3.57s-1.6-3.57-3.57-3.57-3.57,1.6-3.57,3.57,1.6,3.57,3.57,3.57Z"/>
      <path class="cls-1" d="M450.98,178.61c1.68,0,3.04-1.36,3.04-3.04s-1.36-3.04-3.04-3.04-3.04,1.36-3.04,3.04,1.36,3.04,3.04,3.04Z"/>
      <path class="cls-1" d="M484.91,161.3c1.48,0,2.69-1.2,2.69-2.69s-1.2-2.69-2.69-2.69-2.69,1.2-2.69,2.69,1.2,2.69,2.69,2.69Z"/>
      <path class="cls-1" d="M518.84,144.14c1.38,0,2.49-1.12,2.49-2.49s-1.12-2.49-2.49-2.49-2.49,1.12-2.49,2.49,1.12,2.49,2.49,2.49Z"/>
      <path class="cls-1" d="M552.77,127.27c1.43,0,2.59-1.16,2.59-2.59s-1.16-2.59-2.59-2.59-2.59,1.16-2.59,2.59,1.16,2.59,2.59,2.59Z"/>
      <circle class="cls-1" cx="586.7" cy="107.71" r="2.81"/>
      <circle class="cls-1" cx="620.64" cy="90.75" r="3"/>
      <path class="cls-1" d="M654.57,76.72c1.62,0,2.94-1.31,2.94-2.94s-1.32-2.94-2.94-2.94-2.94,1.31-2.94,2.94,1.31,2.94,2.94,2.94Z"/>
      <path class="cls-1" d="M688.5,59.48c1.47,0,2.66-1.19,2.66-2.66s-1.19-2.66-2.66-2.66-2.66,1.19-2.66,2.66,1.19,2.66,2.66,2.66Z"/>
      <path class="cls-1" d="M722.43,42.13c1.26,0,2.28-1.02,2.28-2.28s-1.02-2.28-2.28-2.28-2.28,1.02-2.28,2.28,1.02,2.28,2.28,2.28Z"/>
      <path class="cls-1" d="M756.36,24.61c.96,0,1.73-.77,1.73-1.73s-.78-1.73-1.73-1.73-1.73,.78-1.73,1.73,.78,1.73,1.73,1.73Z"/>
      <path class="cls-1" d="M790.29,7.01c.6,0,1.09-.49,1.09-1.09s-.49-1.09-1.09-1.09-1.09,.49-1.09,1.09,.49,1.09,1.09,1.09Z"/>
      <circle class="cls-1" cx="9.87" cy="433.15" r="5.83"/>
      <path class="cls-1" d="M40.75,414.64c0,3.39,2.75,6.14,6.14,6.14s6.14-2.75,6.14-6.14-2.75-6.14-6.14-6.14-6.14,2.75-6.14,6.14Z"/>
      <circle class="cls-1" cx="83.9" cy="396.13" r="6.31"/>
      <path class="cls-1" d="M127.33,377.62c0-3.54-2.87-6.41-6.41-6.41s-6.41,2.87-6.41,6.41,2.87,6.41,6.41,6.41,6.41-2.87,6.41-6.41Z"/>
      <circle class="cls-1" cx="157.94" cy="359.11" r="6.4"/>
      <path class="cls-1" d="M201.32,340.6c0-3.52-2.85-6.37-6.37-6.37s-6.37,2.85-6.37,6.37,2.85,6.37,6.37,6.37,6.37-2.85,6.37-6.37Z"/>
      <circle class="cls-1" cx="231.97" cy="322.1" r="6.24"/>
      <path class="cls-1" d="M268.98,309.59c3.31,0,6-2.69,6-6s-2.69-6-6-6-6,2.69-6,6,2.69,6,6,6Z"/>
      <path class="cls-1" d="M306,290.74c3.13,0,5.66-2.53,5.66-5.66s-2.53-5.66-5.66-5.66-5.66,2.53-5.66,5.66,2.53,5.66,5.66,5.66Z"/>
      <circle class="cls-1" cx="343.02" cy="266.57" r="5.3" transform="translate(-11.73 15.82) rotate(-2.6)"/>
      <circle class="cls-1" cx="380.03" cy="248.06" r="4.9"/>
      <path class="cls-1" d="M417.05,233.98c2.44,0,4.43-1.98,4.43-4.43s-1.98-4.43-4.43-4.43-4.43,1.98-4.43,4.43,1.98,4.43,4.43,4.43Z"/>
      <path class="cls-1" d="M457.92,211.05c0-2.13-1.72-3.85-3.85-3.85s-3.85,1.72-3.85,3.85,1.72,3.85,3.85,3.85,3.85-1.72,3.85-3.85Z"/>
      <path class="cls-1" d="M491.08,195.86c1.84,0,3.32-1.49,3.32-3.32s-1.49-3.32-3.32-3.32-3.32,1.49-3.32,3.32,1.49,3.32,3.32,3.32Z"/>
      <path class="cls-1" d="M528.1,171.07c-1.63,0-2.96,1.32-2.96,2.96s1.33,2.96,2.96,2.96,2.96-1.33,2.96-2.96-1.33-2.96-2.96-2.96Z"/>
      <circle class="cls-1" cx="565.11" cy="155.52" r="2.77"/>
      <path class="cls-1" d="M602.13,139.76c1.52,0,2.75-1.23,2.75-2.75s-1.23-2.75-2.75-2.75-2.75,1.23-2.75,2.75,1.23,2.75,2.75,2.75Z"/>
      <path class="cls-1" d="M639.14,121.38c1.59,0,2.87-1.29,2.87-2.87s-1.29-2.87-2.87-2.87-2.87,1.29-2.87,2.87,1.29,2.87,2.87,2.87Z"/>
      <path class="cls-1" d="M676.16,102.97c1.64,0,2.97-1.33,2.97-2.97s-1.33-2.97-2.97-2.97-2.97,1.33-2.97,2.97,1.33,2.97,2.97,2.97Z"/>
      <path class="cls-1" d="M713.18,84.34c1.57,0,2.85-1.27,2.85-2.85s-1.27-2.85-2.85-2.85-2.85,1.27-2.85,2.85,1.27,2.85,2.85,2.85Z"/>
      <path class="cls-1" d="M750.19,65.51c1.39,0,2.52-1.13,2.52-2.52s-1.13-2.52-2.52-2.52-2.52,1.13-2.52,2.52,1.13,2.52,2.52,2.52Z"/>
      <path class="cls-1" d="M787.21,46.63c1.19,0,2.15-.96,2.15-2.15s-.96-2.15-2.15-2.15-2.15,.96-2.15,2.15,.96,2.15,2.15,2.15Z"/>
      <path class="cls-1" d="M824.22,27.6c.9,0,1.63-.73,1.63-1.63s-.73-1.63-1.63-1.63-1.63,.73-1.63,1.63,.73,1.63,1.63,1.63Z"/>
      <circle class="cls-1" cx="861.24" cy="7.46" r="1.01"/>
      <path class="cls-1" d="M9.87,476.9c3.72,0,6.74-3.02,6.74-6.74s-3.02-6.74-6.74-6.74-6.74,3.02-6.74,6.74,3.02,6.74,6.74,6.74Z"/>
      <circle class="cls-1" cx="45.52" cy="452.34" r="6.89" transform="translate(-20.45 2.53) rotate(-2.6)"/>
      <path class="cls-1" d="M81.16,441.47c3.84,0,6.96-3.11,6.96-6.96s-3.11-6.96-6.96-6.96-6.96,3.11-6.96,6.96,3.11,6.96,6.96,6.96Z"/>
      <circle class="cls-1" cx="116.81" cy="416.69" r="6.98"/>
      <path class="cls-1" d="M152.45,391.96c-3.81,0-6.91,3.09-6.91,6.91s3.09,6.91,6.91,6.91,6.91-3.09,6.91-6.91-3.09-6.91-6.91-6.91Z"/>
      <circle class="cls-1" cx="188.1" cy="381.05" r="6.83"/>
      <circle class="cls-1" cx="223.74" cy="363.23" r="6.67"/>
      <path class="cls-1" d="M265.85,345.4c0-3.57-2.89-6.46-6.46-6.46s-6.46,2.89-6.46,6.46,2.89,6.46,6.46,6.46,6.46-2.89,6.46-6.46Z"/>
      <circle class="cls-1" cx="295.03" cy="327.58" r="6.25"/>
      <path class="cls-1" d="M324.75,309.76c0,3.27,2.65,5.93,5.93,5.93s5.93-2.65,5.93-5.93-2.65-5.93-5.93-5.93-5.93,2.65-5.93,5.93Z"/>
      <path class="cls-1" d="M360.73,291.94c0,3.09,2.5,5.59,5.59,5.59s5.59-2.5,5.59-5.59-2.5-5.59-5.59-5.59-5.59,2.5-5.59,5.59Z"/>
      <path class="cls-1" d="M396.72,274.11c0,2.9,2.35,5.24,5.24,5.24s5.24-2.35,5.24-5.24-2.35-5.24-5.24-5.24-5.24,2.35-5.24,5.24Z"/>
      <circle class="cls-1" cx="437.61" cy="256.29" r="4.84"/>
      <path class="cls-1" d="M468.89,238.47c0,2.42,1.96,4.37,4.37,4.37s4.37-1.96,4.37-4.37-1.96-4.37-4.37-4.37-4.37,1.96-4.37,4.37Z"/>
      <path class="cls-1" d="M508.9,224.55c2.15,0,3.9-1.75,3.9-3.9s-1.75-3.9-3.9-3.9-3.9,1.75-3.9,3.9,1.75,3.9,3.9,3.9Z"/>
      <path class="cls-1" d="M544.55,206.3c1.92,0,3.48-1.56,3.48-3.48s-1.56-3.48-3.48-3.48-3.48,1.56-3.48,3.48,1.56,3.48,3.48,3.48Z"/>
      <path class="cls-1" d="M580.19,188.16c1.74,0,3.16-1.41,3.16-3.16s-1.41-3.16-3.16-3.16-3.16,1.41-3.16,3.16,1.41,3.16,3.16,3.16Z"/>
      <path class="cls-1" d="M615.84,170.16c1.65,0,2.98-1.33,2.98-2.98s-1.33-2.98-2.98-2.98-2.98,1.33-2.98,2.98,1.33,2.98,2.98,2.98Z"/>
      <path class="cls-1" d="M651.48,152.25c1.6,0,2.9-1.3,2.9-2.9s-1.3-2.9-2.9-2.9-2.9,1.3-2.9,2.9,1.3,2.9,2.9,2.9Z"/>
      <circle class="cls-1" cx="687.13" cy="131.53" r="2.91"/>
      <path class="cls-1" d="M722.77,116.63c1.61,0,2.92-1.31,2.92-2.92s-1.31-2.92-2.92-2.92-2.92,1.31-2.92,2.92,1.31,2.92,2.92,2.92Z"/>
      <path class="cls-1" d="M755.63,95.89c0,1.54,1.25,2.79,2.79,2.79s2.79-1.25,2.79-2.79-1.25-2.79-2.79-2.79-2.79,1.25-2.79,2.79Z"/>
      <path class="cls-1" d="M794.06,80.61c1.41,0,2.55-1.14,2.55-2.55s-1.14-2.55-2.55-2.55-2.55,1.14-2.55,2.55,1.14,2.55,2.55,2.55Z"/>
      <path class="cls-1" d="M831.91,60.24c0-1.22-.99-2.21-2.21-2.21s-2.21,.99-2.21,2.21,.99,2.21,2.21,2.21,2.21-.99,2.21-2.21Z"/>
      <path class="cls-1" d="M865.35,44.27c1.02,0,1.85-.83,1.85-1.85s-.83-1.85-1.85-1.85-1.85,.83-1.85,1.85,.83,1.85,1.85,1.85Z"/>
      <path class="cls-1" d="M901,23.23c-.75,0-1.36,.61-1.36,1.36s.61,1.36,1.36,1.36,1.36-.61,1.36-1.36-.61-1.36-1.36-1.36Z"/>
      <path class="cls-1" d="M936.64,7.6c.45,0,.82-.37,.82-.82s-.37-.82-.82-.82-.82,.37-.82,.82,.37,.82,.82,.82Z"/>
      <circle class="cls-1" cx="9.87" cy="507.18" r="7.72"/>
      <path class="cls-1" d="M44.42,497.62c4.26,0,7.72-3.46,7.72-7.72s-3.45-7.72-7.72-7.72-7.72,3.45-7.72,7.72,3.45,7.72,7.72,7.72Z"/>
      <circle class="cls-1" cx="78.97" cy="472.63" r="7.66"/>
      <circle class="cls-1" cx="113.52" cy="455.35" r="7.54"/>
      <path class="cls-1" d="M148.06,445.5c4.1,0,7.42-3.32,7.42-7.42s-3.32-7.42-7.42-7.42-7.42,3.32-7.42,7.42,3.32,7.42,7.42,7.42Z"/>
      <path class="cls-1" d="M182.61,428.1c4.03,0,7.3-3.27,7.3-7.3s-3.27-7.3-7.3-7.3-7.3,3.27-7.3,7.3,3.27,7.3,7.3,7.3Z"/>
      <circle class="cls-1" cx="217.16" cy="403.53" r="7.18" transform="translate(-192.58 608.75) rotate(-88.32)"/>
      <circle class="cls-1" cx="251.71" cy="386.26" r="6.95"/>
      <circle class="cls-1" cx="286.26" cy="368.98" r="6.71" transform="translate(-164.19 492.25) rotate(-67.5)"/>
      <path class="cls-1" d="M320.81,345.23c-3.58,0-6.48,2.9-6.48,6.48s2.9,6.48,6.48,6.48,6.48-2.9,6.48-6.48-2.9-6.48-6.48-6.48Z"/>
      <circle class="cls-1" cx="355.35" cy="334.44" r="6.17" transform="translate(7.53 676.69) rotate(-87.8)"/>
      <path class="cls-1" d="M384.04,317.16c0,3.24,2.62,5.86,5.86,5.86s5.86-2.62,5.86-5.86-2.62-5.86-5.86-5.86-5.86,2.62-5.86,5.86Z"/>
      <path class="cls-1" d="M418.91,299.89c0,3.06,2.48,5.55,5.55,5.55s5.55-2.48,5.55-5.55-2.48-5.55-5.55-5.55-5.55,2.48-5.55,5.55Z"/>
      <path class="cls-1" d="M453.84,282.61c0,2.85,2.31,5.16,5.16,5.16s5.16-2.31,5.16-5.16-2.31-5.16-5.16-5.16-5.16,2.31-5.16,5.16Z"/>
      <circle class="cls-1" cx="493.55" cy="265.34" r="4.78"/>
      <path class="cls-1" d="M528.1,252.47c2.43,0,4.4-1.97,4.4-4.4s-1.97-4.4-4.4-4.4-4.4,1.97-4.4,4.4,1.97,4.4,4.4,4.4Z"/>
      <path class="cls-1" d="M562.64,234.8c2.22,0,4.01-1.8,4.01-4.01s-1.8-4.01-4.01-4.01-4.01,1.8-4.01,4.01,1.8,4.01,4.01,4.01Z"/>
      <path class="cls-1" d="M597.19,217.19c2.03,0,3.67-1.65,3.67-3.67s-1.65-3.67-3.67-3.67-3.67,1.65-3.67,3.67,1.65,3.67,3.67,3.67Z"/>
      <path class="cls-1" d="M635.11,196.24c0-1.86-1.51-3.37-3.37-3.37s-3.37,1.51-3.37,3.37,1.51,3.37,3.37,3.37,3.37-1.51,3.37-3.37Z"/>
      <path class="cls-1" d="M666.29,182.15c1.76,0,3.18-1.43,3.18-3.18s-1.43-3.18-3.18-3.18-3.18,1.42-3.18,3.18,1.43,3.18,3.18,3.18Z"/>
      <path class="cls-1" d="M700.84,164.73c1.68,0,3.04-1.36,3.04-3.04s-1.36-3.04-3.04-3.04-3.04,1.36-3.04,3.04,1.36,3.04,3.04,3.04Z"/>
      <path class="cls-1" d="M735.39,147.37c1.63,0,2.95-1.32,2.95-2.95s-1.32-2.95-2.95-2.95-2.95,1.32-2.95,2.95,1.32,2.95,2.95,2.95Z"/>
      <circle class="cls-1" cx="769.93" cy="127.15" r="2.86"/>
      <circle class="cls-1" cx="804.48" cy="109.87" r="2.7"/>
      <path class="cls-1" d="M839.03,95.1c1.38,0,2.5-1.12,2.5-2.5s-1.12-2.5-2.5-2.5-2.5,1.12-2.5,2.5,1.12,2.5,2.5,2.5Z"/>
      <path class="cls-1" d="M873.58,77.51c1.21,0,2.18-.98,2.18-2.18s-.98-2.18-2.18-2.18-2.18,.98-2.18,2.18,.98,2.18,2.18,2.18Z"/>
      <path class="cls-1" d="M908.13,59.91c1.03,0,1.87-.83,1.87-1.86s-.84-1.87-1.87-1.87-1.87,.83-1.87,1.87,.84,1.86,1.87,1.86Z"/>
      <path class="cls-1" d="M942.68,42.28c.83,0,1.51-.68,1.51-1.51s-.68-1.51-1.51-1.51-1.51,.68-1.51,1.51,.68,1.51,1.51,1.51Z"/>
      <path class="cls-1" d="M977.22,24.6c.61,0,1.1-.49,1.1-1.1s-.49-1.1-1.1-1.1-1.1,.49-1.1,1.1,.49,1.1,1.1,1.1Z"/>
      <path class="cls-1" d="M1011.77,5.6c-.35,0-.63,.28-.63,.63s.28,.63,.63,.63,.63-.28,.63-.63-.28-.63-.63-.63Z"/>
      <circle class="cls-1" cx="9.87" cy="544.19" r="8.76"/>
      <path class="cls-1" d="M46.89,517.08c-4.75,0-8.61,3.85-8.61,8.6s3.85,8.61,8.61,8.61,8.61-3.85,8.61-8.61-3.85-8.6-8.61-8.6Z"/>
      <path class="cls-1" d="M83.9,498.76c-4.65,0-8.42,3.77-8.42,8.42s3.77,8.42,8.42,8.42,8.42-3.77,8.42-8.42-3.77-8.42-8.42-8.42Z"/>
      <path class="cls-1" d="M120.92,480.47c-4.53,0-8.2,3.67-8.2,8.2s3.67,8.2,8.2,8.2,8.2-3.67,8.2-8.2-3.67-8.2-8.2-8.2Z"/>
      <path class="cls-1" d="M157.94,462.18c-4.41,0-7.98,3.57-7.98,7.98s3.57,7.98,7.98,7.98,7.98-3.57,7.98-7.98-3.57-7.98-7.98-7.98Z"/>
      <path class="cls-1" d="M194.95,443.89c-4.29,0-7.76,3.48-7.76,7.76s3.48,7.76,7.76,7.76,7.76-3.48,7.76-7.76-3.48-7.76-7.76-7.76Z"/>
      <circle class="cls-1" cx="231.97" cy="433.15" r="7.54"/>
      <circle class="cls-1" cx="268.98" cy="414.64" r="7.24" transform="translate(-62.94 48.44) rotate(-9.22)"/>
      <circle class="cls-1" cx="306" cy="396.13" r="6.94"/>
      <path class="cls-1" d="M349.66,377.62c0-3.67-2.97-6.65-6.64-6.65s-6.64,2.98-6.64,6.65,2.97,6.64,6.64,6.64,6.64-2.98,6.64-6.64Z"/>
      <circle class="cls-1" cx="380.03" cy="359.11" r="6.34" transform="translate(-24.5 27.84) rotate(-4.07)"/>
      <path class="cls-1" d="M417.05,346.65c3.34,0,6.04-2.71,6.04-6.04s-2.71-6.05-6.04-6.05-6.04,2.71-6.04,6.05,2.71,6.04,6.04,6.04Z"/>
      <circle class="cls-1" cx="454.06" cy="322.1" r="5.75"/>
      <circle class="cls-1" cx="491.08" cy="303.59" r="5.39" transform="translate(22.67 641.11) rotate(-67.5)"/>
      <path class="cls-1" d="M528.1,290.11c2.78,0,5.03-2.25,5.03-5.03s-2.25-5.03-5.03-5.03-5.03,2.25-5.03,5.03,2.25,5.03,5.03,5.03Z"/>
      <circle class="cls-1" cx="565.11" cy="266.57" r="4.67" transform="translate(-17.48 40.73) rotate(-4.07)"/>
      <circle class="cls-1" cx="602.13" cy="248.06" r="4.33"/>
      <path class="cls-1" d="M639.14,233.55c2.21,0,3.99-1.79,3.99-3.99s-1.79-3.99-3.99-3.99-3.99,1.79-3.99,3.99,1.79,3.99,3.99,3.99Z"/>
      <path class="cls-1" d="M676.16,214.7c2.02,0,3.66-1.64,3.66-3.66s-1.64-3.66-3.66-3.66-3.66,1.64-3.66,3.66,1.64,3.66,3.66,3.66Z"/>
      <circle class="cls-1" cx="713.18" cy="192.54" r="3.43"/>
      <path class="cls-1" d="M750.19,177.23c1.77,0,3.2-1.43,3.2-3.2s-1.43-3.2-3.2-3.2-3.2,1.43-3.2,3.2,1.43,3.2,3.2,3.2Z"/>
      <circle class="cls-1" cx="787.21" cy="155.52" r="2.97"/>
      <path class="cls-1" d="M824.22,139.75c1.51,0,2.73-1.22,2.73-2.73s-1.22-2.73-2.73-2.73-2.73,1.22-2.73,2.73,1.22,2.73,2.73,2.73Z"/>
      <circle class="cls-1" cx="861.24" cy="118.51" r="2.5"/>
      <path class="cls-1" d="M898.26,102.26c1.25,0,2.26-1.01,2.26-2.26s-1.01-2.26-2.26-2.26-2.26,1.01-2.26,2.26,1.01,2.26,2.26,2.26Z"/>
      <path class="cls-1" d="M935.27,83.41c1.06,0,1.92-.86,1.92-1.92s-.86-1.92-1.92-1.92-1.92,.86-1.92,1.92,.86,1.92,1.92,1.92Z"/>
      <path class="cls-1" d="M972.29,64.56c.87,0,1.57-.7,1.57-1.57s-.7-1.57-1.57-1.57-1.57,.7-1.57,1.57,.7,1.57,1.57,1.57Z"/>
      <circle class="cls-1" cx="1009.3" cy="44.48" r="1.23"/>
      <path class="cls-1" d="M1046.32,26.85c.49,0,.88-.39,.88-.88s-.39-.88-.88-.88-.88,.39-.88,.88,.39,.88,.88,.88Z"/>
      <path class="cls-1" d="M1083.34,6.97c-.27,0-.49,.22-.49,.49s.22,.49,.49,.49,.49-.22,.49-.49-.22-.49-.49-.49Z"/>
      <path class="cls-1" d="M9.87,571.34c-5.45,0-9.87,4.42-9.87,9.87s4.42,9.87,9.87,9.87,9.87-4.42,9.87-9.87-4.42-9.87-9.87-9.87Z"/>
      <path class="cls-1" d="M52.53,556.49c-1.73-1.73-4.13-2.8-6.77-2.8-5.29,0-9.57,4.29-9.57,9.57s4.29,9.57,9.57,9.57c2.64,0,5.04-1.07,6.77-2.8,1.73-1.73,2.8-4.12,2.8-6.77s-1.07-5.04-2.8-6.77Z"/>
      <path class="cls-1" d="M83.53,554.4c.6-.12,1.19-.31,1.74-.54,.83-.35,1.6-.82,2.29-1.39,.46-.38,.88-.8,1.26-1.26,1.32-1.6,2.12-3.66,2.12-5.9s-.79-4.29-2.12-5.9c-.38-.46-.8-.88-1.26-1.26-.69-.57-1.46-1.04-2.29-1.39-.55-.23-1.14-.42-1.74-.54-.6-.12-1.23-.19-1.87-.19-5.12,0-9.27,4.15-9.27,9.27s4.15,9.27,9.27,9.27c.64,0,1.27-.06,1.87-.19Z"/>
      <path class="cls-1" d="M180.97,491.47c0,2.6,1.19,4.93,3.05,6.46,1.45,1.19,3.3,1.91,5.33,1.91h0c4.63,0,8.38-3.75,8.38-8.38s-3.75-8.38-8.38-8.38h0c-2.02,0-3.88,.72-5.33,1.91-1.86,1.54-3.05,3.86-3.05,6.46Z"/>
      <path class="cls-1" d="M255.58,461.02s.03,.04,.05,.06c.22,.22,.46,.42,.7,.61,.27,.21,.55,.4,.84,.57,.2,.12,.4,.22,.6,.32,1.02,.49,2.15,.77,3.35,.77h0c4.3,0,7.78-3.48,7.78-7.78,0-.54-.05-1.06-.16-1.57-.24-1.18-.76-2.26-1.47-3.18-.2-.26-.42-.52-.65-.75-.22-.22-.46-.42-.7-.61-1.32-1.04-2.98-1.66-4.8-1.66h0c-4.3,0-7.78,3.48-7.78,7.78,0,.54,.05,1.06,.16,1.57,.31,1.49,1.04,2.83,2.07,3.88Z"/>
      <path class="cls-1" d="M340.1,419.68c0-3.96-3.21-7.18-7.18-7.18h0c-3.96,0-7.18,3.21-7.18,7.18s3.21,7.18,7.18,7.18h0c3.96,0,7.18-3.21,7.18-7.18Z"/>
      <path class="cls-1" d="M368.81,394.86h0c-3.8,0-6.88,3.08-6.88,6.88,0,.71,.11,1.4,.31,2.05,.72,2.31,2.63,4.1,5.01,4.65,.5,.12,1.02,.18,1.56,.18h0c3.8,0,6.88-3.08,6.88-6.88,0-.95-.19-1.85-.54-2.68-.26-.62-.61-1.19-1.03-1.7-.14-.17-.29-.33-.44-.49-1.24-1.25-2.96-2.02-4.86-2.02Z"/>
      <path class="cls-1" d="M446.76,364.58c-.1-.5-.27-.97-.48-1.42-.18-.38-.4-.73-.64-1.07-.11-.15-.23-.29-.35-.43-.2-.22-.41-.43-.63-.62-.27-.23-.56-.43-.86-.61-.06-.04-.12-.08-.18-.11,0,0-.01,0-.02,0-.89-.48-1.9-.75-2.97-.75h0c-3.47,0-6.28,2.81-6.28,6.28,0,1.73,.7,3.31,1.84,4.44,.01,.01,.03,.03,.04,.04,1.13,1.11,2.68,1.8,4.4,1.8h0c3.47,0,6.28-2.81,6.28-6.28,0-.22-.01-.43-.03-.64,0-.05-.02-.09-.02-.14-.02-.16-.04-.33-.07-.48Z"/>
      <path class="cls-1" d="M476.5,341.91h0c-3.3,0-5.98,2.68-5.98,5.98s2.68,5.98,5.98,5.98h0c3.3,0,5.98-2.68,5.98-5.98s-2.68-5.98-5.98-5.98h0Z"/>
      <path class="cls-1" d="M518.08,329.95c0-.59-.09-1.16-.26-1.69-.59-1.91-2.17-3.39-4.14-3.84-.41-.1-.84-.15-1.29-.15h0c-3.14,0-5.68,2.54-5.68,5.68s2.54,5.68,5.68,5.68h0c3.14,0,5.68-2.54,5.68-5.68Z"/>
      <path class="cls-1" d="M584.07,299.13s.08,.01,.11,.01h0c2.81,0,5.09-2.28,5.09-5.08,0-1.05-.32-2.03-.87-2.84-.91-1.35-2.46-2.24-4.22-2.24-2.81,0-5.09,2.28-5.09,5.09,0,1.05,.32,2.03,.87,2.84,.89,1.32,2.4,2.19,4.1,2.23Z"/>
      <path class="cls-1" d="M655.97,253.67h0c-2.48,0-4.49,2.01-4.49,4.49,0,.93,.28,1.79,.77,2.51,.79,1.17,2.12,1.94,3.63,1.97,.03,0,.06,0,.09,0h0c2.48,0,4.49-2.01,4.49-4.49s-2.01-4.49-4.49-4.49h0Z"/>
      <path class="cls-1" d="M693.49,236.35c-.25-.11-.51-.19-.79-.24-.27-.06-.55-.08-.84-.08h0c-2.31,0-4.19,1.87-4.19,4.19s1.87,4.19,4.19,4.19h0c.29,0,.57-.03,.84-.09,.27-.06,.54-.14,.79-.24,1.5-.64,2.56-2.12,2.56-3.86s-1.05-3.22-2.56-3.86Z"/>
      <path class="cls-1" d="M870.64,153.07c.22,.06,.46,.1,.7,.1h0c1.49,0,2.69-1.2,2.69-2.69s-1.21-2.69-2.69-2.69h0c-1.49,0-2.69,1.21-2.69,2.69,0,.37,.08,.73,.21,1.05,.32,.76,.98,1.32,1.78,1.54Z"/>
      <path class="cls-1" d="M945.22,114.58c0-1.16-.94-2.09-2.09-2.09h0c-1.16,0-2.09,.94-2.09,2.09s.94,2.09,2.09,2.09h0c1.16,0,2.09-.94,2.09-2.09Z"/>
      <path class="cls-1" d="M1016.41,78.69c0-.83-.67-1.5-1.5-1.5s-1.5,.67-1.5,1.5,.67,1.5,1.5,1.5,1.5-.67,1.5-1.5Z"/>
      <path class="cls-1" d="M1050.81,61.94c.66,0,1.2-.54,1.2-1.2s-.54-1.2-1.2-1.2-1.2,.54-1.2,1.2,.54,1.2,1.2,1.2Z"/>
      <path class="cls-1" d="M1086.7,41.9c-.5,0-.9,.4-.9,.9s.4,.9,.9,.9,.9-.4,.9-.9-.4-.9-.9-.9Z"/>
      <path class="cls-1" d="M1158.49,6.6c-.17,0-.3,.13-.3,.3s.13,.3,.3,.3,.3-.13,.3-.3-.13-.3-.3-.3Z"/>
    </g>
  </g>
</svg>