<?xml version="1.0" encoding="UTF-8"?>
<svg id="Layer_2" data-name="Layer 2" xmlns="http://www.w3.org/2000/svg" viewBox="0 0 2687.5 1010.24">
  <defs>
    <style>
      .cls-1 {
        fill: #F0F2F3;
      }
    </style>
  </defs>
  <g id="Layer_1-2" data-name="Layer 1">
    <g>
      <g>
        <path class="cls-1" d="M1144.76,728.26c-.56,0-1.02-.45-1.02-1s.46-1.01,1.02-1.01,1,.45,1,1.01-.45,1-1,1Z"/>
        <path class="cls-1" d="M1144.75,489.67c-.83,0-1.51-.68-1.51-1.51s.68-1.51,1.51-1.51,1.52,.68,1.52,1.51-.68,1.51-1.52,1.51Z"/>
        <circle class="cls-1" cx="1144.75" cy="448.3" r="6.06"/>
        <circle class="cls-1" cx="1144.75" cy="249.05" r="4.04"/>
        <path class="cls-1" d="M1144.76,173.39c-2.23,0-4.05-1.81-4.05-4.04s1.82-4.04,4.05-4.04,4.03,1.81,4.03,4.04-1.81,4.04-4.03,4.04Z"/>
        <path class="cls-1" d="M1144.75,133.54c-2.23,0-4.04-1.82-4.04-4.05s1.81-4.04,4.04-4.04,4.05,1.81,4.05,4.04-1.82,4.05-4.05,4.05Z"/>
        <path class="cls-1" d="M1088.23,731.29c-2.23,0-4.04-1.81-4.04-4.04s1.81-4.04,4.04-4.04,4.03,1.81,4.03,4.04-1.81,4.04-4.03,4.04Z"/>
        <circle class="cls-1" cx="1088.22" cy="687.4" r="1.01"/>
        <path class="cls-1" d="M1088.22,492.19c-2.23,0-4.04-1.81-4.04-4.04s1.81-4.04,4.04-4.04,4.05,1.81,4.05,4.04-1.82,4.04-4.05,4.04Z"/>
        <circle class="cls-1" cx="1088.22" cy="448.3" r="1.01"/>
        <path class="cls-1" d="M1088.22,412.49c-2.23,0-4.04-1.81-4.04-4.04s1.81-4.04,4.04-4.04,4.05,1.81,4.05,4.04-1.82,4.04-4.05,4.04Z"/>
        <path class="cls-1" d="M1088.22,369.61c-.55,0-1-.45-1-1.01s.45-1.01,1-1.01,1.01,.44,1.01,1.01-.44,1.01-1.01,1.01Z"/>
        <path class="cls-1" d="M1088.23,253.09c-2.23,0-4.05-1.81-4.05-4.04s1.82-4.04,4.05-4.04,4.03,1.81,4.03,4.04-1.81,4.04-4.03,4.04Z"/>
        <path class="cls-1" d="M1088.22,215.26c-3.34,0-6.06-2.72-6.06-6.06s2.72-6.07,6.06-6.07,6.06,2.72,6.06,6.07-2.72,6.06-6.06,6.06Z"/>
        <circle class="cls-1" cx="1088.22" cy="49.8" r="4.04"/>
        <path class="cls-1" d="M1031.68,728.26c-.56,0-1.01-.45-1.01-1s.45-1.01,1.01-1.01,1.02,.45,1.02,1.01-.46,1-1.02,1Z"/>
        <path class="cls-1" d="M1031.68,651.59c-2.23,0-4.04-1.81-4.04-4.04s1.81-4.04,4.04-4.04,4.05,1.81,4.05,4.04-1.82,4.04-4.05,4.04Z"/>
        <circle class="cls-1" cx="1031.68" cy="607.7" r="1.01"/>
        <path class="cls-1" d="M1031.69,492.19c-2.23,0-4.05-1.81-4.05-4.04s1.82-4.04,4.05-4.04,4.03,1.81,4.03,4.04-1.81,4.04-4.03,4.04Z"/>
        <circle class="cls-1" cx="1031.68" cy="448.3" r="8.08"/>
        <path class="cls-1" d="M1031.68,412.49c-2.23,0-4.04-1.81-4.04-4.04s1.81-4.04,4.04-4.04,4.05,1.81,4.05,4.04-1.82,4.04-4.05,4.04Z"/>
        <path class="cls-1" d="M1031.69,371.12c-1.4,0-2.53-1.13-2.53-2.52s1.14-2.52,2.53-2.52,2.52,1.13,2.52,2.52-1.13,2.52-2.52,2.52Z"/>
        <circle class="cls-1" cx="1031.68" cy="328.75" r="1.01"/>
        <path class="cls-1" d="M975.15,1010.24c-2.23,0-4.04-1.81-4.04-4.04s1.81-4.04,4.04-4.04,4.05,1.81,4.05,4.04-1.82,4.04-4.05,4.04Z"/>
        <circle class="cls-1" cx="975.15" cy="966.35" r="1.01"/>
        <circle class="cls-1" cx="975.15" cy="767.1" r="4.04"/>
        <path class="cls-1" d="M975.15,728.26c-.55,0-1-.45-1-1s.45-1.01,1-1.01,1.01,.44,1.01,1.01-.45,1-1.01,1Z"/>
        <circle class="cls-1" cx="975.15" cy="687.4" r="4.04"/>
        <path class="cls-1" d="M975.15,651.59c-2.23,0-4.04-1.81-4.04-4.04s1.81-4.04,4.04-4.04,4.05,1.81,4.05,4.04-1.82,4.04-4.05,4.04Z"/>
        <path class="cls-1" d="M975.15,611.73c-2.23,0-4.04-1.81-4.04-4.04s1.81-4.03,4.04-4.03,4.04,1.81,4.04,4.03-1.81,4.04-4.04,4.04Z"/>
        <path class="cls-1" d="M975.15,569.87c-1.11,0-2.02-.91-2.02-2.02s.91-2.02,2.02-2.02,2.03,.91,2.03,2.02-.91,2.02-2.03,2.02Z"/>
        <circle class="cls-1" cx="975.15" cy="528" r="4.04"/>
        <path class="cls-1" d="M975.15,492.19c-2.22,0-4.03-1.81-4.03-4.04s1.81-4.04,4.03-4.04,4.04,1.81,4.04,4.04-1.81,4.04-4.04,4.04Z"/>
        <path class="cls-1" d="M975.16,452.34c-2.23,0-4.05-1.81-4.05-4.04s1.82-4.04,4.05-4.04,4.03,1.81,4.03,4.04-1.81,4.04-4.03,4.04Z"/>
        <circle class="cls-1" cx="975.15" cy="408.45" r="4.04"/>
        <circle class="cls-1" cx="975.15" cy="368.6" r="2.52"/>
        <circle class="cls-1" cx="975.15" cy="328.75" r="8.08"/>
        <path class="cls-1" d="M975.16,292.94c-2.23,0-4.05-1.81-4.05-4.04s1.82-4.04,4.05-4.04,4.03,1.81,4.03,4.04-1.81,4.04-4.03,4.04Z"/>
        <path class="cls-1" d="M975.15,253.09c-2.22,0-4.03-1.81-4.03-4.04s1.81-4.04,4.03-4.04,4.04,1.81,4.04,4.04-1.81,4.04-4.04,4.04Z"/>
        <circle class="cls-1" cx="975.15" cy="209.2" r="2.52"/>
        <path class="cls-1" d="M975.16,175.41c-3.34,0-6.07-2.72-6.07-6.06s2.72-6.06,6.07-6.06,6.05,2.72,6.05,6.06-2.71,6.06-6.05,6.06Z"/>
        <circle class="cls-1" cx="918.62" cy="1006.21" r="1.01"/>
        <path class="cls-1" d="M918.62,970.39c-2.22,0-4.03-1.81-4.03-4.04s1.81-4.04,4.03-4.04,4.04,1.81,4.04,4.04-1.81,4.04-4.04,4.04Z"/>
        <path class="cls-1" d="M918.63,927.51c-.56,0-1.01-.45-1.01-1s.44-1.01,1.01-1.01,1,.45,1,1.01-.45,1-1,1Z"/>
        <circle class="cls-1" cx="918.62" cy="886.65" r="4.04"/>
        <path class="cls-1" d="M918.63,848.82c-1.12,0-2.03-.91-2.03-2.02s.91-2.02,2.03-2.02,2.01,.91,2.01,2.02-.9,2.02-2.01,2.02Z"/>
        <circle class="cls-1" cx="918.62" cy="806.96" r="4.04"/>
        <path class="cls-1" d="M918.63,771.14c-2.23,0-4.05-1.81-4.05-4.04s1.82-4.04,4.05-4.04,4.03,1.81,4.03,4.04-1.81,4.04-4.03,4.04Z"/>
        <path class="cls-1" d="M918.62,731.29c-2.23,0-4.04-1.81-4.04-4.04s1.81-4.04,4.04-4.04,4.05,1.81,4.05,4.04-1.82,4.04-4.05,4.04Z"/>
        <circle class="cls-1" cx="918.62" cy="687.4" r="2.02"/>
        <path class="cls-1" d="M918.63,653.61c-3.34,0-6.07-2.72-6.07-6.06s2.72-6.06,6.07-6.06,6.05,2.72,6.05,6.06-2.71,6.06-6.05,6.06Z"/>
        <path class="cls-1" d="M918.62,611.73c-2.23,0-4.04-1.81-4.04-4.04s1.81-4.03,4.04-4.03,4.04,1.81,4.04,4.03-1.81,4.04-4.04,4.04Z"/>
        <circle class="cls-1" cx="918.62" cy="567.85" r="2.02"/>
        <path class="cls-1" d="M918.62,529.01c-.56,0-1.01-.45-1.01-1s.45-1.02,1.01-1.02,1.01,.46,1.01,1.02-.45,1-1.01,1Z"/>
        <path class="cls-1" d="M918.62,250.06c-.55,0-1-.45-1-1.01s.45-1.01,1-1.01,1.01,.45,1.01,1.01-.44,1.01-1.01,1.01Z"/>
        <path class="cls-1" d="M918.62,213.23c-2.23,0-4.04-1.81-4.04-4.03s1.81-4.04,4.04-4.04,4.04,1.81,4.04,4.04-1.81,4.03-4.04,4.03Z"/>
        <circle class="cls-1" cx="918.62" cy="169.35" r="4.04"/>
        <path class="cls-1" d="M918.62,133.54c-2.23,0-4.04-1.82-4.04-4.05s1.81-4.04,4.04-4.04,4.04,1.81,4.04,4.04-1.81,4.05-4.04,4.05Z"/>
        <path class="cls-1" d="M918.62,92.17c-1.39,0-2.51-1.13-2.51-2.52s1.13-2.52,2.51-2.52,2.52,1.13,2.52,2.52-1.13,2.52-2.52,2.52Z"/>
        <circle class="cls-1" cx="918.62" cy="49.8" r="4.04"/>
        <circle class="cls-1" cx="862.09" cy="846.8" r="4.04"/>
        <circle class="cls-1" cx="862.09" cy="806.96" r="1.01"/>
        <path class="cls-1" d="M862.09,771.14c-2.22,0-4.03-1.81-4.03-4.04s1.81-4.04,4.03-4.04,4.04,1.81,4.04,4.04-1.81,4.04-4.04,4.04Z"/>
        <circle class="cls-1" cx="862.09" cy="727.26" r="4.04"/>
        <path class="cls-1" d="M862.1,691.44c-2.23,0-4.05-1.81-4.05-4.04s1.82-4.04,4.05-4.04,4.03,1.81,4.03,4.04-1.81,4.04-4.03,4.04Z"/>
        <circle class="cls-1" cx="862.09" cy="647.55" r="4.04"/>
        <path class="cls-1" d="M862.1,611.73c-2.23,0-4.05-1.81-4.05-4.04s1.82-4.03,4.05-4.03,4.04,1.81,4.04,4.03-1.81,4.04-4.04,4.04Z"/>
        <path class="cls-1" d="M862.09,571.89c-2.22,0-4.03-1.81-4.03-4.04s1.81-4.04,4.03-4.04,4.04,1.81,4.04,4.04-1.81,4.04-4.04,4.04Z"/>
        <path class="cls-1" d="M862.09,530.01c-1.11,0-2.02-.91-2.02-2.02s.91-2.01,2.02-2.01,2.02,.9,2.02,2.01-.91,2.02-2.02,2.02Z"/>
        <path class="cls-1" d="M862.09,329.75c-.55,0-1-.45-1-1.01s.45-1.01,1-1.01,1.01,.45,1.01,1.01-.44,1.01-1.01,1.01Z"/>
        <circle class="cls-1" cx="862.09" cy="288.9" r="4.04"/>
        <circle class="cls-1" cx="862.09" cy="249.05" r="1.01"/>
        <path class="cls-1" d="M805.56,847.81c-.55,0-1-.45-1-1.01s.45-1.01,1-1.01,1.02,.45,1.02,1.01-.46,1.01-1.02,1.01Z"/>
        <circle class="cls-1" cx="805.56" cy="806.96" r="4.04"/>
        <path class="cls-1" d="M805.56,768.11c-.55,0-1-.45-1-1.01s.45-1.01,1-1.01,1.01,.45,1.01,1.01-.45,1.01-1.01,1.01Z"/>
        <circle class="cls-1" cx="805.56" cy="727.26" r="4.04"/>
        <circle class="cls-1" cx="805.56" cy="687.4" r="4.04"/>
        <path class="cls-1" d="M805.56,651.59c-2.22,0-4.03-1.81-4.03-4.04s1.81-4.04,4.03-4.04,4.04,1.81,4.04,4.04-1.81,4.04-4.04,4.04Z"/>
        <path class="cls-1" d="M805.56,611.73c-2.22,0-4.03-1.81-4.03-4.04s1.81-4.03,4.03-4.03,4.04,1.81,4.04,4.03-1.81,4.04-4.04,4.04Z"/>
        <path class="cls-1" d="M805.57,573.91c-3.34,0-6.07-2.72-6.07-6.06s2.72-6.06,6.07-6.06,6.05,2.72,6.05,6.06-2.71,6.06-6.05,6.06Z"/>
        <circle class="cls-1" cx="805.56" cy="528" r="4.04"/>
        <path class="cls-1" d="M805.56,490.68c-1.39,0-2.52-1.13-2.52-2.52s1.13-2.52,2.52-2.52,2.53,1.13,2.53,2.52-1.14,2.52-2.53,2.52Z"/>
        <path class="cls-1" d="M805.57,452.34c-2.23,0-4.05-1.81-4.05-4.04s1.82-4.04,4.05-4.04,4.03,1.81,4.03,4.04-1.81,4.04-4.03,4.04Z"/>
        <path class="cls-1" d="M805.56,411.48c-1.66,0-3.02-1.36-3.02-3.03s1.35-3.03,3.02-3.03,3.04,1.36,3.04,3.03-1.36,3.03-3.04,3.03Z"/>
        <circle class="cls-1" cx="805.56" cy="368.6" r="2.02"/>
        <path class="cls-1" d="M805.57,331.27c-1.4,0-2.53-1.13-2.53-2.52s1.14-2.52,2.53-2.52,2.51,1.13,2.51,2.52-1.13,2.52-2.51,2.52Z"/>
        <circle class="cls-1" cx="805.56" cy="288.9" r="8.08"/>
        <path class="cls-1" d="M805.56,253.09c-2.22,0-4.03-1.81-4.03-4.04s1.81-4.04,4.03-4.04,4.04,1.81,4.04,4.04-1.81,4.04-4.04,4.04Z"/>
        <circle class="cls-1" cx="805.56" cy="209.2" r="2.52"/>
        <path class="cls-1" d="M805.57,175.41c-3.34,0-6.07-2.72-6.07-6.06s2.72-6.06,6.07-6.06,6.05,2.72,6.05,6.06-2.71,6.06-6.05,6.06Z"/>
        <circle class="cls-1" cx="805.56" cy="129.49" r="2.52"/>
        <circle class="cls-1" cx="805.56" cy="89.65" r="4.04"/>
        <path class="cls-1" d="M805.56,53.83c-2.22,0-4.03-1.81-4.03-4.04s1.81-4.04,4.03-4.04,4.04,1.81,4.04,4.04-1.81,4.04-4.04,4.04Z"/>
        <path class="cls-1" d="M749.03,887.16c-.28,0-.49-.22-.49-.5s.22-.5,.49-.5,.5,.23,.5,.5-.23,.5-.5,.5Z"/>
        <circle class="cls-1" cx="749.03" cy="846.8" r="1.01"/>
        <circle class="cls-1" cx="749.03" cy="806.96" r="4.04"/>
        <path class="cls-1" d="M749.03,768.11c-.56,0-1.01-.45-1.01-1.01s.45-1.01,1.01-1.01,1.02,.45,1.02,1.01-.46,1.01-1.02,1.01Z"/>
        <path class="cls-1" d="M749.03,691.44c-2.22,0-4.03-1.81-4.03-4.04s1.81-4.04,4.03-4.04,4.04,1.81,4.04,4.04-1.81,4.04-4.04,4.04Z"/>
        <path class="cls-1" d="M749.04,648.56c-.56,0-1.02-.45-1.02-1.01s.46-1.01,1.02-1.01,1,.45,1,1.01-.45,1.01-1,1.01Z"/>
        <path class="cls-1" d="M749.03,608.71c-.56,0-1.01-.45-1.01-1.01s.45-1.01,1.01-1.01,1.02,.45,1.02,1.01-.46,1.01-1.02,1.01Z"/>
        <circle class="cls-1" cx="749.03" cy="528" r="4.04"/>
        <circle class="cls-1" cx="749.03" cy="488.15" r="1.01"/>
        <path class="cls-1" d="M749.04,452.34c-2.23,0-4.05-1.81-4.05-4.04s1.82-4.04,4.05-4.04,4.03,1.81,4.03,4.04-1.81,4.04-4.03,4.04Z"/>
        <path class="cls-1" d="M749.04,412.49c-2.23,0-4.05-1.81-4.05-4.04s1.82-4.04,4.05-4.04,4.03,1.81,4.03,4.04-1.81,4.04-4.03,4.04Z"/>
        <path class="cls-1" d="M749.03,372.64c-2.22,0-4.03-1.81-4.03-4.04s1.81-4.04,4.03-4.04,4.04,1.81,4.04,4.04-1.81,4.04-4.04,4.04Z"/>
        <path class="cls-1" d="M749.03,332.78c-2.23,0-4.04-1.81-4.04-4.03s1.81-4.04,4.04-4.04,4.05,1.81,4.05,4.04-1.82,4.03-4.05,4.03Z"/>
        <path class="cls-1" d="M749.03,292.94c-2.23,0-4.04-1.81-4.04-4.04s1.81-4.04,4.04-4.04,4.05,1.81,4.05,4.04-1.82,4.04-4.05,4.04Z"/>
        <path class="cls-1" d="M749.03,253.09c-2.23,0-4.04-1.81-4.04-4.04s1.81-4.04,4.04-4.04,4.05,1.81,4.05,4.04-1.82,4.04-4.05,4.04Z"/>
        <path class="cls-1" d="M749.03,213.23c-2.23,0-4.04-1.81-4.04-4.03s1.81-4.04,4.04-4.04,4.04,1.81,4.04,4.04-1.81,4.03-4.04,4.03Z"/>
        <circle class="cls-1" cx="749.03" cy="169.35" r="4.04"/>
        <path class="cls-1" d="M749.04,133.54c-2.23,0-4.05-1.82-4.05-4.05s1.82-4.04,4.05-4.04,4.03,1.81,4.03,4.04-1.81,4.05-4.03,4.05Z"/>
        <circle class="cls-1" cx="749.03" cy="89.65" r="4.04"/>
        <circle class="cls-1" cx="749.03" cy="49.8" r="4.04"/>
        <path class="cls-1" d="M692.5,928.01c-.83,0-1.5-.68-1.5-1.5s.68-1.52,1.5-1.52,1.51,.68,1.51,1.52-.68,1.5-1.51,1.5Z"/>
        <path class="cls-1" d="M692.5,887.16c-.27,0-.5-.23-.5-.5s.23-.5,.5-.5,.51,.23,.51,.5-.23,.5-.51,.5Z"/>
        <path class="cls-1" d="M692.5,850.84c-2.22,0-4.03-1.81-4.03-4.04s1.81-4.04,4.03-4.04,4.04,1.81,4.04,4.04-1.81,4.04-4.04,4.04Z"/>
        <circle class="cls-1" cx="692.51" cy="806.96" r="4.04"/>
        <path class="cls-1" d="M692.5,771.14c-2.22,0-4.03-1.81-4.03-4.04s1.81-4.04,4.03-4.04,4.05,1.81,4.05,4.04-1.82,4.04-4.05,4.04Z"/>
        <path class="cls-1" d="M692.5,733.3c-3.34,0-6.06-2.72-6.06-6.06s2.72-6.05,6.06-6.05,6.06,2.71,6.06,6.05-2.72,6.06-6.06,6.06Z"/>
        <path class="cls-1" d="M692.51,691.44c-2.23,0-4.05-1.81-4.05-4.04s1.82-4.04,4.05-4.04,4.03,1.81,4.03,4.04-1.81,4.04-4.03,4.04Z"/>
        <path class="cls-1" d="M692.51,650.07c-1.4,0-2.53-1.13-2.53-2.52s1.14-2.52,2.53-2.52,2.51,1.13,2.51,2.52-1.13,2.52-2.51,2.52Z"/>
        <path class="cls-1" d="M692.5,609.21c-.83,0-1.5-.67-1.5-1.5s.66-1.51,1.5-1.51,1.51,.68,1.51,1.51-.68,1.5-1.51,1.5Z"/>
        <circle class="cls-1" cx="692.5" cy="488.15" r="1.01"/>
        <path class="cls-1" d="M692.5,412.49c-2.23,0-4.04-1.81-4.04-4.04s1.81-4.04,4.04-4.04,4.05,1.81,4.05,4.04-1.82,4.04-4.05,4.04Z"/>
        <circle class="cls-1" cx="692.5" cy="368.6" r="1.01"/>
        <path class="cls-1" d="M692.51,332.78c-2.23,0-4.04-1.81-4.04-4.03s1.81-4.04,4.04-4.04,4.04,1.81,4.04,4.04-1.81,4.03-4.04,4.03Z"/>
        <circle class="cls-1" cx="692.5" cy="288.9" r="4.04"/>
        <path class="cls-1" d="M692.51,257.12c-4.46,0-8.09-3.62-8.09-8.08s3.63-8.08,8.09-8.08,8.07,3.62,8.07,8.08-3.62,8.08-8.07,8.08Z"/>
        <path class="cls-1" d="M692.5,213.23c-2.23,0-4.04-1.81-4.04-4.03s1.81-4.04,4.04-4.04,4.05,1.81,4.05,4.04-1.82,4.03-4.05,4.03Z"/>
        <path class="cls-1" d="M692.51,170.36c-.56,0-1.02-.45-1.02-1.01s.46-1.01,1.02-1.01,1,.45,1,1.01-.45,1.01-1,1.01Z"/>
        <path class="cls-1" d="M635.98,1007.72c-.84,0-1.52-.68-1.52-1.51s.68-1.51,1.52-1.51,1.5,.68,1.5,1.51-.68,1.51-1.5,1.51Z"/>
        <circle class="cls-1" cx="635.97" cy="966.35" r=".5"/>
        <path class="cls-1" d="M635.98,930.54c-2.23,0-4.04-1.81-4.04-4.04s1.81-4.04,4.04-4.04,4.03,1.81,4.03,4.04-1.81,4.04-4.03,4.04Z"/>
        <path class="cls-1" d="M635.98,890.69c-2.23,0-4.05-1.81-4.05-4.04s1.82-4.04,4.05-4.04,4.03,1.81,4.03,4.04-1.81,4.04-4.03,4.04Z"/>
        <circle class="cls-1" cx="635.97" cy="846.8" r="4.04"/>
        <circle class="cls-1" cx="635.97" cy="806.96" r="4.04"/>
        <circle class="cls-1" cx="635.97" cy="767.1" r="4.04"/>
        <path class="cls-1" d="M635.98,731.29c-2.23,0-4.05-1.81-4.05-4.04s1.82-4.04,4.05-4.04,4.03,1.81,4.03,4.04-1.81,4.04-4.03,4.04Z"/>
        <circle class="cls-1" cx="635.97" cy="687.4" r="1.01"/>
        <path class="cls-1" d="M635.97,611.73c-2.22,0-4.03-1.81-4.03-4.04s1.81-4.03,4.03-4.03,4.04,1.81,4.04,4.03-1.81,4.04-4.04,4.04Z"/>
        <path class="cls-1" d="M635.97,568.86c-.55,0-1-.45-1-1.01s.45-1.01,1-1.01,1.01,.45,1.01,1.01-.44,1.01-1.01,1.01Z"/>
        <path class="cls-1" d="M635.97,532.03c-2.23,0-4.04-1.81-4.04-4.04s1.81-4.04,4.04-4.04,4.05,1.81,4.05,4.04-1.82,4.04-4.05,4.04Z"/>
        <circle class="cls-1" cx="635.97" cy="488.15" r="4.04"/>
        <path class="cls-1" d="M635.97,454.36c-3.34,0-6.06-2.72-6.06-6.06s2.72-6.06,6.06-6.06,6.07,2.72,6.07,6.06-2.72,6.06-6.07,6.06Z"/>
        <circle class="cls-1" cx="635.97" cy="408.45" r="4.04"/>
        <circle class="cls-1" cx="635.97" cy="368.6" r="4.04"/>
        <path class="cls-1" d="M635.97,332.78c-2.23,0-4.04-1.81-4.04-4.03s1.81-4.04,4.04-4.04,4.04,1.81,4.04,4.04-1.81,4.03-4.04,4.03Z"/>
        <path class="cls-1" d="M635.98,292.94c-2.23,0-4.05-1.81-4.05-4.04s1.82-4.04,4.05-4.04,4.03,1.81,4.03,4.04-1.81,4.04-4.03,4.04Z"/>
        <path class="cls-1" d="M635.97,250.06c-.56,0-1.01-.45-1.01-1.01s.45-1.01,1.01-1.01,1.02,.45,1.02,1.01-.46,1.01-1.02,1.01Z"/>
        <path class="cls-1" d="M579.45,1010.24c-2.23,0-4.05-1.81-4.05-4.04s1.82-4.04,4.05-4.04,4.03,1.81,4.03,4.04-1.81,4.04-4.03,4.04Z"/>
        <circle class="cls-1" cx="579.44" cy="966.35" r="6.06"/>
        <path class="cls-1" d="M579.45,930.54c-2.23,0-4.05-1.81-4.05-4.04s1.82-4.04,4.05-4.04,4.04,1.81,4.04,4.04-1.81,4.04-4.04,4.04Z"/>
        <path class="cls-1" d="M579.44,890.69c-2.23,0-4.04-1.81-4.04-4.04s1.81-4.04,4.04-4.04,4.05,1.81,4.05,4.04-1.82,4.04-4.05,4.04Z"/>
        <path class="cls-1" d="M579.45,850.84c-2.23,0-4.05-1.81-4.05-4.04s1.82-4.04,4.05-4.04,4.03,1.81,4.03,4.04-1.81,4.04-4.03,4.04Z"/>
        <path class="cls-1" d="M579.45,808.97c-1.12,0-2.03-.91-2.03-2.02s.91-2.02,2.03-2.02,2.01,.91,2.01,2.02-.9,2.02-2.01,2.02Z"/>
        <circle class="cls-1" cx="579.44" cy="767.1" r="8.08"/>
        <path class="cls-1" d="M579.45,731.29c-2.23,0-4.05-1.81-4.05-4.04s1.82-4.04,4.05-4.04,4.04,1.81,4.04,4.04-1.81,4.04-4.04,4.04Z"/>
        <circle class="cls-1" cx="579.44" cy="687.4" r="4.04"/>
        <path class="cls-1" d="M579.44,651.59c-2.23,0-4.04-1.81-4.04-4.04s1.81-4.04,4.04-4.04,4.05,1.81,4.05,4.04-1.82,4.04-4.05,4.04Z"/>
        <path class="cls-1" d="M579.44,611.73c-2.23,0-4.04-1.81-4.04-4.04s1.81-4.03,4.04-4.03,4.04,1.81,4.04,4.03-1.81,4.04-4.04,4.04Z"/>
        <circle class="cls-1" cx="579.44" cy="567.85" r="4.04"/>
        <path class="cls-1" d="M579.44,536.07c-4.45,0-8.07-3.62-8.07-8.06s3.62-8.09,8.07-8.09,8.08,3.63,8.08,8.09-3.62,8.06-8.08,8.06Z"/>
        <circle class="cls-1" cx="579.44" cy="488.15" r="4.04"/>
        <path class="cls-1" d="M579.45,449.31c-.56,0-1.02-.45-1.02-1.01s.46-1.01,1.02-1.01,1,.45,1,1.01-.45,1.01-1,1.01Z"/>
        <path class="cls-1" d="M579.44,372.64c-2.23,0-4.04-1.81-4.04-4.04s1.81-4.04,4.04-4.04,4.05,1.81,4.05,4.04-1.82,4.04-4.05,4.04Z"/>
        <circle class="cls-1" cx="579.44" cy="328.75" r="1.01"/>
        <path class="cls-1" d="M579.44,292.94c-2.23,0-4.04-1.81-4.04-4.04s1.81-4.04,4.04-4.04,4.05,1.81,4.05,4.04-1.82,4.04-4.05,4.04Z"/>
        <path class="cls-1" d="M579.44,253.09c-2.23,0-4.04-1.81-4.04-4.04s1.81-4.04,4.04-4.04,4.05,1.81,4.05,4.04-1.82,4.04-4.05,4.04Z"/>
        <path class="cls-1" d="M579.44,213.23c-2.23,0-4.04-1.81-4.04-4.03s1.81-4.04,4.04-4.04,4.04,1.81,4.04,4.04-1.81,4.03-4.04,4.03Z"/>
        <path class="cls-1" d="M579.45,171.37c-1.12,0-2.03-.91-2.03-2.02s.91-2.02,2.03-2.02,2.01,.91,2.01,2.02-.9,2.02-2.01,2.02Z"/>
        <path class="cls-1" d="M579.44,131.52c-1.11,0-2.02-.91-2.02-2.03s.91-2.01,2.02-2.01,2.02,.9,2.02,2.01-.91,2.03-2.02,2.03Z"/>
        <path class="cls-1" d="M579.45,93.69c-2.23,0-4.05-1.81-4.05-4.04s1.82-4.04,4.05-4.04,4.04,1.81,4.04,4.04-1.81,4.04-4.04,4.04Z"/>
        <circle class="cls-1" cx="579.45" cy="49.8" r="2.02"/>
        <path class="cls-1" d="M522.91,927.51c-.56,0-1.01-.45-1.01-1s.45-1.01,1.01-1.01,1.01,.44,1.01,1.01-.45,1-1.01,1Z"/>
        <circle class="cls-1" cx="522.91" cy="886.65" r="6.06"/>
        <path class="cls-1" d="M522.92,850.84c-2.23,0-4.05-1.81-4.05-4.04s1.82-4.04,4.05-4.04,4.03,1.81,4.03,4.04-1.81,4.04-4.03,4.04Z"/>
        <path class="cls-1" d="M522.91,651.59c-2.23,0-4.04-1.81-4.04-4.04s1.81-4.04,4.04-4.04,4.05,1.81,4.05,4.04-1.82,4.04-4.05,4.04Z"/>
        <circle class="cls-1" cx="522.91" cy="607.7" r="1.01"/>
        <circle class="cls-1" cx="522.91" cy="567.85" r="4.04"/>
        <path class="cls-1" d="M522.92,532.03c-2.23,0-4.05-1.81-4.05-4.04s1.82-4.04,4.05-4.04,4.04,1.81,4.04,4.04-1.81,4.04-4.04,4.04Z"/>
        <path class="cls-1" d="M522.91,492.19c-2.22,0-4.03-1.81-4.03-4.04s1.81-4.04,4.03-4.04,4.04,1.81,4.04,4.04-1.81,4.04-4.04,4.04Z"/>
        <path class="cls-1" d="M522.91,454.36c-3.34,0-6.06-2.72-6.06-6.06s2.72-6.06,6.06-6.06,6.07,2.72,6.07,6.06-2.72,6.06-6.07,6.06Z"/>
        <path class="cls-1" d="M522.91,412.49c-2.22,0-4.03-1.81-4.03-4.04s1.81-4.04,4.03-4.04,4.04,1.81,4.04,4.04-1.81,4.04-4.04,4.04Z"/>
        <path class="cls-1" d="M522.91,372.64c-2.23,0-4.04-1.81-4.04-4.04s1.81-4.04,4.04-4.04,4.05,1.81,4.05,4.04-1.82,4.04-4.05,4.04Z"/>
        <path class="cls-1" d="M522.91,332.78c-2.23,0-4.04-1.81-4.04-4.03s1.81-4.04,4.04-4.04,4.04,1.81,4.04,4.04-1.81,4.03-4.04,4.03Z"/>
        <path class="cls-1" d="M522.91,294.96c-3.34,0-6.06-2.72-6.06-6.06s2.72-6.06,6.06-6.06,6.07,2.72,6.07,6.06-2.72,6.06-6.07,6.06Z"/>
        <circle class="cls-1" cx="522.91" cy="249.05" r="4.04"/>
        <path class="cls-1" d="M522.91,213.23c-2.23,0-4.04-1.81-4.04-4.03s1.81-4.04,4.04-4.04,4.05,1.81,4.05,4.04-1.82,4.03-4.05,4.03Z"/>
        <path class="cls-1" d="M522.92,173.39c-2.23,0-4.05-1.81-4.05-4.04s1.82-4.04,4.05-4.04,4.03,1.81,4.03,4.04-1.81,4.04-4.03,4.04Z"/>
        <path class="cls-1" d="M522.91,133.54c-2.23,0-4.04-1.82-4.04-4.05s1.81-4.04,4.04-4.04,4.05,1.81,4.05,4.04-1.82,4.05-4.05,4.05Z"/>
        <circle class="cls-1" cx="522.91" cy="89.65" r="4.04"/>
        <circle class="cls-1" cx="522.91" cy="49.8" r="2.02"/>
        <path class="cls-1" d="M466.39,1010.24c-2.23,0-4.05-1.81-4.05-4.04s1.82-4.04,4.05-4.04,4.03,1.81,4.03,4.04-1.81,4.04-4.03,4.04Z"/>
        <path class="cls-1" d="M466.39,968.87c-1.4,0-2.53-1.13-2.53-2.52s1.14-2.52,2.53-2.52,2.51,1.13,2.51,2.52-1.13,2.52-2.51,2.52Z"/>
        <path class="cls-1" d="M466.39,928.52c-1.12,0-2.03-.9-2.03-2.01s.91-2.02,2.03-2.02,2.01,.91,2.01,2.02-.9,2.01-2.01,2.01Z"/>
        <path class="cls-1" d="M466.39,888.17c-.84,0-1.52-.68-1.52-1.51s.68-1.51,1.52-1.51,1.5,.68,1.5,1.51-.68,1.51-1.5,1.51Z"/>
        <path class="cls-1" d="M466.39,449.31c-.56,0-1.02-.45-1.02-1.01s.46-1.01,1.02-1.01,1,.45,1,1.01-.45,1.01-1,1.01Z"/>
        <path class="cls-1" d="M466.39,412.49c-2.23,0-4.05-1.81-4.05-4.04s1.82-4.04,4.05-4.04,4.03,1.81,4.03,4.04-1.81,4.04-4.03,4.04Z"/>
        <path class="cls-1" d="M466.39,370.11c-.84,0-1.52-.68-1.52-1.51s.68-1.51,1.52-1.51,1.5,.68,1.5,1.51-.68,1.51-1.5,1.51Z"/>
        <circle class="cls-1" cx="466.38" cy="209.2" r="1.01"/>
        <path class="cls-1" d="M466.38,173.39c-2.22,0-4.03-1.81-4.03-4.04s1.81-4.04,4.03-4.04,4.04,1.81,4.04,4.04-1.81,4.04-4.04,4.04Z"/>
        <path class="cls-1" d="M466.39,133.54c-2.23,0-4.05-1.82-4.05-4.05s1.82-4.04,4.05-4.04,4.03,1.81,4.03,4.04-1.81,4.05-4.03,4.05Z"/>
        <path class="cls-1" d="M466.38,91.67c-1.11,0-2.01-.91-2.01-2.02s.9-2.02,2.01-2.02,2.02,.91,2.02,2.02-.91,2.02-2.02,2.02Z"/>
        <path class="cls-1" d="M466.38,53.83c-2.23,0-4.04-1.81-4.04-4.04s1.81-4.04,4.04-4.04,4.05,1.81,4.05,4.04-1.82,4.04-4.05,4.04Z"/>
        <path class="cls-1" d="M409.85,1010.24c-2.22,0-4.03-1.81-4.03-4.04s1.81-4.04,4.03-4.04,4.04,1.81,4.04,4.04-1.81,4.04-4.04,4.04Z"/>
        <circle class="cls-1" cx="409.85" cy="966.35" r="8.08"/>
        <circle class="cls-1" cx="409.85" cy="926.51" r="4.04"/>
        <path class="cls-1" d="M409.85,890.69c-2.22,0-4.03-1.81-4.03-4.04s1.81-4.04,4.03-4.04,4.04,1.81,4.04,4.04-1.81,4.04-4.04,4.04Z"/>
        <path class="cls-1" d="M409.85,850.84c-2.23,0-4.04-1.81-4.04-4.04s1.81-4.04,4.04-4.04,4.05,1.81,4.05,4.04-1.82,4.04-4.05,4.04Z"/>
        <circle class="cls-1" cx="409.85" cy="806.96" r="4.04"/>
        <circle class="cls-1" cx="409.85" cy="767.1" r="8.08"/>
        <path class="cls-1" d="M409.86,730.28c-1.67,0-3.03-1.35-3.03-3.02s1.36-3.03,3.03-3.03,3.02,1.36,3.02,3.03-1.35,3.02-3.02,3.02Z"/>
        <circle class="cls-1" cx="409.85" cy="687.4" r="1.01"/>
        <path class="cls-1" d="M409.86,452.34c-2.23,0-4.05-1.81-4.05-4.04s1.82-4.04,4.05-4.04,4.03,1.81,4.03,4.04-1.81,4.04-4.03,4.04Z"/>
        <path class="cls-1" d="M409.85,369.61c-.56,0-1.01-.45-1.01-1.01s.45-1.01,1.01-1.01,1.02,.45,1.02,1.01-.46,1.01-1.02,1.01Z"/>
        <path class="cls-1" d="M409.85,330.76c-1.11,0-2.01-.91-2.01-2.02s.9-2.02,2.01-2.02,2.03,.91,2.03,2.02-.91,2.02-2.03,2.02Z"/>
        <path class="cls-1" d="M409.85,292.94c-2.23,0-4.04-1.81-4.04-4.04s1.81-4.04,4.04-4.04,4.05,1.81,4.05,4.04-1.82,4.04-4.05,4.04Z"/>
        <circle class="cls-1" cx="409.85" cy="249.05" r="4.04"/>
        <path class="cls-1" d="M409.85,213.23c-2.23,0-4.04-1.81-4.04-4.03s1.81-4.04,4.04-4.04,4.04,1.81,4.04,4.04-1.81,4.03-4.04,4.03Z"/>
        <circle class="cls-1" cx="409.85" cy="169.35" r="4.04"/>
        <path class="cls-1" d="M409.85,133.54c-2.22,0-4.03-1.82-4.03-4.05s1.81-4.04,4.03-4.04,4.04,1.81,4.04,4.04-1.81,4.05-4.04,4.05Z"/>
        <path class="cls-1" d="M409.85,93.69c-2.22,0-4.03-1.81-4.03-4.04s1.81-4.04,4.03-4.04,4.04,1.81,4.04,4.04-1.81,4.04-4.04,4.04Z"/>
        <path class="cls-1" d="M409.85,57.87c-4.45,0-8.08-3.62-8.08-8.08s3.62-8.08,8.08-8.08,8.09,3.62,8.09,8.08-3.63,8.08-8.09,8.08Z"/>
        <path class="cls-1" d="M353.32,927.51c-.56,0-1.01-.45-1.01-1s.45-1.01,1.01-1.01,1.01,.44,1.01,1.01-.45,1-1.01,1Z"/>
        <path class="cls-1" d="M353.32,888.17c-.83,0-1.51-.68-1.51-1.51s.68-1.51,1.51-1.51,1.52,.68,1.52,1.51-.68,1.51-1.52,1.51Z"/>
        <circle class="cls-1" cx="353.32" cy="846.8" r="3.53"/>
        <path class="cls-1" d="M353.32,810.49c-1.94,0-3.52-1.59-3.52-3.53s1.58-3.53,3.52-3.53,3.53,1.59,3.53,3.53-1.59,3.53-3.53,3.53Z"/>
        <path class="cls-1" d="M353.32,769.12c-1.11,0-2.02-.91-2.02-2.02s.91-2.02,2.02-2.02,2.03,.91,2.03,2.02-.91,2.02-2.03,2.02Z"/>
        <path class="cls-1" d="M353.33,728.26c-.56,0-1.02-.45-1.02-1s.46-1.01,1.02-1.01,1,.45,1,1.01-.45,1-1,1Z"/>
        <path class="cls-1" d="M353.33,529.01c-.56,0-1.02-.45-1.02-1s.46-1.02,1.02-1.02,1,.46,1,1.02-.45,1-1,1Z"/>
        <path class="cls-1" d="M353.33,491.68c-1.95,0-3.54-1.59-3.54-3.53s1.59-3.53,3.54-3.53,3.52,1.59,3.52,3.53-1.58,3.53-3.52,3.53Z"/>
        <path class="cls-1" d="M353.33,451.83c-1.95,0-3.54-1.59-3.54-3.53s1.59-3.53,3.54-3.53,3.52,1.59,3.52,3.53-1.58,3.53-3.52,3.53Z"/>
        <path class="cls-1" d="M353.32,411.99c-1.94,0-3.52-1.59-3.52-3.53s1.58-3.53,3.52-3.53,3.53,1.59,3.53,3.53-1.59,3.53-3.53,3.53Z"/>
        <path class="cls-1" d="M353.32,374.66c-3.33,0-6.05-2.72-6.05-6.06s2.71-6.06,6.05-6.06,6.06,2.72,6.06,6.06-2.72,6.06-6.06,6.06Z"/>
        <path class="cls-1" d="M353.33,332.28c-1.95,0-3.54-1.59-3.54-3.53s1.59-3.53,3.54-3.53,3.53,1.59,3.53,3.53-1.59,3.53-3.53,3.53Z"/>
        <path class="cls-1" d="M353.32,292.43c-1.94,0-3.52-1.59-3.52-3.53s1.58-3.53,3.52-3.53,3.53,1.59,3.53,3.53-1.59,3.53-3.53,3.53Z"/>
        <path class="cls-1" d="M353.32,256.11c-3.89,0-7.06-3.17-7.06-7.07s3.17-7.07,7.06-7.07,7.08,3.17,7.08,7.07-3.17,7.07-7.08,7.07Z"/>
        <path class="cls-1" d="M353.32,170.36c-.55,0-1-.45-1-1.01s.45-1.01,1-1.01,1.01,.44,1.01,1.01-.44,1.01-1.01,1.01Z"/>
        <path class="cls-1" d="M353.32,93.18c-1.95,0-3.53-1.59-3.53-3.53s1.59-3.53,3.53-3.53,3.54,1.59,3.54,3.53-1.59,3.53-3.54,3.53Z"/>
        <circle class="cls-1" cx="353.33" cy="49.8" r="1.01"/>
        <path class="cls-1" d="M296.8,1007.21c-.56,0-1.02-.45-1.02-1.01s.46-1.01,1.02-1.01,1,.45,1,1.01-.45,1.01-1,1.01Z"/>
        <circle class="cls-1" cx="296.79" cy="966.35" r="1.01"/>
        <path class="cls-1" d="M296.79,934.57c-4.45,0-8.08-3.62-8.08-8.08s3.62-8.07,8.08-8.07,8.08,3.62,8.08,8.07-3.62,8.08-8.08,8.08Z"/>
        <path class="cls-1" d="M296.79,889.18c-1.39,0-2.51-1.13-2.51-2.52s1.13-2.52,2.51-2.52,2.52,1.13,2.52,2.52-1.13,2.52-2.52,2.52Z"/>
        <circle class="cls-1" cx="296.79" cy="846.8" r="6.06"/>
        <path class="cls-1" d="M296.79,814.02c-3.89,0-7.06-3.17-7.06-7.07s3.17-7.07,7.06-7.07,7.07,3.17,7.07,7.07-3.17,7.07-7.07,7.07Z"/>
        <circle class="cls-1" cx="296.79" cy="767.1" r="2.52"/>
        <circle class="cls-1" cx="296.79" cy="727.26" r="5.05"/>
        <circle class="cls-1" cx="296.79" cy="687.4" r="2.52"/>
        <path class="cls-1" d="M296.79,651.59c-2.22,0-4.03-1.81-4.03-4.04s1.81-4.04,4.03-4.04,4.04,1.81,4.04,4.04-1.81,4.04-4.04,4.04Z"/>
        <path class="cls-1" d="M296.79,612.74c-2.78,0-5.05-2.26-5.05-5.05s2.26-5.04,5.05-5.04,5.05,2.26,5.05,5.04-2.26,5.05-5.05,5.05Z"/>
        <path class="cls-1" d="M296.79,570.88c-1.67,0-3.03-1.36-3.03-3.03s1.36-3.03,3.03-3.03,3.04,1.36,3.04,3.03-1.36,3.03-3.04,3.03Z"/>
        <path class="cls-1" d="M296.79,534.05c-3.34,0-6.06-2.72-6.06-6.06s2.72-6.06,6.06-6.06,6.07,2.72,6.07,6.06-2.72,6.06-6.07,6.06Z"/>
        <circle class="cls-1" cx="296.79" cy="448.3" r="1.51"/>
        <path class="cls-1" d="M296.8,416.53c-4.46,0-8.09-3.62-8.09-8.08s3.63-8.08,8.09-8.08,8.07,3.62,8.07,8.08-3.62,8.08-8.07,8.08Z"/>
        <circle class="cls-1" cx="296.79" cy="368.6" r="3.53"/>
        <circle class="cls-1" cx="296.79" cy="328.75" r="3.53"/>
        <path class="cls-1" d="M296.8,292.43c-1.95,0-3.54-1.59-3.54-3.53s1.59-3.53,3.54-3.53,3.52,1.59,3.52,3.53-1.58,3.53-3.52,3.53Z"/>
        <path class="cls-1" d="M296.8,251.57c-1.4,0-2.53-1.13-2.53-2.52s1.14-2.52,2.53-2.52,2.51,1.13,2.51,2.52-1.13,2.52-2.51,2.52Z"/>
        <circle class="cls-1" cx="296.79" cy="209.19" r="1.51"/>
        <circle class="cls-1" cx="296.79" cy="169.35" r=".5"/>
        <path class="cls-1" d="M240.27,1007.72c-.84,0-1.52-.68-1.52-1.51s.68-1.51,1.52-1.51,1.5,.68,1.5,1.51-.68,1.51-1.5,1.51Z"/>
        <circle class="cls-1" cx="240.26" cy="966.35" r="3.03"/>
        <path class="cls-1" d="M240.26,887.66c-.56,0-1.01-.45-1.01-1.01s.45-1.01,1.01-1.01,1.02,.45,1.02,1.01-.46,1.01-1.02,1.01Z"/>
        <circle class="cls-1" cx="240.26" cy="846.8" r="3.03"/>
        <path class="cls-1" d="M240.26,807.96c-.55,0-1-.45-1-1.01s.45-1.01,1-1.01,1.01,.44,1.01,1.01-.45,1.01-1.01,1.01Z"/>
        <path class="cls-1" d="M240.27,734.31c-3.9,0-7.08-3.17-7.08-7.06s3.17-7.07,7.08-7.07,7.06,3.17,7.06,7.07-3.17,7.06-7.06,7.06Z"/>
        <circle class="cls-1" cx="240.26" cy="687.4" r="3.03"/>
        <path class="cls-1" d="M240.27,651.59c-2.23,0-4.05-1.81-4.05-4.04s1.82-4.04,4.05-4.04,4.03,1.81,4.03,4.04-1.81,4.04-4.03,4.04Z"/>
        <path class="cls-1" d="M240.26,614.76c-3.9,0-7.07-3.17-7.07-7.06s3.17-7.07,7.07-7.07,7.07,3.17,7.07,7.07-3.17,7.06-7.07,7.06Z"/>
        <path class="cls-1" d="M240.26,574.92c-3.89,0-7.06-3.17-7.06-7.07s3.17-7.07,7.06-7.07,7.07,3.17,7.07,7.07-3.17,7.07-7.07,7.07Z"/>
        <circle class="cls-1" cx="240.26" cy="528" r="3.53"/>
        <circle class="cls-1" cx="240.27" cy="488.15" r="7.07"/>
        <path class="cls-1" d="M240.26,455.36c-3.9,0-7.07-3.17-7.07-7.07s3.17-7.07,7.07-7.07,7.08,3.17,7.08,7.07-3.17,7.07-7.08,7.07Z"/>
        <path class="cls-1" d="M240.27,411.48c-1.67,0-3.04-1.36-3.04-3.03s1.36-3.03,3.04-3.03,3.02,1.36,3.02,3.03-1.35,3.03-3.02,3.03Z"/>
        <path class="cls-1" d="M240.26,371.63c-1.66,0-3.02-1.36-3.02-3.03s1.35-3.03,3.02-3.03,3.03,1.36,3.03,3.03-1.36,3.03-3.03,3.03Z"/>
        <path class="cls-1" d="M240.26,331.78c-1.67,0-3.03-1.36-3.03-3.04s1.36-3.03,3.03-3.03,3.04,1.36,3.04,3.03-1.36,3.04-3.04,3.04Z"/>
        <circle class="cls-1" cx="240.26" cy="288.9" r="1.01"/>
        <path class="cls-1" d="M240.26,213.23c-2.22,0-4.03-1.81-4.03-4.03s1.81-4.04,4.03-4.04,4.04,1.81,4.04,4.04-1.81,4.03-4.04,4.03Z"/>
        <path class="cls-1" d="M240.27,176.42c-3.9,0-7.08-3.17-7.08-7.07s3.17-7.07,7.08-7.07,7.06,3.17,7.06,7.07-3.17,7.07-7.06,7.07Z"/>
        <path class="cls-1" d="M240.27,103.78c-7.79,0-14.13-6.34-14.13-14.13s6.34-14.13,14.13-14.13,14.12,6.34,14.12,14.13-6.34,14.13-14.12,14.13Z"/>
        <path class="cls-1" d="M183.72,1007.21c-.55,0-1-.45-1-1.01s.45-1.01,1-1.01,1.01,.44,1.01,1.01-.45,1.01-1.01,1.01Z"/>
        <path class="cls-1" d="M183.73,972.41c-3.34,0-6.06-2.72-6.06-6.06s2.72-6.06,6.06-6.06,6.05,2.72,6.05,6.06-2.71,6.06-6.05,6.06Z"/>
        <circle class="cls-1" cx="183.72" cy="926.5" r="9.09"/>
        <circle class="cls-1" cx="183.72" cy="886.65" r="1.01"/>
        <path class="cls-1" d="M183.73,769.12c-1.12,0-2.03-.91-2.03-2.02s.91-2.02,2.03-2.02,2.01,.91,2.01,2.02-.9,2.02-2.01,2.02Z"/>
        <path class="cls-1" d="M183.72,728.26c-.55,0-1-.45-1-1s.45-1.01,1-1.01,1.01,.44,1.01,1.01-.45,1-1.01,1Z"/>
        <path class="cls-1" d="M183.72,690.94c-1.95,0-3.53-1.59-3.53-3.53s1.59-3.53,3.53-3.53,3.54,1.59,3.54,3.53-1.59,3.53-3.54,3.53Z"/>
        <circle class="cls-1" cx="183.72" cy="607.69" r="2.52"/>
        <circle class="cls-1" cx="183.72" cy="567.85" r="2.52"/>
        <path class="cls-1" d="M183.72,535.06c-3.9,0-7.07-3.17-7.07-7.07s3.17-7.06,7.07-7.06,7.07,3.17,7.07,7.06-3.17,7.07-7.07,7.07Z"/>
        <path class="cls-1" d="M183.72,490.68c-1.39,0-2.51-1.13-2.51-2.52s1.13-2.52,2.51-2.52,2.52,1.13,2.52,2.52-1.13,2.52-2.52,2.52Z"/>
        <path class="cls-1" d="M183.73,450.82c-1.4,0-2.53-1.13-2.53-2.52s1.14-2.52,2.53-2.52,2.51,1.13,2.51,2.52-1.13,2.52-2.51,2.52Z"/>
        <path class="cls-1" d="M183.73,417.54c-5.01,0-9.1-4.08-9.1-9.09s4.08-9.09,9.1-9.09,9.08,4.08,9.08,9.09-4.07,9.09-9.08,9.09Z"/>
        <path class="cls-1" d="M183.72,334.8c-3.33,0-6.05-2.72-6.05-6.06s2.71-6.06,6.05-6.06,6.06,2.72,6.06,6.06-2.72,6.06-6.06,6.06Z"/>
        <path class="cls-1" d="M183.73,295.97c-3.9,0-7.08-3.17-7.08-7.07s3.17-7.07,7.08-7.07,7.06,3.17,7.06,7.07-3.17,7.07-7.06,7.07Z"/>
        <circle class="cls-1" cx="183.73" cy="249.05" r="3.03"/>
        <circle class="cls-1" cx="183.72" cy="209.2" r="9.09"/>
        <circle class="cls-1" cx="183.72" cy="169.35" r="5.05"/>
        <path class="cls-1" d="M183.72,131.52c-1.11,0-2.02-.91-2.02-2.03s.91-2.01,2.02-2.01,2.02,.9,2.02,2.01-.91,2.03-2.02,2.03Z"/>
        <path class="cls-1" d="M183.73,91.67c-1.12,0-2.03-.91-2.03-2.02s.91-2.02,2.03-2.02,2.01,.91,2.01,2.02-.9,2.02-2.01,2.02Z"/>
        <circle class="cls-1" cx="183.72" cy="49.8" r="2.02"/>
        <circle class="cls-1" cx="127.19" cy="886.65" r="6.06"/>
        <path class="cls-1" d="M127.19,851.85c-2.78,0-5.05-2.26-5.05-5.05s2.26-5.05,5.05-5.05,5.06,2.26,5.06,5.05-2.27,5.05-5.06,5.05Z"/>
        <path class="cls-1" d="M127.2,812c-2.79,0-5.06-2.26-5.06-5.05s2.27-5.05,5.06-5.05,5.04,2.26,5.04,5.05-2.26,5.05-5.04,5.05Z"/>
        <path class="cls-1" d="M127.19,772.15c-2.78,0-5.05-2.26-5.05-5.05s2.26-5.05,5.05-5.05,5.06,2.26,5.06,5.05-2.27,5.05-5.06,5.05Z"/>
        <path class="cls-1" d="M127.19,733.3c-3.33,0-6.05-2.72-6.05-6.06s2.71-6.05,6.05-6.05,6.06,2.71,6.06,6.05-2.72,6.06-6.06,6.06Z"/>
        <circle class="cls-1" cx="127.19" cy="687.4" r="6.06"/>
        <path class="cls-1" d="M127.2,656.63c-5.01,0-9.1-4.08-9.1-9.09s4.08-9.09,9.1-9.09,9.08,4.08,9.08,9.09-4.07,9.09-9.08,9.09Z"/>
        <circle class="cls-1" cx="127.19" cy="607.7" r="6.06"/>
        <path class="cls-1" d="M127.19,492.19c-2.23,0-4.04-1.81-4.04-4.04s1.81-4.04,4.04-4.04,4.05,1.81,4.05,4.04-1.82,4.04-4.05,4.04Z"/>
        <path class="cls-1" d="M127.2,454.36c-3.34,0-6.07-2.72-6.07-6.06s2.72-6.06,6.07-6.06,6.05,2.72,6.05,6.06-2.71,6.06-6.05,6.06Z"/>
        <path class="cls-1" d="M127.19,412.49c-2.22,0-4.03-1.81-4.03-4.04s1.81-4.04,4.03-4.04,4.04,1.81,4.04,4.04-1.81,4.04-4.04,4.04Z"/>
        <circle class="cls-1" cx="127.19" cy="368.6" r="8.08"/>
        <path class="cls-1" d="M127.19,335.82c-3.9,0-7.07-3.17-7.07-7.08s3.17-7.07,7.07-7.07,7.08,3.17,7.08,7.07-3.17,7.08-7.08,7.08Z"/>
        <path class="cls-1" d="M127.2,292.94c-2.23,0-4.05-1.81-4.05-4.04s1.82-4.04,4.05-4.04,4.03,1.81,4.03,4.04-1.81,4.04-4.03,4.04Z"/>
        <path class="cls-1" d="M127.19,253.09c-2.23,0-4.04-1.81-4.04-4.04s1.81-4.04,4.04-4.04,4.05,1.81,4.05,4.04-1.82,4.04-4.05,4.04Z"/>
        <path class="cls-1" d="M127.19,213.23c-2.23,0-4.04-1.81-4.04-4.03s1.81-4.04,4.04-4.04,4.05,1.81,4.05,4.04-1.82,4.03-4.05,4.03Z"/>
        <path class="cls-1" d="M127.19,183.48c-7.79,0-14.12-6.34-14.12-14.13s6.34-14.13,14.12-14.13,14.13,6.34,14.13,14.13-6.34,14.13-14.13,14.13Z"/>
        <path class="cls-1" d="M127.19,137.57c-4.45,0-8.08-3.62-8.08-8.08s3.62-8.08,8.08-8.08,8.09,3.62,8.09,8.08-3.63,8.08-8.09,8.08Z"/>
        <circle class="cls-1" cx="127.2" cy="89.65" r="8.08"/>
        <circle class="cls-1" cx="127.19" cy="49.8" r="4.04"/>
        <path class="cls-1" d="M70.66,1007.21c-.56,0-1.01-.45-1.01-1.01s.45-1.01,1.01-1.01,1.02,.45,1.02,1.01-.46,1.01-1.02,1.01Z"/>
        <path class="cls-1" d="M70.67,968.37c-1.12,0-2.03-.91-2.03-2.02s.91-2.02,2.03-2.02,2.01,.91,2.01,2.02-.9,2.02-2.01,2.02Z"/>
        <path class="cls-1" d="M70.66,930.03c-1.94,0-3.52-1.58-3.52-3.52s1.58-3.53,3.52-3.53,3.53,1.59,3.53,3.53-1.59,3.52-3.53,3.52Z"/>
        <circle class="cls-1" cx="70.66" cy="886.65" r="3.53"/>
        <path class="cls-1" d="M70.67,848.31c-.83,0-1.51-.68-1.51-1.51s.68-1.51,1.51-1.51,1.5,.68,1.5,1.51-.68,1.51-1.5,1.51Z"/>
        <path class="cls-1" d="M70.67,774.17c-3.9,0-7.08-3.17-7.08-7.07s3.17-7.07,7.08-7.07,7.06,3.17,7.06,7.07-3.17,7.07-7.06,7.07Z"/>
        <path class="cls-1" d="M70.66,734.31c-3.9,0-7.07-3.17-7.07-7.06s3.17-7.07,7.07-7.07,7.08,3.17,7.08,7.07-3.17,7.06-7.08,7.06Z"/>
        <path class="cls-1" d="M70.67,691.44c-2.23,0-4.05-1.81-4.05-4.04s1.82-4.04,4.05-4.04,4.03,1.81,4.03,4.04-1.81,4.04-4.03,4.04Z"/>
        <path class="cls-1" d="M70.66,651.59c-2.23,0-4.04-1.81-4.04-4.04s1.81-4.04,4.04-4.04,4.05,1.81,4.05,4.04-1.82,4.04-4.05,4.04Z"/>
        <path class="cls-1" d="M70.66,614.76c-3.89,0-7.06-3.17-7.06-7.06s3.17-7.07,7.06-7.07,7.07,3.17,7.07,7.07-3.17,7.06-7.07,7.06Z"/>
        <circle class="cls-1" cx="70.66" cy="567.85" r="4.04"/>
        <circle class="cls-1" cx="70.66" cy="528" r="4.04"/>
        <path class="cls-1" d="M70.67,492.19c-2.23,0-4.05-1.81-4.05-4.04s1.82-4.04,4.05-4.04,4.03,1.81,4.03,4.04-1.81,4.04-4.03,4.04Z"/>
        <path class="cls-1" d="M70.67,452.34c-2.23,0-4.05-1.81-4.05-4.04s1.82-4.04,4.05-4.04,4.03,1.81,4.03,4.04-1.81,4.04-4.03,4.04Z"/>
        <circle class="cls-1" cx="70.66" cy="408.45" r="1.01"/>
        <path class="cls-1" d="M70.66,251.57c-1.39,0-2.51-1.13-2.51-2.52s1.13-2.52,2.51-2.52,2.52,1.13,2.52,2.52-1.13,2.52-2.52,2.52Z"/>
        <circle class="cls-1" cx="70.66" cy="288.9" r="1.01"/>
        <path class="cls-1" d="M70.67,216.27c-3.9,0-7.08-3.17-7.08-7.07s3.17-7.07,7.08-7.07,7.06,3.17,7.06,7.07-3.17,7.07-7.06,7.07Z"/>
        <circle class="cls-1" cx="70.66" cy="169.35" r="3.53"/>
        <path class="cls-1" d="M70.67,133.03c-1.95,0-3.54-1.59-3.54-3.53s1.59-3.52,3.54-3.52,3.52,1.58,3.52,3.52-1.58,3.53-3.52,3.53Z"/>
        <circle class="cls-1" cx="70.66" cy="89.65" r="3.53"/>
        <path class="cls-1" d="M70.66,57.87c-4.45,0-8.08-3.62-8.08-8.08s3.62-8.08,8.08-8.08,8.09,3.62,8.09,8.08-3.63,8.08-8.09,8.08Z"/>
        <circle class="cls-1" cx="14.13" cy="966.35" r="2.52"/>
        <path class="cls-1" d="M14.13,935.58c-5,0-9.08-4.08-9.08-9.09s4.07-9.09,9.08-9.09,9.09,4.08,9.09,9.09-4.08,9.09-9.09,9.09Z"/>
        <path class="cls-1" d="M14.13,890.69c-2.23,0-4.04-1.81-4.04-4.04s1.81-4.04,4.04-4.04,4.05,1.81,4.05,4.04-1.82,4.04-4.05,4.04Z"/>
        <path class="cls-1" d="M14.13,850.84c-2.22,0-4.03-1.81-4.03-4.04s1.81-4.04,4.03-4.04,4.04,1.81,4.04,4.04-1.81,4.04-4.04,4.04Z"/>
        <circle class="cls-1" cx="14.13" cy="806.96" r="6.06"/>
        <path class="cls-1" d="M14.13,771.14c-2.23,0-4.04-1.81-4.04-4.04s1.81-4.04,4.04-4.04,4.05,1.81,4.05,4.04-1.82,4.04-4.05,4.04Z"/>
        <circle class="cls-1" cx="14.13" cy="727.25" r="1.51"/>
        <path class="cls-1" d="M14.14,689.93c-1.4,0-2.53-1.13-2.53-2.52s1.14-2.52,2.53-2.52,2.52,1.13,2.52,2.52-1.13,2.52-2.52,2.52Z"/>
        <path class="cls-1" d="M14.13,655.62c-4.45,0-8.08-3.62-8.08-8.08s3.62-8.08,8.08-8.08,8.09,3.62,8.09,8.08-3.63,8.08-8.09,8.08Z"/>
        <circle class="cls-1" cx="14.13" cy="567.85" r="2.52"/>
        <path class="cls-1" d="M14.13,529.51c-.83,0-1.5-.68-1.5-1.51s.68-1.51,1.5-1.51,1.51,.68,1.51,1.51-.68,1.51-1.51,1.51Z"/>
        <path class="cls-1" d="M14.13,494.71c-3.61,0-6.55-2.94-6.55-6.56s2.94-6.56,6.55-6.56,6.56,2.94,6.56,6.56-2.94,6.56-6.56,6.56Z"/>
        <circle class="cls-1" cx="14.13" cy="448.3" r="6.56"/>
        <path class="cls-1" d="M14.13,415.02c-3.61,0-6.55-2.94-6.55-6.56s2.94-6.56,6.55-6.56,6.56,2.94,6.56,6.56-2.94,6.56-6.56,6.56Z"/>
        <path class="cls-1" d="M14.13,377.69c-5,0-9.08-4.08-9.08-9.09s4.07-9.09,9.08-9.09,9.09,4.08,9.09,9.09-4.08,9.09-9.09,9.09Z"/>
        <path class="cls-1" d="M14.14,332.78c-2.23,0-4.04-1.81-4.04-4.03s1.81-4.04,4.04-4.04,4.03,1.81,4.03,4.04-1.81,4.03-4.03,4.03Z"/>
        <circle class="cls-1" cx="14.13" cy="288.9" r="1.01"/>
        <path class="cls-1" d="M14.13,218.29c-5.01,0-9.09-4.08-9.09-9.09s4.08-9.09,9.09-9.09,9.1,4.08,9.1,9.09-4.08,9.09-9.1,9.09Z"/>
        <path class="cls-1" d="M14.13,183.48C6.35,183.48,0,177.14,0,169.35s6.34-14.13,14.12-14.13,14.13,6.34,14.13,14.13-6.34,14.13-14.13,14.13Z"/>
        <path class="cls-1" d="M14.13,133.54c-2.23,0-4.04-1.82-4.04-4.05s1.81-4.04,4.04-4.04,4.04,1.81,4.04,4.04-1.81,4.05-4.04,4.05Z"/>
        <circle class="cls-1" cx="14.13" cy="89.65" r="14.13"/>
        <circle class="cls-1" cx="14.13" cy="49.8" r="14.13"/>
        <path class="cls-1" d="M183.73,651.59c-2.23,0-4.05-1.81-4.05-4.04s1.82-4.04,4.05-4.04,4.03,1.81,4.03,4.04-1.81,4.04-4.03,4.04Z"/>
      </g>
      <g>
        <circle class="cls-1" cx="1542.75" cy="691.58" r="1.01"/>
        <path class="cls-1" d="M1542.75,453.99c-.83,0-1.51-.68-1.51-1.5s.68-1.51,1.51-1.51,1.51,.68,1.51,1.51-.68,1.5-1.51,1.5Z"/>
        <circle class="cls-1" cx="1542.75" cy="412.63" r="6.06"/>
        <circle class="cls-1" cx="1542.75" cy="213.38" r="4.04"/>
        <circle class="cls-1" cx="1542.75" cy="133.68" r="4.04"/>
        <circle class="cls-1" cx="1542.75" cy="93.83" r="4.04"/>
        <circle class="cls-1" cx="1599.28" cy="691.58" r="4.04"/>
        <circle class="cls-1" cx="1599.28" cy="651.74" r="1.01"/>
        <path class="cls-1" d="M1599.28,456.51c-2.23,0-4.04-1.81-4.04-4.03s1.81-4.05,4.04-4.05,4.04,1.82,4.04,4.05-1.81,4.03-4.04,4.03Z"/>
        <circle class="cls-1" cx="1599.28" cy="412.63" r="1.01"/>
        <path class="cls-1" d="M1599.28,376.83c-2.23,0-4.04-1.82-4.04-4.05s1.81-4.04,4.04-4.04,4.04,1.81,4.04,4.04-1.81,4.05-4.04,4.05Z"/>
        <circle class="cls-1" cx="1599.28" cy="332.93" r="1.01"/>
        <circle class="cls-1" cx="1599.28" cy="213.38" r="4.04"/>
        <circle class="cls-1" cx="1599.28" cy="173.53" r="6.06"/>
        <circle class="cls-1" cx="1599.28" cy="14.13" r="4.04"/>
        <circle class="cls-1" cx="1655.81" cy="691.58" r="1.01"/>
        <circle class="cls-1" cx="1655.81" cy="611.88" r="4.04"/>
        <path class="cls-1" d="M1655.81,573.04c-.56,0-1.01-.45-1.01-1s.45-1.02,1.01-1.02,1.01,.46,1.01,1.02-.45,1-1.01,1Z"/>
        <path class="cls-1" d="M1655.81,456.51c-2.23,0-4.04-1.81-4.04-4.03s1.81-4.05,4.04-4.05,4.04,1.82,4.04,4.05-1.81,4.03-4.04,4.03Z"/>
        <circle class="cls-1" cx="1655.81" cy="412.63" r="8.08"/>
        <circle class="cls-1" cx="1655.81" cy="332.93" r="2.52"/>
        <circle class="cls-1" cx="1655.81" cy="293.08" r="1.01"/>
        <circle class="cls-1" cx="1712.34" cy="731.44" r="4.04"/>
        <circle class="cls-1" cx="1712.34" cy="611.88" r="4.04"/>
        <circle class="cls-1" cx="1712.34" cy="572.03" r="4.04"/>
        <circle class="cls-1" cx="1712.34" cy="532.19" r="2.02"/>
        <circle class="cls-1" cx="1712.34" cy="492.33" r="4.04"/>
        <path class="cls-1" d="M1712.34,456.51c-2.23,0-4.04-1.81-4.04-4.03s1.81-4.05,4.04-4.05,4.04,1.82,4.04,4.05-1.81,4.03-4.04,4.03Z"/>
        <circle class="cls-1" cx="1712.34" cy="412.63" r="4.04"/>
        <path class="cls-1" d="M1712.34,257.26c-2.23,0-4.04-1.81-4.04-4.03s1.81-4.05,4.04-4.05,4.04,1.82,4.04,4.05-1.81,4.03-4.04,4.03Z"/>
        <circle class="cls-1" cx="1712.34" cy="213.38" r="4.04"/>
        <path class="cls-1" d="M1712.34,176.05c-1.39,0-2.52-1.13-2.52-2.52s1.13-2.51,2.52-2.51,2.52,1.13,2.52,2.51-1.13,2.52-2.52,2.52Z"/>
        <circle class="cls-1" cx="1712.34" cy="133.68" r="6.06"/>
        <circle class="cls-1" cx="1768.88" cy="850.99" r="4.04"/>
        <circle class="cls-1" cx="1768.88" cy="811.13" r="2.02"/>
        <circle class="cls-1" cx="1768.88" cy="492.33" r="1.01"/>
        <circle class="cls-1" cx="1768.88" cy="213.38" r="1.01"/>
        <circle class="cls-1" cx="1768.88" cy="173.53" r="4.04"/>
        <circle class="cls-1" cx="1768.88" cy="133.68" r="4.04"/>
        <circle class="cls-1" cx="1768.88" cy="93.83" r="4.04"/>
        <circle class="cls-1" cx="1768.88" cy="53.99" r="2.52"/>
        <circle class="cls-1" cx="1768.88" cy="14.13" r="4.04"/>
        <circle class="cls-1" cx="1825.41" cy="811.13" r="4.04"/>
        <path class="cls-1" d="M1825.41,772.3c-.56,0-1.01-.45-1.01-1.01s.45-1.02,1.01-1.02,1.01,.46,1.01,1.02-.45,1.01-1.01,1.01Z"/>
        <circle class="cls-1" cx="1825.41" cy="532.19" r="4.04"/>
        <circle class="cls-1" cx="1825.41" cy="492.33" r="2.02"/>
        <circle class="cls-1" cx="1825.41" cy="293.08" r="1.01"/>
        <path class="cls-1" d="M1825.41,257.26c-2.23,0-4.04-1.81-4.04-4.03s1.81-4.05,4.04-4.05,4.04,1.82,4.04,4.05-1.81,4.03-4.04,4.03Z"/>
        <circle class="cls-1" cx="1825.41" cy="213.38" r="1.01"/>
        <circle class="cls-1" cx="1881.94" cy="811.13" r="1.01"/>
        <path class="cls-1" d="M1881.94,775.32c-2.23,0-4.04-1.81-4.04-4.04s1.81-4.03,4.04-4.03,4.04,1.81,4.04,4.03-1.81,4.04-4.04,4.04Z"/>
        <circle class="cls-1" cx="1881.94" cy="572.03" r="4.04"/>
        <circle class="cls-1" cx="1881.94" cy="532.19" r="6.06"/>
        <circle class="cls-1" cx="1881.94" cy="492.33" r="4.04"/>
        <circle class="cls-1" cx="1881.94" cy="452.49" r="2.52"/>
        <circle class="cls-1" cx="1881.94" cy="412.63" r="4.04"/>
        <path class="cls-1" d="M1881.94,375.81c-1.67,0-3.03-1.36-3.03-3.03s1.36-3.02,3.03-3.02,3.03,1.35,3.03,3.02-1.36,3.03-3.03,3.03Z"/>
        <circle class="cls-1" cx="1881.94" cy="332.93" r="2.02"/>
        <circle class="cls-1" cx="1881.94" cy="293.08" r="2.52"/>
        <path class="cls-1" d="M1881.94,261.31c-4.45,0-8.08-3.62-8.08-8.08s3.62-8.09,8.08-8.09,8.08,3.63,8.08,8.09-3.62,8.08-8.08,8.08Z"/>
        <circle class="cls-1" cx="1881.94" cy="213.38" r="4.04"/>
        <path class="cls-1" d="M1881.94,176.05c-1.39,0-2.52-1.13-2.52-2.52s1.13-2.51,2.52-2.51,2.52,1.13,2.52,2.51-1.13,2.52-2.52,2.52Z"/>
        <circle class="cls-1" cx="1881.94" cy="133.68" r="6.06"/>
        <circle class="cls-1" cx="1881.94" cy="93.83" r="2.52"/>
        <circle class="cls-1" cx="1881.94" cy="53.99" r="4.04"/>
        <circle class="cls-1" cx="1881.94" cy="14.13" r="4.04"/>
        <circle class="cls-1" cx="1938.47" cy="850.99" r=".5"/>
        <circle class="cls-1" cx="1938.47" cy="811.13" r="1.01"/>
        <path class="cls-1" d="M1938.47,775.32c-2.23,0-4.04-1.81-4.04-4.04s1.81-4.03,4.04-4.03,4.04,1.81,4.04,4.03-1.81,4.04-4.04,4.04Z"/>
        <circle class="cls-1" cx="1938.47" cy="731.44" r="1.01"/>
        <circle class="cls-1" cx="1938.47" cy="651.74" r="4.04"/>
        <path class="cls-1" d="M1938.47,573.04c-.56,0-1.01-.45-1.01-1s.45-1.02,1.01-1.02,1.01,.46,1.01,1.02-.45,1-1.01,1Z"/>
        <circle class="cls-1" cx="1938.47" cy="492.33" r="4.04"/>
        <path class="cls-1" d="M1938.47,453.49c-.56,0-1.01-.45-1.01-1.01s.45-1,1.01-1,1.01,.45,1.01,1-.45,1.01-1.01,1.01Z"/>
        <circle class="cls-1" cx="1938.47" cy="412.63" r="4.04"/>
        <path class="cls-1" d="M1938.47,376.83c-2.23,0-4.04-1.82-4.04-4.05s1.81-4.04,4.04-4.04,4.04,1.81,4.04,4.04-1.81,4.05-4.04,4.05Z"/>
        <circle class="cls-1" cx="1938.47" cy="332.93" r="4.04"/>
        <circle class="cls-1" cx="1938.47" cy="293.08" r="4.04"/>
        <path class="cls-1" d="M1938.47,257.26c-2.23,0-4.04-1.81-4.04-4.03s1.81-4.05,4.04-4.05,4.04,1.82,4.04,4.05-1.81,4.03-4.04,4.03Z"/>
        <circle class="cls-1" cx="1938.47" cy="213.38" r="4.04"/>
        <circle class="cls-1" cx="1938.47" cy="173.53" r="8.08"/>
        <circle class="cls-1" cx="1938.47" cy="133.68" r="8.08"/>
        <circle class="cls-1" cx="1938.47" cy="93.83" r="4.04"/>
        <circle class="cls-1" cx="1938.47" cy="53.99" r="4.04"/>
        <circle class="cls-1" cx="1938.47" cy="14.13" r="4.04"/>
        <circle class="cls-1" cx="1995" cy="890.83" r="1.51"/>
        <circle class="cls-1" cx="1995" cy="850.99" r=".5"/>
        <circle class="cls-1" cx="1995" cy="811.13" r="4.04"/>
        <path class="cls-1" d="M1995,775.32c-2.23,0-4.04-1.81-4.04-4.04s1.81-4.03,4.04-4.03,4.04,1.81,4.04,4.03-1.81,4.04-4.04,4.04Z"/>
        <circle class="cls-1" cx="1995" cy="731.44" r="4.04"/>
        <circle class="cls-1" cx="1995" cy="691.58" r="6.06"/>
        <circle class="cls-1" cx="1995" cy="651.74" r="4.04"/>
        <circle class="cls-1" cx="1995" cy="611.88" r="2.52"/>
        <circle class="cls-1" cx="1995" cy="572.03" r="1.51"/>
        <path class="cls-1" d="M1995,453.49c-.56,0-1.01-.45-1.01-1.01s.45-1,1.01-1,1.01,.45,1.01,1-.44,1.01-1.01,1.01Z"/>
        <path class="cls-1" d="M1995,376.83c-2.23,0-4.04-1.82-4.04-4.05s1.81-4.04,4.04-4.04,4.04,1.81,4.04,4.04-1.81,4.05-4.04,4.05Z"/>
        <circle class="cls-1" cx="1995" cy="332.93" r="1.01"/>
        <circle class="cls-1" cx="1995" cy="293.08" r="4.04"/>
        <path class="cls-1" d="M1995,257.26c-2.23,0-4.04-1.81-4.04-4.03s1.81-4.05,4.04-4.05,4.04,1.82,4.04,4.05-1.81,4.03-4.04,4.03Z"/>
        <circle class="cls-1" cx="1995" cy="213.38" r="8.08"/>
        <circle class="cls-1" cx="1995" cy="173.53" r="4.04"/>
        <circle class="cls-1" cx="1995" cy="133.68" r="1.01"/>
        <path class="cls-1" d="M2051.53,972.04c-.83,0-1.51-.68-1.51-1.5s.68-1.52,1.51-1.52,1.51,.68,1.51,1.52-.68,1.5-1.51,1.5Z"/>
        <circle class="cls-1" cx="2051.53" cy="930.69" r=".5"/>
        <circle class="cls-1" cx="2051.53" cy="890.83" r="4.04"/>
        <circle class="cls-1" cx="2051.53" cy="850.99" r="4.04"/>
        <circle class="cls-1" cx="2051.53" cy="811.13" r="4.04"/>
        <circle class="cls-1" cx="2051.53" cy="691.58" r="4.04"/>
        <circle class="cls-1" cx="2051.53" cy="651.74" r="1.01"/>
        <circle class="cls-1" cx="2051.53" cy="572.03" r="4.04"/>
        <circle class="cls-1" cx="2051.53" cy="532.19" r="1.01"/>
        <circle class="cls-1" cx="2051.53" cy="492.33" r="4.04"/>
        <path class="cls-1" d="M2051.53,456.51c-2.23,0-4.04-1.81-4.04-4.03s1.81-4.05,4.04-4.05,4.04,1.82,4.04,4.05-1.81,4.03-4.04,4.03Z"/>
        <circle class="cls-1" cx="2051.53" cy="412.63" r="6.06"/>
        <path class="cls-1" d="M2051.53,376.83c-2.23,0-4.04-1.82-4.04-4.05s1.81-4.04,4.04-4.04,4.04,1.81,4.04,4.04-1.81,4.05-4.04,4.05Z"/>
        <circle class="cls-1" cx="2051.53" cy="332.93" r="4.04"/>
        <circle class="cls-1" cx="2051.53" cy="293.08" r="4.04"/>
        <path class="cls-1" d="M2051.53,257.26c-2.23,0-4.04-1.81-4.04-4.03s1.81-4.05,4.04-4.05,4.04,1.82,4.04,4.05-1.81,4.03-4.04,4.03Z"/>
        <circle class="cls-1" cx="2051.53" cy="213.38" r="1.01"/>
        <path class="cls-1" d="M2108.06,974.58c-2.23,0-4.04-1.81-4.04-4.04s1.81-4.05,4.04-4.05,4.04,1.82,4.04,4.05-1.81,4.04-4.04,4.04Z"/>
        <circle class="cls-1" cx="2108.06" cy="930.69" r="6.06"/>
        <circle class="cls-1" cx="2108.06" cy="890.83" r="4.04"/>
        <circle class="cls-1" cx="2108.06" cy="850.99" r="4.04"/>
        <circle class="cls-1" cx="2108.06" cy="811.13" r="4.04"/>
        <path class="cls-1" d="M2108.06,773.31c-1.11,0-2.02-.91-2.02-2.02s.91-2.03,2.02-2.03,2.02,.91,2.02,2.03-.91,2.02-2.02,2.02Z"/>
        <circle class="cls-1" cx="2108.06" cy="611.88" r="4.04"/>
        <circle class="cls-1" cx="2108.06" cy="572.03" r="4.04"/>
        <circle class="cls-1" cx="2108.06" cy="532.19" r="4.04"/>
        <path class="cls-1" d="M2108.06,456.51c-2.23,0-4.04-1.81-4.04-4.03s1.81-4.05,4.04-4.05,4.04,1.82,4.04,4.05-1.81,4.03-4.04,4.03Z"/>
        <circle class="cls-1" cx="2108.06" cy="412.63" r="1.01"/>
        <circle class="cls-1" cx="2108.06" cy="332.93" r="4.04"/>
        <circle class="cls-1" cx="2108.06" cy="293.08" r="1.01"/>
        <path class="cls-1" d="M2108.06,257.26c-2.23,0-4.04-1.81-4.04-4.03s1.81-4.05,4.04-4.05,4.04,1.82,4.04,4.05-1.81,4.03-4.04,4.03Z"/>
        <circle class="cls-1" cx="2108.06" cy="213.38" r="4.04"/>
        <path class="cls-1" d="M2108.06,182.61c-5.01,0-9.09-4.07-9.09-9.08s4.08-9.1,9.09-9.1,9.09,4.08,9.09,9.1-4.08,9.08-9.09,9.08Z"/>
        <circle class="cls-1" cx="2108.06" cy="133.68" r="2.02"/>
        <circle class="cls-1" cx="2108.06" cy="93.83" r="2.02"/>
        <circle class="cls-1" cx="2108.06" cy="53.99" r="4.04"/>
        <circle class="cls-1" cx="2108.06" cy="14.13" r="2.02"/>
        <circle class="cls-1" cx="2164.59" cy="890.83" r="1.01"/>
        <circle class="cls-1" cx="2164.59" cy="850.99" r="6.06"/>
        <circle class="cls-1" cx="2164.59" cy="811.13" r="4.04"/>
        <circle class="cls-1" cx="2164.59" cy="611.88" r="4.04"/>
        <path class="cls-1" d="M2164.59,573.04c-.56,0-1.01-.45-1.01-1s.45-1.02,1.01-1.02,1.01,.46,1.01,1.02-.45,1-1.01,1Z"/>
        <circle class="cls-1" cx="2164.59" cy="532.19" r="4.04"/>
        <circle class="cls-1" cx="2164.59" cy="492.33" r="4.04"/>
        <path class="cls-1" d="M2164.59,456.51c-2.23,0-4.04-1.81-4.04-4.03s1.81-4.05,4.04-4.05,4.04,1.82,4.04,4.05-1.81,4.03-4.04,4.03Z"/>
        <circle class="cls-1" cx="2164.59" cy="412.63" r="6.06"/>
        <path class="cls-1" d="M2164.59,376.83c-2.23,0-4.04-1.82-4.04-4.05s1.81-4.04,4.04-4.04,4.04,1.81,4.04,4.04-1.81,4.05-4.04,4.05Z"/>
        <circle class="cls-1" cx="2164.59" cy="332.93" r="4.04"/>
        <circle class="cls-1" cx="2164.59" cy="293.08" r="4.04"/>
        <path class="cls-1" d="M2164.59,259.29c-3.34,0-6.06-2.72-6.06-6.07s2.72-6.05,6.06-6.05,6.06,2.71,6.06,6.05-2.72,6.07-6.06,6.07Z"/>
        <circle class="cls-1" cx="2164.59" cy="213.38" r="4.04"/>
        <circle class="cls-1" cx="2164.59" cy="173.53" r="4.04"/>
        <circle class="cls-1" cx="2164.59" cy="133.68" r="9.09"/>
        <circle class="cls-1" cx="2164.59" cy="93.83" r="14.13"/>
        <circle class="cls-1" cx="2164.59" cy="53.99" r="4.04"/>
        <circle class="cls-1" cx="2164.59" cy="14.13" r="2.02"/>
        <path class="cls-1" d="M2221.12,974.58c-2.23,0-4.04-1.81-4.04-4.04s1.81-4.05,4.04-4.05,4.04,1.82,4.04,4.05-1.81,4.04-4.04,4.04Z"/>
        <circle class="cls-1" cx="2221.12" cy="930.69" r="2.52"/>
        <circle class="cls-1" cx="2221.12" cy="890.83" r="2.02"/>
        <circle class="cls-1" cx="2221.12" cy="850.99" r="1.51"/>
        <circle class="cls-1" cx="2221.12" cy="412.63" r="1.01"/>
        <path class="cls-1" d="M2221.12,376.83c-2.23,0-4.04-1.82-4.04-4.05s1.81-4.04,4.04-4.04,4.04,1.81,4.04,4.04-1.81,4.05-4.04,4.05Z"/>
        <circle class="cls-1" cx="2221.12" cy="332.93" r="1.51"/>
        <circle class="cls-1" cx="2221.12" cy="173.54" r="1.01"/>
        <circle class="cls-1" cx="2221.12" cy="133.68" r="4.04"/>
        <circle class="cls-1" cx="2221.12" cy="93.83" r="4.04"/>
        <path class="cls-1" d="M2221.12,56c-1.11,0-2.02-.9-2.02-2.01s.91-2.02,2.02-2.02,2.02,.91,2.02,2.02-.91,2.01-2.02,2.01Z"/>
        <circle class="cls-1" cx="2221.12" cy="14.13" r="4.04"/>
        <circle class="cls-1" cx="2277.65" cy="850.99" r="4.04"/>
        <circle class="cls-1" cx="2277.65" cy="811.13" r="4.04"/>
        <path class="cls-1" d="M2277.65,775.32c-2.23,0-4.04-1.81-4.04-4.04s1.81-4.03,4.04-4.03,4.04,1.81,4.04,4.03-1.81,4.04-4.04,4.04Z"/>
        <circle class="cls-1" cx="2277.65" cy="731.44" r="8.08"/>
        <circle class="cls-1" cx="2277.65" cy="691.58" r="3.03"/>
        <circle class="cls-1" cx="2277.65" cy="651.74" r="1.01"/>
        <circle class="cls-1" cx="2277.65" cy="412.63" r="4.04"/>
        <circle class="cls-1" cx="2277.65" cy="332.93" r="1.01"/>
        <circle class="cls-1" cx="2277.65" cy="293.08" r="2.02"/>
        <path class="cls-1" d="M2277.65,257.26c-2.23,0-4.04-1.81-4.04-4.03s1.81-4.05,4.04-4.05,4.04,1.82,4.04,4.05-1.81,4.03-4.04,4.03Z"/>
        <circle class="cls-1" cx="2277.65" cy="213.38" r="4.04"/>
        <path class="cls-1" d="M2277.65,187.67c-7.79,0-14.13-6.34-14.13-14.14s6.34-14.13,14.13-14.13,14.13,6.34,14.13,14.13-6.34,14.14-14.13,14.14Z"/>
        <circle class="cls-1" cx="2277.65" cy="133.68" r="4.04"/>
        <circle class="cls-1" cx="2277.65" cy="93.83" r="9.09"/>
        <circle class="cls-1" cx="2277.65" cy="53.99" r="4.04"/>
        <circle class="cls-1" cx="2277.65" cy="14.13" r="8.08"/>
        <circle class="cls-1" cx="2334.18" cy="890.83" r="1.01"/>
        <circle class="cls-1" cx="2334.18" cy="850.99" r="1.51"/>
        <circle class="cls-1" cx="2334.18" cy="811.13" r="3.53"/>
        <path class="cls-1" d="M2334.18,774.81c-1.95,0-3.53-1.58-3.53-3.52s1.59-3.54,3.53-3.54,3.53,1.59,3.53,3.54-1.59,3.52-3.53,3.52Z"/>
        <circle class="cls-1" cx="2334.18" cy="731.44" r="2.02"/>
        <circle class="cls-1" cx="2334.18" cy="691.58" r="1.01"/>
        <circle class="cls-1" cx="2334.18" cy="492.33" r="1.01"/>
        <path class="cls-1" d="M2334.18,456.01c-1.95,0-3.53-1.58-3.53-3.52s1.59-3.53,3.53-3.53,3.53,1.59,3.53,3.53-1.59,3.52-3.53,3.52Z"/>
        <circle class="cls-1" cx="2334.18" cy="412.63" r="3.53"/>
        <circle class="cls-1" cx="2334.18" cy="372.78" r="3.53"/>
        <circle class="cls-1" cx="2334.18" cy="332.93" r="6.06"/>
        <circle class="cls-1" cx="2334.18" cy="293.08" r="8.08"/>
        <path class="cls-1" d="M2334.18,256.76c-1.95,0-3.53-1.58-3.53-3.52s1.59-3.53,3.53-3.53,3.53,1.59,3.53,3.53-1.59,3.52-3.53,3.52Z"/>
        <circle class="cls-1" cx="2334.18" cy="213.38" r="7.07"/>
        <circle class="cls-1" cx="2334.18" cy="133.68" r="1.01"/>
        <path class="cls-1" d="M2334.18,57.51c-1.95,0-3.53-1.58-3.53-3.52s1.59-3.53,3.53-3.53,3.53,1.59,3.53,3.53-1.59,3.52-3.53,3.52Z"/>
        <circle class="cls-1" cx="2334.18" cy="14.13" r="1.01"/>
        <circle class="cls-1" cx="2390.71" cy="970.53" r="1.01"/>
        <circle class="cls-1" cx="2390.71" cy="930.69" r="1.01"/>
        <circle class="cls-1" cx="2390.71" cy="890.83" r="8.08"/>
        <circle class="cls-1" cx="2390.71" cy="850.99" r="2.52"/>
        <circle class="cls-1" cx="2390.71" cy="811.13" r="6.06"/>
        <path class="cls-1" d="M2390.71,778.35c-3.9,0-7.07-3.17-7.07-7.07s3.17-7.06,7.07-7.06,7.07,3.17,7.07,7.06-3.17,7.07-7.07,7.07Z"/>
        <circle class="cls-1" cx="2390.71" cy="731.44" r="2.52"/>
        <circle class="cls-1" cx="2390.71" cy="691.58" r="5.05"/>
        <circle class="cls-1" cx="2390.71" cy="651.74" r="2.52"/>
        <circle class="cls-1" cx="2390.71" cy="611.88" r="4.04"/>
        <path class="cls-1" d="M2390.71,577.09c-2.78,0-5.05-2.27-5.05-5.06s2.26-5.04,5.05-5.04,5.05,2.26,5.05,5.04-2.26,5.06-5.05,5.06Z"/>
        <circle class="cls-1" cx="2390.71" cy="532.19" r="3.03"/>
        <circle class="cls-1" cx="2390.71" cy="492.33" r="6.06"/>
        <circle class="cls-1" cx="2390.71" cy="412.63" r="1.51"/>
        <path class="cls-1" d="M2390.71,380.85c-4.45,0-8.08-3.62-8.08-8.08s3.62-8.06,8.08-8.06,8.08,3.62,8.08,8.06-3.62,8.08-8.08,8.08Z"/>
        <circle class="cls-1" cx="2390.71" cy="332.93" r="3.53"/>
        <circle class="cls-1" cx="2390.71" cy="293.08" r="3.53"/>
        <path class="cls-1" d="M2390.71,260.29c-3.9,0-7.07-3.17-7.07-7.06s3.17-7.08,7.07-7.08,7.07,3.17,7.07,7.08-3.17,7.06-7.07,7.06Z"/>
        <circle class="cls-1" cx="2390.71" cy="213.38" r="9.09"/>
        <circle class="cls-1" cx="2390.71" cy="173.53" r="1.51"/>
        <circle class="cls-1" cx="2390.71" cy="133.68" r=".5"/>
        <path class="cls-1" d="M2447.24,972.04c-.83,0-1.51-.68-1.51-1.5s.68-1.52,1.51-1.52,1.51,.68,1.51,1.52-.68,1.5-1.51,1.5Z"/>
        <circle class="cls-1" cx="2447.24" cy="930.69" r="3.03"/>
        <circle class="cls-1" cx="2447.24" cy="850.99" r="1.01"/>
        <circle class="cls-1" cx="2447.24" cy="811.13" r="3.03"/>
        <path class="cls-1" d="M2447.24,772.3c-.56,0-1.01-.45-1.01-1.01s.45-1.02,1.01-1.02,1.01,.46,1.01,1.02-.45,1.01-1.01,1.01Z"/>
        <circle class="cls-1" cx="2447.24" cy="691.58" r="7.07"/>
        <circle class="cls-1" cx="2447.24" cy="651.74" r="3.03"/>
        <circle class="cls-1" cx="2447.24" cy="611.88" r="4.04"/>
        <path class="cls-1" d="M2447.24,579.1c-3.9,0-7.07-3.17-7.07-7.06s3.17-7.08,7.07-7.08,7.07,3.17,7.07,7.08-3.17,7.06-7.07,7.06Z"/>
        <circle class="cls-1" cx="2447.24" cy="532.19" r="7.07"/>
        <circle class="cls-1" cx="2447.24" cy="492.33" r="3.53"/>
        <path class="cls-1" d="M2447.24,459.54c-3.9,0-7.07-3.17-7.07-7.06s3.17-7.07,7.07-7.07,7.07,3.17,7.07,7.07-3.17,7.06-7.07,7.06Z"/>
        <circle class="cls-1" cx="2447.24" cy="412.63" r="7.07"/>
        <path class="cls-1" d="M2447.24,375.81c-1.67,0-3.03-1.36-3.03-3.03s1.36-3.02,3.03-3.02,3.03,1.35,3.03,3.02-1.36,3.03-3.03,3.03Z"/>
        <circle class="cls-1" cx="2447.24" cy="332.93" r="3.03"/>
        <circle class="cls-1" cx="2447.24" cy="293.08" r="3.03"/>
        <circle class="cls-1" cx="2447.24" cy="253.23" r="1.01"/>
        <circle class="cls-1" cx="2447.24" cy="173.53" r="4.04"/>
        <circle class="cls-1" cx="2447.24" cy="133.68" r="7.07"/>
        <path class="cls-1" d="M2447.24,68.12c-7.79,0-14.13-6.34-14.13-14.14s6.34-14.13,14.13-14.13,14.13,6.34,14.13,14.13-6.34,14.14-14.13,14.14Z"/>
        <circle class="cls-1" cx="2503.77" cy="970.53" r="1.01"/>
        <circle class="cls-1" cx="2503.77" cy="930.69" r="6.06"/>
        <circle class="cls-1" cx="2503.77" cy="890.83" r="9.09"/>
        <circle class="cls-1" cx="2503.77" cy="850.99" r="1.01"/>
        <circle class="cls-1" cx="2503.77" cy="731.44" r="2.02"/>
        <circle class="cls-1" cx="2503.77" cy="691.58" r="1.01"/>
        <circle class="cls-1" cx="2503.77" cy="651.74" r="3.53"/>
        <path class="cls-1" d="M2503.77,574.56c-1.39,0-2.52-1.14-2.52-2.53s1.13-2.52,2.52-2.52,2.52,1.13,2.52,2.52-1.13,2.53-2.52,2.53Z"/>
        <circle class="cls-1" cx="2503.77" cy="532.19" r="2.52"/>
        <circle class="cls-1" cx="2503.77" cy="492.33" r="7.07"/>
        <circle class="cls-1" cx="2503.77" cy="452.49" r="2.52"/>
        <circle class="cls-1" cx="2503.77" cy="412.63" r="2.52"/>
        <path class="cls-1" d="M2503.77,381.86c-5.01,0-9.09-4.08-9.09-9.09s4.08-9.07,9.09-9.07,9.09,4.07,9.09,9.07-4.08,9.09-9.09,9.09Z"/>
        <circle class="cls-1" cx="2503.77" cy="293.08" r="6.06"/>
        <path class="cls-1" d="M2503.77,260.29c-3.9,0-7.07-3.17-7.07-7.06s3.17-7.08,7.07-7.08,7.07,3.17,7.07,7.08-3.17,7.06-7.07,7.06Z"/>
        <circle class="cls-1" cx="2503.77" cy="213.38" r="3.03"/>
        <path class="cls-1" d="M2503.77,182.61c-5.01,0-9.09-4.07-9.09-9.08s4.08-9.1,9.09-9.1,9.09,4.08,9.09,9.1-4.08,9.08-9.09,9.08Z"/>
        <circle class="cls-1" cx="2503.77" cy="133.68" r="5.05"/>
        <circle class="cls-1" cx="2503.77" cy="93.83" r="2.02"/>
        <path class="cls-1" d="M2503.77,56c-1.11,0-2.02-.9-2.02-2.01s.91-2.02,2.02-2.02,2.02,.91,2.02,2.02-.91,2.01-2.02,2.01Z"/>
        <circle class="cls-1" cx="2503.77" cy="14.13" r="2.02"/>
        <circle class="cls-1" cx="2560.31" cy="850.99" r="6.06"/>
        <circle class="cls-1" cx="2560.31" cy="811.13" r="5.05"/>
        <path class="cls-1" d="M2560.31,776.33c-2.78,0-5.05-2.26-5.05-5.04s2.26-5.05,5.05-5.05,5.05,2.26,5.05,5.05-2.26,5.04-5.05,5.04Z"/>
        <circle class="cls-1" cx="2560.31" cy="731.44" r="5.05"/>
        <circle class="cls-1" cx="2560.31" cy="691.58" r="6.06"/>
        <circle class="cls-1" cx="2560.31" cy="651.74" r="6.06"/>
        <circle class="cls-1" cx="2560.31" cy="611.88" r="9.09"/>
        <path class="cls-1" d="M2560.31,578.1c-3.34,0-6.06-2.72-6.06-6.07s2.72-6.06,6.06-6.06,6.06,2.72,6.06,6.06-2.72,6.07-6.06,6.07Z"/>
        <path class="cls-1" d="M2560.31,456.51c-2.23,0-4.04-1.81-4.04-4.03s1.81-4.05,4.04-4.05,4.04,1.82,4.04,4.05-1.81,4.03-4.04,4.03Z"/>
        <circle class="cls-1" cx="2560.31" cy="412.63" r="6.06"/>
        <path class="cls-1" d="M2560.31,376.83c-2.23,0-4.04-1.82-4.04-4.05s1.81-4.04,4.04-4.04,4.04,1.81,4.04,4.04-1.81,4.05-4.04,4.05Z"/>
        <circle class="cls-1" cx="2560.31" cy="332.93" r="8.08"/>
        <circle class="cls-1" cx="2560.31" cy="293.08" r="7.07"/>
        <path class="cls-1" d="M2560.31,257.26c-2.23,0-4.04-1.81-4.04-4.03s1.81-4.05,4.04-4.05,4.04,1.82,4.04,4.05-1.81,4.03-4.04,4.03Z"/>
        <circle class="cls-1" cx="2560.31" cy="213.38" r="4.04"/>
        <circle class="cls-1" cx="2560.31" cy="173.53" r="4.04"/>
        <circle class="cls-1" cx="2560.31" cy="133.68" r="14.13"/>
        <circle class="cls-1" cx="2560.31" cy="93.83" r="8.08"/>
        <circle class="cls-1" cx="2560.31" cy="53.98" r="8.08"/>
        <circle class="cls-1" cx="2560.31" cy="14.13" r="4.04"/>
        <circle class="cls-1" cx="2616.84" cy="970.53" r="1.01"/>
        <circle class="cls-1" cx="2616.84" cy="930.69" r="2.02"/>
        <circle class="cls-1" cx="2616.84" cy="890.83" r="3.53"/>
        <circle class="cls-1" cx="2616.84" cy="850.99" r="3.53"/>
        <circle class="cls-1" cx="2616.84" cy="811.13" r="1.51"/>
        <circle class="cls-1" cx="2616.84" cy="731.44" r="7.07"/>
        <circle class="cls-1" cx="2616.84" cy="691.58" r="7.07"/>
        <circle class="cls-1" cx="2616.84" cy="651.74" r="4.04"/>
        <circle class="cls-1" cx="2616.84" cy="611.88" r="4.04"/>
        <path class="cls-1" d="M2616.84,579.1c-3.9,0-7.07-3.17-7.07-7.06s3.17-7.08,7.07-7.08,7.07,3.17,7.07,7.08-3.17,7.06-7.07,7.06Z"/>
        <circle class="cls-1" cx="2616.84" cy="532.19" r="4.04"/>
        <circle class="cls-1" cx="2616.84" cy="492.33" r="4.04"/>
        <path class="cls-1" d="M2616.84,456.51c-2.23,0-4.04-1.81-4.04-4.03s1.81-4.05,4.04-4.05,4.04,1.82,4.04,4.05-1.81,4.03-4.04,4.03Z"/>
        <circle class="cls-1" cx="2616.84" cy="412.63" r="4.04"/>
        <path class="cls-1" d="M2616.84,373.8c-.56,0-1.01-.45-1.01-1.01s.45-1.02,1.01-1.02,1.01,.46,1.01,1.02-.45,1.01-1.01,1.01Z"/>
        <circle class="cls-1" cx="2616.84" cy="213.38" r="2.52"/>
        <circle class="cls-1" cx="2616.84" cy="253.23" r="1.01"/>
        <circle class="cls-1" cx="2616.84" cy="173.53" r="7.07"/>
        <circle class="cls-1" cx="2616.84" cy="133.68" r="3.53"/>
        <circle class="cls-1" cx="2616.84" cy="93.83" r="3.53"/>
        <path class="cls-1" d="M2616.84,57.51c-1.95,0-3.53-1.58-3.53-3.52s1.59-3.53,3.53-3.53,3.53,1.59,3.53,3.53-1.59,3.52-3.53,3.52Z"/>
        <circle class="cls-1" cx="2616.84" cy="14.13" r="8.08"/>
        <circle class="cls-1" cx="2673.37" cy="930.69" r="2.52"/>
        <circle class="cls-1" cx="2673.37" cy="890.83" r="9.09"/>
        <circle class="cls-1" cx="2673.37" cy="850.99" r="4.04"/>
        <circle class="cls-1" cx="2673.37" cy="811.13" r="4.04"/>
        <circle class="cls-1" cx="2673.37" cy="771.28" r="6.06"/>
        <circle class="cls-1" cx="2673.37" cy="731.44" r="4.04"/>
        <circle class="cls-1" cx="2673.37" cy="691.58" r="1.51"/>
        <circle class="cls-1" cx="2673.37" cy="651.74" r="2.52"/>
        <circle class="cls-1" cx="2673.37" cy="611.88" r="8.08"/>
        <circle class="cls-1" cx="2673.37" cy="532.19" r="2.52"/>
        <circle class="cls-1" cx="2673.37" cy="492.33" r="1.51"/>
        <path class="cls-1" d="M2673.37,459.04c-3.62,0-6.56-2.94-6.56-6.55s2.94-6.56,6.56-6.56,6.56,2.94,6.56,6.56-2.94,6.55-6.56,6.55Z"/>
        <circle class="cls-1" cx="2673.37" cy="412.63" r="6.56"/>
        <path class="cls-1" d="M2673.37,379.34c-3.62,0-6.56-2.94-6.56-6.55s2.94-6.57,6.56-6.57,6.56,2.95,6.56,6.57-2.94,6.55-6.56,6.55Z"/>
        <circle class="cls-1" cx="2673.37" cy="332.93" r="9.09"/>
        <circle class="cls-1" cx="2673.37" cy="293.08" r="4.04"/>
        <circle class="cls-1" cx="2673.37" cy="253.23" r="1.01"/>
        <path class="cls-1" d="M2673.37,182.61c-5.01,0-9.09-4.07-9.09-9.08s4.08-9.1,9.09-9.1,9.09,4.08,9.09,9.1-4.08,9.08-9.09,9.08Z"/>
        <circle class="cls-1" cx="2673.37" cy="133.68" r="14.13"/>
        <circle class="cls-1" cx="2673.37" cy="93.83" r="4.04"/>
        <path class="cls-1" d="M2673.37,68.12c-7.79,0-14.13-6.34-14.13-14.14s6.34-14.13,14.13-14.13,14.13,6.34,14.13,14.13-6.34,14.14-14.13,14.14Z"/>
        <circle class="cls-1" cx="2673.37" cy="14.13" r="14.13"/>
        <circle class="cls-1" cx="2503.77" cy="611.88" r="4.04"/>
      </g>
    </g>
  </g>
</svg>