<?xml version="1.0" encoding="UTF-8"?>
<svg id="Layer_2" data-name="Layer 2" xmlns="http://www.w3.org/2000/svg" xmlns:xlink="http://www.w3.org/1999/xlink" viewBox="0 0 2752 2056">
  <defs>
    <style>
      .cls-1, .cls-2 {
        font-size: 36.54px;
      }

      .cls-1, .cls-2, .cls-3 {
        font-family: DMSans-Light, 'DM Sans';
      }

      .cls-1, .cls-4, .cls-5 {
        fill: #4746df;
      }

      .cls-2, .cls-6, .cls-7, .cls-8, .cls-9, .cls-10 {
        fill: #38384c;
      }

      .cls-6 {
        font-size: 41.03px;
      }

      .cls-6, .cls-8, .cls-10 {
        font-family: DMSans-Medium, 'DM Sans';
      }

      .cls-11 {
        letter-spacing: -.02em;
      }

      .cls-12 {
        letter-spacing: -.02em;
      }

      .cls-13 {
        fill: #f89d51;
      }

      .cls-14 {
        fill: #fff;
      }

      .cls-15 {
        fill: #fec;
      }

      .cls-16 {
        fill: #ffd2a9;
      }

      .cls-17 {
        fill: #905af7;
      }

      .cls-18 {
        fill: #ba8254;
      }

      .cls-19 {
        fill: #ce96cd;
      }

      .cls-20 {
        fill: #b2cdf9;
      }

      .cls-21 {
        fill: #b29ef9;
      }

      .cls-22 {
        fill: #d24a46;
      }

      .cls-23 {
        fill: #d3dfba;
      }

      .cls-24 {
        fill: #c5d1f7;
      }

      .cls-25 {
        fill: #9ac0f7;
      }

      .cls-26 {
        fill: #624a74;
      }

      .cls-27 {
        fill: #73cdba;
      }

      .cls-28 {
        fill: #7a4a46;
      }

      .cls-29 {
        letter-spacing: -.01em;
      }

      .cls-30 {
        letter-spacing: -.01em;
      }

      .cls-31 {
        fill: #fcfdfe;
      }

      .cls-31, .cls-32 {
        stroke: #cbcbcb;
        stroke-miterlimit: 10;
        stroke-width: .25px;
      }

      .cls-33 {
        letter-spacing: -.02em;
      }

      .cls-8, .cls-9 {
        font-size: 34.19px;
      }

      .cls-34 {
        letter-spacing: -.01em;
      }

      .cls-35 {
        letter-spacing: -.02em;
      }

      .cls-36 {
        letter-spacing: -.01em;
      }

      .cls-37 {
        letter-spacing: -.01em;
      }

      .cls-3 {
        fill: #858591;
        font-size: 27.35px;
      }

      .cls-9 {
        font-family: DMSans-Regular, 'DM Sans';
      }

      .cls-38 {
        fill: #f5f9fa;
        filter: url(#drop-shadow-1);
      }

      .cls-39 {
        letter-spacing: -.04em;
      }

      .cls-40 {
        letter-spacing: -.01em;
      }

      .cls-10 {
        font-size: 47.86px;
      }

      .cls-41 {
        letter-spacing: .05em;
      }

      .cls-42 {
        letter-spacing: -.02em;
      }

      .cls-32 {
        fill: none;
      }

      .cls-5 {
        opacity: .36;
      }
    </style>
    <filter id="drop-shadow-1" filterUnits="userSpaceOnUse">
      <feOffset dx="1" dy="2"/>
      <feGaussianBlur result="blur" stdDeviation="7"/>
      <feFlood flood-color="#42383a" flood-opacity=".75"/>
      <feComposite in2="blur" operator="in"/>
      <feComposite in="SourceGraphic"/>
    </filter>
  </defs>
  <g id="OBJECTS">
    <g>
      <rect class="cls-38" x="20.74" y="19.47" width="2708.84" height="2013.39" rx="5.7" ry="5.7"/>
      <path class="cls-4" d="M26.44,19.47H2723.87c3.15,0,5.7,2.55,5.7,5.7V155.83H20.74V25.17c0-3.15,2.55-5.7,5.7-5.7Z"/>
      <path class="cls-14" d="M2379.43,106.87c-.05-.05-4.63-4.57-4.63-11.33v-11.62c0-10.94-8.71-19.84-19.41-19.84s-19.41,8.9-19.41,19.84v11.62c0,6.57-4.61,11.3-4.65,11.35l-2.97,3.01h54.2l-3.12-3.03Zm-43.27-.5c1.57-2.44,3.35-6.23,3.35-10.83v-11.62c0-9,7.13-16.32,15.88-16.32s15.88,7.32,15.88,16.32v11.62c0,4.66,1.75,8.41,3.31,10.83h-38.42Zm20.99-42.29h-3.53v-3.53h3.53v3.53Zm0,45.88h3.53c0,2.92-2.38,5.29-5.29,5.29s-5.29-2.37-5.29-5.29h3.53c0,.97,.79,1.76,1.76,1.76s1.76-.79,1.76-1.76Z"/>
      <path class="cls-14" d="M2644.69,75.46l-27.35,27.35-27.35-27.35,2.46-2.46,24.88,24.89,24.89-24.89,2.47,2.46Z"/>
      <path class="cls-14" d="M2490.95,79.4c-4.43,0-8.04,3.61-8.04,8.04s3.61,8.04,8.04,8.04,8.04-3.61,8.04-8.04-3.61-8.04-8.04-8.04Zm0,12.87c-2.66,0-4.83-2.17-4.83-4.83s2.17-4.83,4.83-4.83,4.83,2.17,4.83,4.83-2.17,4.83-4.83,4.83Zm27.16-1.69c.12-1.03,.19-2.08,.19-3.13s-.07-2.1-.19-3.13l-8.33-2.5c-.38-1.29-.89-2.53-1.53-3.7l4.12-7.65c-1.31-1.64-2.8-3.13-4.44-4.44l-7.65,4.12c-1.17-.63-2.41-1.14-3.7-1.52l-2.5-8.33c-1.03-.12-2.07-.19-3.13-.19s-2.1,.07-3.13,.19l-2.5,8.33c-1.3,.38-2.54,.89-3.7,1.53l-7.65-4.12c-1.64,1.31-3.13,2.8-4.44,4.44l4.12,7.64c-.63,1.17-1.14,2.41-1.53,3.7l-8.33,2.5c-.12,1.03-.19,2.07-.19,3.13s.07,2.1,.19,3.13l8.33,2.5c.39,1.3,.89,2.54,1.53,3.7l-4.12,7.65c1.31,1.64,2.8,3.13,4.44,4.44l7.65-4.12c1.17,.63,2.41,1.14,3.7,1.52l2.5,8.33c1.03,.12,2.08,.19,3.13,.19s2.1-.07,3.13-.19l2.5-8.33c1.29-.39,2.54-.89,3.7-1.52l7.65,4.12c1.64-1.31,3.13-2.8,4.44-4.44l-4.11-7.65c.63-1.17,1.14-2.41,1.53-3.7l8.33-2.5Zm-10.91-.09l-.5,1.67c-.32,1.08-.75,2.12-1.27,3.09l-.82,1.53,.82,1.53,3.06,5.7c-.32,.34-.65,.67-.98,.98l-7.22-3.89-1.53,.82c-.97,.52-2.01,.95-3.09,1.27l-1.67,.5-.5,1.67-1.86,6.22c-.23,0-.46,0-.69,0s-.45,0-.69,0l-1.86-6.22-.5-1.67-1.67-.5c-1.08-.32-2.12-.75-3.09-1.27l-1.53-.82-7.22,3.88c-.33-.32-.67-.65-.98-.98l3.89-7.22-.82-1.53c-.52-.97-.95-2-1.27-3.09l-.49-1.66-7.88-2.36c0-.23-.01-.46-.01-.68s0-.45,.01-.69l7.88-2.36,.5-1.67c.32-1.08,.75-2.12,1.27-3.09l.82-1.53-3.89-7.22c.32-.34,.65-.67,.98-.98l7.23,3.89,1.53-.83c.96-.52,1.99-.95,3.08-1.27l1.67-.5,.5-1.67,1.86-6.22c.24,0,.46,0,.69,0s.45,0,.69,0l1.86,6.22,.5,1.67,1.67,.5c1.08,.32,2.12,.75,3.09,1.27l1.53,.82,7.22-3.89c.34,.32,.67,.65,.98,.98l-3.07,5.7-.82,1.53,.83,1.53c.52,.96,.95,2,1.27,3.08l.5,1.67,1.67,.5,6.22,1.87c0,.23,0,.46,0,.69s0,.45-.01,.69l-7.88,2.36Z"/>
      <path class="cls-14" d="M2233.29,112.92l-17.04-17.04c3.21-3.75,5.17-8.6,5.17-13.91,0-11.81-9.61-21.41-21.41-21.41-5.72,0-11.1,2.23-15.15,6.27-4.04,4.05-6.27,9.43-6.27,15.14,0,11.81,9.61,21.41,21.41,21.41,5.31,0,10.17-1.96,13.92-5.17l17.04,17.04,2.33-2.33Zm-33.29-12.84c-9.99,0-18.12-8.13-18.12-18.12,0-4.84,1.88-9.39,5.3-12.81,3.42-3.42,7.97-5.31,12.82-5.31,9.99,0,18.12,8.13,18.12,18.12s-8.13,18.12-18.12,18.12Z"/>
      <path class="cls-14" d="M142.37,109.66h-9.89v-19.78h-16.48v19.78h-9.89v-29.67h-3.3v32.97h42.86v-32.97h-3.3v29.67Zm-23.08,0v-16.48h9.89v16.48h-9.89Zm32.3-31.41l-1.95,2.66-25.4-18.66-25.4,18.65-1.95-2.66,27.35-20.08,27.35,20.09Z"/>
      <line class="cls-32" x1="923.68" y1="220.04" x2="923.68" y2="1953.4"/>
      <line class="cls-32" x1="1826.63" y1="220.04" x2="1826.63" y2="1953.4"/>
      <path class="cls-21" d="M1000.78,1764.31h748.75c.94,0,1.7,.76,1.7,1.7v266.85H999.08v-266.85c0-.94,.76-1.7,1.7-1.7Z"/>
      <g>
        <rect class="cls-31" x="999.08" y="220.04" width="752.15" height="1486.9" rx="1.76" ry="1.76"/>
        <path class="cls-7" d="M1168.31,815.17v-34.44h-20.7v34.45l10.33-7.02,10.37,7.01Zm-17.28-6.45v-24.57h13.86v24.58l-6.96-4.7-6.9,4.69Zm37.7-24.55v51.26h-51.28v-51.26h6.75v3.42h-3.33v44.42h44.45v-44.42h-13.69v-3.42h17.11Z"/>
        <path class="cls-20" d="M1000.78,220.04h748.75c.94,0,1.7,.76,1.7,1.7V748.82H999.08V221.74c0-.94,.76-1.7,1.7-1.7Z"/>
        <path class="cls-7" d="M1083.31,780.73c-6.01,0-11.24,3.43-13.83,8.43-2.59-5-7.82-8.43-13.83-8.43-8.58,0-15.56,6.98-15.56,15.56,0,1.19,.17,2.42,.53,3.86l.38,1.21c4.95,15.05,26.47,32.47,27.39,33.2l1.08,.87,1.08-.87c.98-.78,23.94-19.35,27.4-33.23l.39-1.27c.35-1.39,.51-2.59,.51-3.77,0-8.58-6.98-15.56-15.56-15.56Zm11.72,18.4l-.39,1.28c-2.8,11.22-20.55,26.71-25.15,30.57-4.43-3.74-21.16-18.45-25.18-30.67l-.35-1.09c-.27-1.08-.4-2.03-.4-2.93,0-6.67,5.43-12.1,12.1-12.1s12.1,5.43,12.1,12.1v.87h3.46v-.87c0-6.67,5.43-12.1,12.1-12.1s12.1,5.43,12.1,12.1c0,.89-.13,1.82-.38,2.84Z"/>
        <text class="cls-9" transform="translate(1040.11 907.91)"><tspan class="cls-11" x="0" y="0">L</tspan><tspan x="17.3" y="0">o</tspan><tspan class="cls-35" x="37.57" y="0">r</tspan><tspan x="49.57" y="0">em ipsum dolor sit am</tspan><tspan class="cls-42" x="402.77" y="0">e</tspan><tspan class="cls-41" x="421.61" y="0">t</tspan><tspan x="436.79" y="0">, conse</tspan><tspan class="cls-37" x="548.14" y="0">ct</tspan><tspan class="cls-42" x="580.14" y="0">e</tspan><tspan x="598.98" y="0">tuer </tspan><tspan x="0" y="54.7">adipiscing eli</tspan><tspan class="cls-41" x="205.85" y="54.7">t</tspan><tspan x="221.03" y="54.7">, sed diam nonum</tspan><tspan class="cls-40" x="500.82" y="54.7">m</tspan><tspan x="530.77" y="54.7">y nibh </tspan><tspan x="0" y="109.4">euismod tincidunt ut lao</tspan><tspan class="cls-35" x="386.36" y="109.4">r</tspan><tspan x="398.36" y="109.4">e</tspan><tspan class="cls-42" x="417.78" y="109.4">e</tspan><tspan x="436.62" y="109.4">t dolo</tspan><tspan class="cls-35" x="528.72" y="109.4">r</tspan><tspan x="540.72" y="109.4">e </tspan><tspan x="0" y="164.11">magna aliquam er</tspan><tspan class="cls-37" x="281.13" y="164.11">a</tspan><tspan x="299.25" y="164.11">t </tspan><tspan class="cls-33" x="321.75" y="164.11">v</tspan><tspan x="338.91" y="164.11">olutp</tspan><tspan class="cls-37" x="421.23" y="164.11">a</tspan><tspan x="439.35" y="164.11">t. Ut wisi enim </tspan></text>
        <text class="cls-9" transform="translate(1040.11 1310.61)"><tspan class="cls-11" x="0" y="0">L</tspan><tspan x="17.3" y="0">o</tspan><tspan class="cls-35" x="37.57" y="0">r</tspan><tspan x="49.57" y="0">em ipsum dolor sit am</tspan><tspan class="cls-42" x="402.77" y="0">e</tspan><tspan class="cls-41" x="421.61" y="0">t</tspan><tspan x="436.79" y="0">, conse</tspan><tspan class="cls-37" x="548.14" y="0">ct</tspan><tspan class="cls-42" x="580.14" y="0">e</tspan><tspan x="598.98" y="0">tuer </tspan><tspan x="0" y="54.7">adipiscing eli</tspan><tspan class="cls-41" x="205.85" y="54.7">t</tspan><tspan x="221.03" y="54.7">, sed diam nonum</tspan><tspan class="cls-40" x="500.82" y="54.7">m</tspan><tspan x="530.77" y="54.7">y nibh.</tspan></text>
        <line class="cls-32" x1="1036.72" y1="1402.96" x2="1706.78" y2="1402.96"/>
        <line class="cls-32" x1="1036.72" y1="1129.09" x2="1706.78" y2="1129.09"/>
        <g>
          <circle class="cls-25" cx="1083.41" cy="1210.78" r="41.03"/>
          <path class="cls-7" d="M1083.41,1214.36c-14.95,0-27.07,12.12-27.07,27.07,0,.05,.01,.1,.01,.15,7.23,6.35,16.67,10.24,27.05,10.24s19.83-3.88,27.05-10.24c0-.05,.01-.1,.01-.15,0-14.95-12.12-27.07-27.07-27.07Z"/>
          <path class="cls-16" d="M1099.94,1209.51c0,9.13-7.4,16.52-16.52,16.52s-16.52-7.4-16.52-16.52,7.4-16.52,16.52-16.52,16.52,7.4,16.52,16.52Z"/>
        </g>
        <g>
          <circle class="cls-17" cx="1083.41" cy="1482.23" r="41.03"/>
          <path class="cls-28" d="M1058.23,1502.97h50.35s5.88-44.45-25.28-44.45c-29.53,0-25.08,44.45-25.08,44.45Z"/>
          <path class="cls-19" d="M1083.41,1485.81c-14.95,0-27.07,12.12-27.07,27.07,0,.05,.01,.1,.01,.15,7.23,6.35,16.67,10.24,27.05,10.24s19.83-3.88,27.05-10.24c0-.05,.01-.1,.01-.15,0-14.95-12.12-27.07-27.07-27.07Z"/>
          <path class="cls-16" d="M1099.94,1480.96c0,9.13-7.4,16.52-16.52,16.52s-16.52-7.4-16.52-16.52,7.4-16.52,16.52-16.52,16.52,7.4,16.52,16.52Z"/>
          <path class="cls-28" d="M1064.89,1477.61h37.04s0-17.09-17.09-17.09-19.94,17.09-19.94,17.09Z"/>
        </g>
        <text class="cls-8" transform="translate(1151.22 1225.18)"><tspan x="0" y="0">Nickname</tspan></text>
        <text class="cls-9" transform="translate(1040.11 1580.16)"><tspan class="cls-11" x="0" y="0">L</tspan><tspan x="17.3" y="0">o</tspan><tspan class="cls-35" x="37.57" y="0">r</tspan><tspan x="49.57" y="0">em ipsum dolor sit am</tspan><tspan class="cls-42" x="402.77" y="0">e</tspan><tspan class="cls-41" x="421.61" y="0">t</tspan><tspan x="436.79" y="0">, conse</tspan><tspan class="cls-37" x="548.14" y="0">ct</tspan><tspan class="cls-42" x="580.14" y="0">e</tspan><tspan x="598.98" y="0">tuer </tspan><tspan x="0" y="54.7">adipiscing eli</tspan><tspan class="cls-41" x="205.85" y="54.7">t</tspan><tspan x="221.03" y="54.7">, sed diam nonum</tspan><tspan class="cls-40" x="500.82" y="54.7">m</tspan><tspan x="530.77" y="54.7">y nibh.</tspan></text>
        <text class="cls-8" transform="translate(1151.22 1494.73)"><tspan x="0" y="0">Nickname</tspan></text>
        <path class="cls-5" d="M999.08,429.73s246.16-11.4,446.16,98.01c200,109.4,305.99,107.69,305.99,107.69v113.39H999.08V429.73Z"/>
        <path class="cls-4" d="M1354.64,220.04c0,94.41,76.53,170.94,170.94,170.94s170.94-76.53,170.94-170.94h-341.89Z"/>
      </g>
      <g>
        <rect class="cls-31" x="98.78" y="220.04" width="752.15" height="1144.37" rx="1.76" ry="1.76"/>
        <g>
          <circle class="cls-13" cx="474.86" cy="527.97" r="205.17"/>
          <path class="cls-4" d="M474.85,545.86c-74.75,0-135.36,60.6-135.36,135.36,0,.25,.07,.48,.07,.73,36.13,31.77,83.39,51.19,135.28,51.19s99.15-19.42,135.29-51.19c0-.25,.07-.48,.07-.73,0-74.76-60.6-135.36-135.36-135.36Z"/>
          <circle class="cls-16" cx="474.86" cy="521.64" r="82.64"/>
        </g>
        <text class="cls-10" transform="translate(338.18 851.49)"><tspan x="0" y="0">@Nickname</tspan></text>
        <text class="cls-3" transform="translate(348.06 1434.36)"><tspan x="0" y="0">© Co</tspan><tspan class="cls-39" x="64.93" y="0">p</tspan><tspan x="80.85" y="0">yright </tspan><tspan class="cls-29" x="160.44" y="0">2</tspan><tspan x="175.92" y="0">018</tspan></text>
        <path class="cls-7" d="M599.56,1230.37c-13.22,0-23.93,10.72-23.93,23.93s10.72,23.93,23.93,23.93,23.93-10.72,23.93-23.93-10.72-23.93-23.93-23.93Zm21.1,24.27c-5.84-1.28-10.97-1.19-15.4-.26-.71-1.77-1.51-3.58-2.39-5.43,4.73-1.82,9.27-4.47,12.8-8.26,3.11,3.68,5,8.43,5,13.61,0,.12-.02,.22-.02,.34Zm-6.96-15.98c-3.27,3.54-7.57,6.01-12.1,7.71-2.14-4.13-4.76-8.33-7.92-12.35,1.87-.54,3.84-.85,5.88-.85,5.44,0,10.39,2.09,14.14,5.48Zm-22.79-3.61c3.19,3.93,5.81,8.12,7.96,12.26-8.37,2.59-16.8,2.89-20.03,2.9,1.33-6.78,5.92-12.39,12.07-15.16Zm-12.47,19.24c0-.43,.04-.85,.06-1.26,.18,0,.38,0,.6,0,3.68,0,12.39-.35,21.07-3.14,.84,1.76,1.63,3.51,2.31,5.19-10.15,3.1-16.15,10.43-18.34,13.59-3.52-3.77-5.7-8.82-5.7-14.38Zm7.77,16.34c1.68-2.54,7.32-9.91,17.3-12.87,2.71,7.31,3.96,13.36,4.41,15.91-2.56,1.11-5.39,1.73-8.36,1.73-5.06,0-9.71-1.79-13.35-4.77Zm24.33,1.66c-.56-2.99-1.79-8.56-4.23-15.22,4.07-.79,8.75-.81,14.1,.41-.96,6.27-4.67,11.63-9.87,14.81Z"/>
        <path class="cls-7" d="M506.88,1235.95c-2.01,.87-4.2,1.49-6.46,1.73,2.33-1.39,4.1-3.57,4.93-6.18-2.15,1.28-4.58,2.22-7.11,2.71-2.05-2.19-4.96-3.54-8.19-3.54-6.21,0-11.21,5.03-11.21,11.21,0,.87,.11,1.74,.28,2.57-9.3-.48-17.6-4.93-23.12-11.73-.97,1.66-1.53,3.57-1.53,5.66,0,3.89,1.98,7.32,5,9.33-1.84-.07-3.57-.59-5.07-1.42v.14c0,5.44,3.85,9.96,8.99,11-.94,.24-1.94,.38-2.95,.38-.73,0-1.42-.07-2.11-.17,1.42,4.44,5.55,7.67,10.48,7.78-3.86,3.02-8.68,4.79-13.92,4.79-.94,0-1.81-.03-2.71-.14,4.97,3.19,10.86,5.03,17.22,5.03,20.62,0,31.9-17.08,31.9-31.89,0-.49,0-.97-.03-1.46,2.18-1.6,4.09-3.58,5.62-5.8Zm-8.81,7.26c0,11.91-8.9,28.68-28.68,28.68-1.58,0-3.15-.13-4.69-.38,2.16-.89,4.2-2.08,6.08-3.55,1.07-.84,1.5-2.26,1.07-3.55-.43-1.29-1.63-2.17-2.99-2.2-1.75-.04-3.39-.63-4.72-1.64,.01,0,.03,0,.04,0,1.45-.37,2.45-1.7,2.42-3.2-.04-1.5-1.1-2.77-2.57-3.07-2.1-.43-3.87-1.66-5.02-3.37,.11,0,.22,.01,.33,.02h.12c1.39,0,2.63-.9,3.06-2.23,.44-1.37-.08-2.87-1.28-3.67-2.03-1.35-3.31-3.53-3.53-5.92,5.87,5.09,13.34,8.14,21.23,8.55,.05,0,.11,0,.17,0,.94,0,1.83-.41,2.44-1.12,.65-.76,.91-1.77,.71-2.75-.14-.67-.21-1.32-.21-1.91,0-4.41,3.58-7.99,7.99-7.99,2.25,0,4.32,.89,5.84,2.52,.37,.4,.84,.69,1.34,.86-.06,.47-.02,.96,.14,1.43,.2,.61,.58,1.13,1.06,1.51-.29,.53-.42,1.14-.38,1.75,.03,.42,.03,.83,.03,1.24Z"/>
        <path class="cls-7" d="M362.82,1228.96h-25.34c-6.19,0-11.26,5.07-11.26,11.26v25.34c0,6.19,5.07,11.26,11.26,11.26h25.34c6.19,0,11.26-5.07,11.26-11.26v-25.34c0-6.19-5.07-11.26-11.26-11.26Zm8.45,36.6c0,4.66-3.79,8.45-8.45,8.45h-25.34c-4.66,0-8.45-3.79-8.45-8.45v-16.89h9.03c-.81,1.72-1.29,3.61-1.29,5.63,0,7.37,6,13.37,13.37,13.37s13.37-6,13.37-13.37c0-2.02-.48-3.91-1.29-5.63h9.03v16.89Zm-10.56-11.26c0,5.82-4.74,10.56-10.56,10.56s-10.56-4.74-10.56-10.56,4.74-10.56,10.56-10.56,10.56,4.74,10.56,10.56Zm-.28-8.45c-2.46-2.98-6.13-4.93-10.28-4.93s-7.83,1.95-10.28,4.93h-10.83v-5.63c0-4.66,3.79-8.45,8.45-8.45h25.34c4.66,0,8.45,3.79,8.45,8.45v5.63h-10.83Zm6.48-9.23v3.65c0,.84-.69,1.53-1.53,1.53h-3.85c-.84,0-1.53-.69-1.53-1.53v-3.65c0-.84,.69-1.53,1.53-1.53h3.85c.84,0,1.53,.69,1.53,1.53Z"/>
        <text class="cls-9" transform="translate(142.84 958.92)"><tspan class="cls-11" x="0" y="0">L</tspan><tspan x="17.3" y="0">o</tspan><tspan class="cls-35" x="37.57" y="0">r</tspan><tspan x="49.57" y="0">em ipsum dolor sit am</tspan><tspan class="cls-42" x="402.77" y="0">e</tspan><tspan class="cls-41" x="421.61" y="0">t</tspan><tspan x="436.79" y="0">, conse</tspan><tspan class="cls-37" x="548.14" y="0">ct</tspan><tspan class="cls-42" x="580.14" y="0">e</tspan><tspan x="598.98" y="0">tuer </tspan><tspan x="18.12" y="54.7">adipiscing eli</tspan><tspan class="cls-41" x="223.97" y="54.7">t</tspan><tspan x="239.15" y="54.7">, sed diam nonum</tspan><tspan class="cls-40" x="518.94" y="54.7">m</tspan><tspan x="548.89" y="54.7">y nibh </tspan><tspan x="51.95" y="109.4">euismod tincidunt ut lao</tspan><tspan class="cls-35" x="438.31" y="109.4">r</tspan><tspan x="450.31" y="109.4">e</tspan><tspan class="cls-42" x="469.73" y="109.4">e</tspan><tspan x="488.56" y="109.4">t dolo</tspan><tspan class="cls-35" x="580.67" y="109.4">r</tspan><tspan x="592.67" y="109.4">e </tspan><tspan x="2.02" y="164.11">magna aliquam er</tspan><tspan class="cls-37" x="283.15" y="164.11">a</tspan><tspan x="301.26" y="164.11">t </tspan><tspan class="cls-33" x="323.76" y="164.11">v</tspan><tspan x="340.92" y="164.11">olutp</tspan><tspan class="cls-36" x="423.25" y="164.11">a</tspan><tspan x="441.37" y="164.11">t. Ut wisi enim </tspan></text>
      </g>
      <g>
        <rect class="cls-31" x="1901.53" y="220.04" width="752.15" height="972.95" rx="1.76" ry="1.76"/>
        <line class="cls-32" x1="1942.58" y1="507.22" x2="2612.64" y2="507.22"/>
        <line class="cls-32" x1="1942.58" y1="332.86" x2="2612.64" y2="332.86"/>
        <line class="cls-32" x1="1942.58" y1="673.61" x2="2612.64" y2="673.61"/>
        <g>
          <circle class="cls-13" cx="1989.27" cy="419.52" r="41.03"/>
          <path class="cls-7" d="M1989.26,423.1c-14.95,0-27.07,12.12-27.07,27.07,0,.05,.01,.1,.01,.15,7.22,6.35,16.67,10.24,27.05,10.24s19.83-3.88,27.05-10.24c0-.05,.01-.1,.01-.15,0-14.95-12.12-27.07-27.07-27.07Z"/>
          <path class="cls-16" d="M2005.79,418.25c0,9.13-7.4,16.52-16.52,16.52s-16.52-7.4-16.52-16.52,7.4-16.52,16.52-16.52,16.52,7.4,16.52,16.52Z"/>
        </g>
        <g>
          <circle class="cls-17" cx="1989.27" cy="588.4" r="41.03"/>
          <path class="cls-28" d="M1964.09,609.14h50.35s5.88-44.45-25.28-44.45c-29.53,0-25.08,44.45-25.08,44.45Z"/>
          <path class="cls-19" d="M1989.26,591.98c-14.95,0-27.07,12.12-27.07,27.07,0,.05,.01,.1,.01,.15,7.22,6.35,16.67,10.24,27.05,10.24s19.83-3.88,27.05-10.24c0-.05,.01-.1,.01-.15,0-14.95-12.12-27.07-27.07-27.07Z"/>
          <path class="cls-16" d="M2005.79,587.14c0,9.13-7.4,16.52-16.52,16.52s-16.52-7.4-16.52-16.52,7.4-16.52,16.52-16.52,16.52,7.4,16.52,16.52Z"/>
          <path class="cls-28" d="M1970.75,583.78h37.04s0-17.09-17.09-17.09-19.94,17.09-19.94,17.09Z"/>
        </g>
        <text class="cls-8" transform="translate(2057.07 433.92)"><tspan x="0" y="0">Nickname</tspan></text>
        <text class="cls-6" transform="translate(1942.57 299.44)"><tspan x="0" y="0">Conta</tspan><tspan class="cls-34" x="117.83" y="0">c</tspan><tspan x="141.29" y="0">t</tspan></text>
        <text class="cls-8" transform="translate(2057.07 600.9)"><tspan x="0" y="0">Nickname</tspan></text>
        <line class="cls-32" x1="1942.58" y1="848.64" x2="2612.64" y2="848.64"/>
        <g>
          <circle class="cls-25" cx="1989.27" cy="760.93" r="41.03"/>
          <path class="cls-7" d="M1989.26,764.51c-14.95,0-27.07,12.12-27.07,27.07,0,.05,.01,.1,.01,.15,7.22,6.35,16.67,10.24,27.05,10.24s19.83-3.88,27.05-10.24c0-.05,.01-.1,.01-.15,0-14.95-12.12-27.07-27.07-27.07Z"/>
          <path class="cls-16" d="M2005.79,759.67c0,9.13-7.4,16.52-16.52,16.52s-16.52-7.4-16.52-16.52,7.4-16.52,16.52-16.52,16.52,7.4,16.52,16.52Z"/>
        </g>
        <g>
          <circle class="cls-23" cx="1989.27" cy="929.82" r="41.03"/>
          <path class="cls-22" d="M1964.09,950.55h50.35s5.88-44.45-25.28-44.45c-29.53,0-25.08,44.45-25.08,44.45Z"/>
          <path class="cls-26" d="M1989.26,933.4c-14.95,0-27.07,12.12-27.07,27.07,0,.05,.01,.1,.01,.15,7.22,6.35,16.67,10.24,27.05,10.24s19.83-3.88,27.05-10.24c0-.05,.01-.1,.01-.15,0-14.95-12.12-27.07-27.07-27.07Z"/>
          <path class="cls-15" d="M2005.79,928.55c0,9.13-7.4,16.52-16.52,16.52s-16.52-7.4-16.52-16.52,7.4-16.52,16.52-16.52,16.52,7.4,16.52,16.52Z"/>
          <path class="cls-22" d="M1970.75,925.2h37.04s0-17.09-17.09-17.09-19.94,17.09-19.94,17.09Z"/>
        </g>
        <text class="cls-8" transform="translate(2057.07 775.33)"><tspan x="0" y="0">Nickname</tspan></text>
        <line class="cls-32" x1="1942.58" y1="1017.9" x2="2612.64" y2="1017.9"/>
        <g>
          <circle class="cls-24" cx="1989.27" cy="1105.23" r="41.03"/>
          <path class="cls-27" d="M1989.26,1108.81c-14.95,0-27.07,12.12-27.07,27.07,0,.05,.01,.1,.01,.15,7.22,6.35,16.67,10.24,27.05,10.24s19.83-3.88,27.05-10.24c0-.05,.01-.1,.01-.15,0-14.95-12.12-27.07-27.07-27.07Z"/>
          <path class="cls-18" d="M2005.79,1103.97c0,9.13-7.4,16.52-16.52,16.52s-16.52-7.4-16.52-16.52,7.4-16.52,16.52-16.52,16.52,7.4,16.52,16.52Z"/>
        </g>
        <text class="cls-8" transform="translate(2057.07 1119.63)"><tspan x="0" y="0">Nickname</tspan></text>
        <text class="cls-8" transform="translate(2057.07 942.32)"><tspan x="0" y="0">Nickname</tspan></text>
      </g>
      <g>
        <rect class="cls-31" x="1901.53" y="1243.52" width="752.15" height="655.06" rx="1.76" ry="1.76"/>
        <line class="cls-32" x1="1942.58" y1="1356.35" x2="2612.64" y2="1356.35"/>
        <text class="cls-6" transform="translate(1942.57 1322.93)"><tspan x="0" y="0">Calendar</tspan></text>
        <g>
          <text class="cls-1" transform="translate(1973.32 1451.86) scale(1.05 1)"><tspan x="0" y="0">S</tspan></text>
          <text class="cls-1" transform="translate(2066.54 1451.86)"><tspan x="0" y="0">M</tspan></text>
          <text class="cls-1" transform="translate(2169.63 1451.86)"><tspan x="0" y="0">T</tspan></text>
          <text class="cls-1" transform="translate(2260.24 1451.86)"><tspan x="0" y="0">W</tspan></text>
          <text class="cls-1" transform="translate(2365.6 1451.86)"><tspan x="0" y="0">T</tspan></text>
          <text class="cls-1" transform="translate(2463.94 1451.86)"><tspan x="0" y="0">F</tspan></text>
          <text class="cls-1" transform="translate(2561.12 1451.86)"><tspan x="0" y="0">S</tspan></text>
          <text class="cls-2"><tspan x="2266.56" y="1597.91">5</tspan><tspan x="2261.63" y="1656.38">12</tspan><tspan x="2260.68" y="1714.84">19</tspan><tspan x="2255.66" y="1773.31">26</tspan></text>
          <text class="cls-2"><tspan x="2364.19" y="1597.91">6</tspan><tspan x="2359.44" y="1656.38">13</tspan><tspan class="cls-30" x="2352.92" y="1714.84">2</tspan><tspan x="2373.6" y="1714.84">0</tspan><tspan class="cls-12" x="2355.7" y="1773.31">2</tspan><tspan x="2376.09" y="1773.31">7</tspan></text>
          <text class="cls-2"><tspan x="2463.88" y="1597.91">7</tspan><tspan x="2457.26" y="1656.38">14</tspan><tspan x="2457.59" y="1714.84">21</tspan><tspan class="cls-12" x="2452.42" y="1773.31">2</tspan><tspan x="2472.81" y="1773.31">8</tspan></text>
          <text class="cls-1" transform="translate(2566.13 1539.45)"><tspan x="0" y="0">1</tspan><tspan x="-5.54" y="58.47">8</tspan><tspan x="-11.14" y="116.93">15</tspan><tspan x="-15.6" y="175.4">22</tspan><tspan class="cls-30" x="-16.33" y="233.86">2</tspan><tspan x="4.35" y="233.86">9</tspan></text>
          <text class="cls-1"><tspan x="1973.2" y="1597.91">2</tspan><tspan x="1972.25" y="1656.38">9</tspan><tspan x="1966.75" y="1714.84">16</tspan><tspan x="1962.48" y="1773.31">23</tspan><tspan x="1960.61" y="1831.77">30</tspan></text>
          <text class="cls-2"><tspan x="2071.02" y="1597.91">3</tspan><tspan x="2063.8" y="1656.38">10</tspan><tspan x="2066.44" y="1714.84">17</tspan><tspan class="cls-12" x="2060.66" y="1773.31">2</tspan><tspan x="2081.05" y="1773.31">4</tspan></text>
          <text class="cls-2"><tspan x="2168.83" y="1597.91">4</tspan><tspan x="2168.69" y="1656.38">11</tspan><tspan x="2163.15" y="1714.84">18</tspan><tspan x="2158.02" y="1773.31">25</tspan></text>
        </g>
        <path class="cls-7" d="M2585.46,1293.45l13.68,13.68-13.68,13.67-1.23-1.23,12.44-12.44-12.44-12.45,1.23-1.23Z"/>
        <path class="cls-7" d="M2548.75,1294.68l-12.44,12.45,12.44,12.44-1.23,1.23-13.68-13.67,13.68-13.68,1.23,1.23Z"/>
      </g>
    </g>
  </g>
</svg>