<?xml version="1.0" encoding="UTF-8"?>
<svg id="Layer_2" data-name="Layer 2" xmlns="http://www.w3.org/2000/svg" viewBox="0 0 940.44 295.21">
  <defs>
    <style>
      .cls-1 {
        fill: #3359a7;
      }
    </style>
  </defs>
  <g id="Layer_1-2" data-name="Layer 1">
    <g>
      <path class="cls-1" d="M208.55,71.68c-9.66-22.39-23-39.94-39.94-52.63C151.64,6.34,132.61,0,111.53,0s-40.14,6.34-57.11,19.05c-16.97,12.68-30.26,30.31-39.94,52.85C4.84,94.41,0,119.61,0,147.45s4.84,53.06,14.48,75.58c9.68,22.54,22.97,40.14,39.94,52.85,16.97,12.71,36,19.05,57.11,19.05s40.11-6.34,57.08-19.05c16.95-12.71,30.29-30.24,39.94-52.63,9.63-22.39,14.48-47.64,14.48-75.79s-4.84-53.38-14.48-75.77m-25.66,140.5c-7.75,17.96-17.91,31.5-31.06,41.35-12.08,9.05-25.3,13.46-40.31,13.46s-28.25-4.41-40.38-13.46c-13.05-9.83-23.19-23.38-30.99-41.52-8.11-18.93-12.22-40.65-12.22-64.56s4.11-45.61,12.25-64.56c7.77-18.13,17.91-31.69,30.96-41.44,12.13-9.08,25.32-13.51,40.38-13.51s28.23,4.43,40.31,13.48c13.15,9.8,23.29,23.34,31.08,41.35,8.09,18.76,12.15,40.53,12.15,64.69s-4.07,45.95-12.18,64.73"/>
      <path class="cls-1" d="M167.18,147.46c0,16.11-2.71,30.62-8.11,43.13-5.16,11.97-11.94,20.99-20.69,27.55-8.05,6.03-16.86,8.97-26.86,8.97s-18.82-2.94-26.9-8.97c-8.69-6.55-15.45-15.58-20.65-27.66-5.4-12.61-8.15-27.08-8.15-43.02"/>
      <!-- <path class="cls-1" d="M350.93,59.63c9.19,5.08,16.4,12.26,21.63,21.52,5.23,9.27,7.85,19.95,7.85,32.06s-2.62,22.83-7.85,32.17c-5.23,9.34-12.44,16.55-21.63,21.63-9.19,5.08-19.62,7.62-31.28,7.62-16.14,0-28.92-5.38-38.34-16.14v136.43h-28.02V53.36h26.68v15.69c4.63-5.68,10.35-9.94,17.15-12.78,6.8-2.84,14.31-4.26,22.53-4.26,11.66,0,22.08,2.54,31.28,7.62m-8.97,80.71c6.65-6.87,9.98-15.92,9.98-27.13s-3.33-20.25-9.98-27.13c-6.65-6.87-15.13-10.31-25.45-10.31-6.73,0-12.78,1.53-18.16,4.6-5.38,3.07-9.64,7.44-12.78,13.11-3.14,5.68-4.71,12.26-4.71,19.73s1.57,14.05,4.71,19.73c3.14,5.68,7.4,10.06,12.78,13.12,5.38,3.06,11.43,4.6,18.16,4.6,10.31,0,18.79-3.44,25.45-10.31"/>
      <path class="cls-1" d="M479.05,166.58c-3.29,2.69-7.29,4.71-11.99,6.05-4.71,1.34-9.68,2.02-14.91,2.02-13.15,0-23.32-3.44-30.49-10.31-7.17-6.87-10.76-16.89-10.76-30.04v-57.62h-19.73v-22.42h19.73V26.9h28.02v27.35h32.06v22.42h-32.06v56.95c0,5.83,1.42,10.28,4.26,13.34,2.84,3.07,6.95,4.6,12.33,4.6,6.28,0,11.51-1.64,15.69-4.93l7.85,19.95Z"/>
      <path class="cls-1" d="M498.4,6.73c.34,7.21,2.03,13.34,5.08,18.37,3.44,5.69,7.7,8.52,12.78,8.52s9.54-2.98,12.9-8.93c2.83-4.99,4.45-10.97,4.89-17.96h-35.66Zm24.45,14.38c-2.98,5.25-5.59,5.25-6.59,5.25s-3.53,0-6.56-5.01c-1.31-2.15-2.3-4.6-2.98-7.36h18.93c-.68,2.64-1.62,5.01-2.81,7.12"/>
      <rect class="cls-1" x="502.14" y="53.36" width="28.03" height="119.72"/>
      <rect class="cls-1" x="566.93" y="6.72" width="28.03" height="166.35"/>
      <rect class="cls-1" x="631.72" y="6.72" width="28.03" height="166.35"/>
      <path class="cls-1" d="M812.43,53.36v119.72h-26.68v-15.25c-4.48,5.38-10.09,9.53-16.82,12.44-6.73,2.92-13.98,4.37-21.75,4.37-15.99,0-28.59-4.45-37.78-13.34-9.19-8.89-13.79-22.08-13.79-39.57V53.36h28.03V117.92c0,10.76,2.43,18.8,7.29,24.1,4.85,5.31,11.77,7.96,20.74,7.96,10.01,0,17.97-3.1,23.88-9.3,5.9-6.2,8.86-15.13,8.86-26.79V53.36h28.03Z"/>
      <path class="cls-1" d="M857.71,170.84c-9.27-2.54-16.67-5.75-22.2-9.64l10.76-21.3c5.38,3.58,11.84,6.46,19.39,8.63,7.54,2.17,14.98,3.25,22.31,3.25,16.74,0,25.11-4.41,25.11-13.23,0-4.18-2.13-7.1-6.39-8.74-4.26-1.64-11.1-3.21-20.51-4.71-9.87-1.49-17.9-3.21-24.1-5.16-6.2-1.94-11.58-5.34-16.14-10.2-4.56-4.85-6.84-11.62-6.84-20.29,0-11.36,4.74-20.44,14.24-27.24,9.49-6.8,22.31-10.2,38.45-10.2,8.22,0,16.44,.94,24.66,2.8,8.22,1.87,14.95,4.37,20.18,7.51l-10.76,21.3c-10.17-5.98-21.6-8.97-34.3-8.97-8.22,0-14.46,1.23-18.72,3.7-4.26,2.47-6.39,5.72-6.39,9.75,0,4.48,2.28,7.66,6.84,9.53,4.56,1.87,11.62,3.62,21.19,5.27,9.56,1.49,17.41,3.21,23.54,5.16,6.13,1.94,11.4,5.23,15.81,9.86,4.41,4.64,6.61,11.21,6.61,19.73,0,11.21-4.86,20.18-14.57,26.9-9.72,6.73-22.95,10.09-39.68,10.09-9.72,0-19.21-1.27-28.47-3.81"/>
      <polygon class="cls-1" points="317.66 231.43 329.34 231.43 329.34 284.44 362.22 284.44 362.22 294.32 317.66 294.32 317.66 231.43"/>
      <polygon class="cls-1" points="447.38 284.52 447.38 294.32 400.22 294.32 400.22 231.43 446.13 231.43 446.13 241.22 411.9 241.22 411.9 257.57 442.26 257.57 442.26 267.19 411.9 267.19 411.9 284.52 447.38 284.52"/>
      <path class="cls-1" d="M531.83,262.16h11.05v25.06c-3.23,2.58-7.01,4.55-11.32,5.93-4.31,1.38-8.74,2.07-13.3,2.07-6.41,0-12.19-1.39-17.34-4.18-5.15-2.79-9.2-6.63-12.13-11.54-2.93-4.91-4.4-10.45-4.4-16.62s1.47-11.71,4.4-16.62c2.93-4.91,6.99-8.76,12.17-11.54,5.18-2.79,11-4.18,17.47-4.18,5.27,0,10.06,.87,14.37,2.61,4.31,1.74,7.93,4.28,10.87,7.64l-7.37,7.19c-4.79-4.79-10.57-7.19-17.34-7.19-4.43,0-8.37,.93-11.81,2.79-3.44,1.86-6.14,4.46-8.09,7.81-1.94,3.35-2.92,7.19-2.92,11.5s.97,7.97,2.92,11.32c1.95,3.35,4.64,5.99,8.09,7.9,3.44,1.92,7.35,2.88,11.72,2.88,4.91,0,9.22-1.08,12.94-3.23v-19.58Z"/>
      <path class="cls-1" d="M627.76,279.76h-31.44l-6.2,14.55h-12.04l28.3-62.88h11.5l28.39,62.88h-12.22l-6.29-14.55Zm-3.86-9.16l-11.86-27.49-11.77,27.49h23.62Z"/>
      <polygon class="cls-1" points="683.01 231.43 694.69 231.43 694.69 284.44 727.57 284.44 727.57 294.32 683.01 294.32 683.01 231.43"/>
      <path class="cls-1" d="M859.89,279.76h-31.44l-6.2,14.55h-12.04l28.3-62.88h11.5l28.39,62.88h-12.22l-6.29-14.55Zm-3.86-9.16l-11.86-27.49-11.77,27.49h23.62Z"/>
      <rect class="cls-1" x="915.14" y="231.43" width="11.68" height="62.88"/> -->
    </g>
  </g>
</svg>