<?xml version="1.0" encoding="UTF-8"?>
<svg id="Layer_2" data-name="Layer 2" xmlns="http://www.w3.org/2000/svg" viewBox="0 0 223.03 294.93">
  <defs>
    <style>
      .cls-1 {
        fill: #3359a7;
      }
    </style>
  </defs>
  <g id="Layer_1-2" data-name="Layer 1">
    <g>
      <path class="cls-1" d="M182.89,212.18c-7.75,17.96-17.91,31.5-31.06,41.35-12.08,9.05-25.3,13.46-40.31,13.46s-28.25-4.41-40.38-13.46c-13.05-9.83-23.19-23.39-30.99-41.52-8.11-18.93-12.22-40.65-12.22-64.56s4.11-45.61,12.25-64.56c7.77-18.13,17.91-31.69,30.96-41.44,12.13-9.08,25.32-13.51,40.38-13.51s28.23,4.43,40.31,13.48c13.15,9.8,23.29,23.34,31.08,41.35,8.09,18.76,12.15,40.53,12.15,64.69s-4.07,45.95-12.18,64.73m25.66-140.5c-9.66-22.39-23-39.94-39.94-52.63C151.64,6.34,132.61,0,111.53,0s-40.14,6.34-57.11,19.05c-16.97,12.68-30.26,30.31-39.94,52.85C4.84,94.41,0,119.61,0,147.45s4.84,53.06,14.48,75.58c9.68,22.54,22.97,40.14,39.94,52.85,16.97,12.71,36,19.05,57.11,19.05s40.11-6.34,57.08-19.05c16.95-12.71,30.29-30.24,39.94-52.63,9.64-22.39,14.48-47.64,14.48-75.8s-4.84-53.38-14.48-75.77"/>
      <path class="cls-1" d="M167.18,147.46c0,16.11-2.71,30.62-8.11,43.13-5.16,11.97-11.94,20.99-20.69,27.55-8.05,6.03-16.86,8.97-26.86,8.97s-18.82-2.94-26.9-8.97c-8.69-6.55-15.45-15.58-20.65-27.66-5.4-12.61-8.15-27.08-8.15-43.02"/>
    </g>
  </g>
</svg>